<?xml version="1.0" encoding="utf-8"?>
<!-- Generator: Adobe Illustrator 18.0.0, SVG Export Plug-In . SVG Version: 6.00 Build 0)  -->
<!DOCTYPE svg PUBLIC "-//W3C//DTD SVG 1.1//EN" "http://www.w3.org/Graphics/SVG/1.1/DTD/svg11.dtd">
<svg version="1.1" id="Layer_1" xmlns="http://www.w3.org/2000/svg" xmlns:xlink="http://www.w3.org/1999/xlink" x="0px" y="0px"
	 viewBox="0 0 72 72" enable-background="new 0 0 72 72" xml:space="preserve" width="85px" height="85px">
<g>
	<g>
		<polygon fill="#BE1414" points="50.6,48.9 46.3,45.6 47.9,43.8 		"/>
		<path fill="#D5757A" d="M0,12.1c0,0,0,0.1,0,0.1C0,12.2,0,12.2,0,12.1C0,12.2,0,12.2,0,12.1C0,12.1,0,12.1,0,12.1z M0,12.3L0,12.3
			C0,12.3,0,12.3,0,12.3c0,0.1,0,0.1,0,0.2c0,0,0,0,0,0C0,12.4,0,12.4,0,12.3z M0.1,12C0,12,0,12,0.1,12C0.1,12,0.1,11.9,0.1,12
			C0.1,11.9,0.1,11.9,0.1,12z M0.1,12.7C0.1,12.7,0.1,12.7,0.1,12.7C0.1,12.7,0.1,12.8,0.1,12.7C0.1,12.8,0.1,12.8,0.1,12.7z
			 M0.1,12.7C0.1,12.7,0.1,12.7,0.1,12.7C0.1,12.7,0.1,12.7,0.1,12.7C0.1,12.7,0.1,12.7,0.1,12.7z M0.1,12.9
			C0.2,12.9,0.2,13,0.1,12.9C0.2,13,0.2,13,0.1,12.9C0.2,13,0.2,13,0.1,12.9z M0.2,11.6C0.2,11.6,0.2,11.6,0.2,11.6
			C0.2,11.6,0.2,11.6,0.2,11.6C0.2,11.6,0.2,11.6,0.2,11.6z M0.8,11.1C0.8,11.1,0.8,11.1,0.8,11.1C0.8,11.1,0.8,11.1,0.8,11.1
			C0.8,11.1,0.8,11.1,0.8,11.1C0.8,11.1,0.8,11.1,0.8,11.1z"/>
	</g>
	<g>
		<polygon fill="#BE1414" points="46.1,41.8 44.2,43.9 43.3,44.9 42.5,45.9 32.1,57.5 6.6,18.1 5.6,16.6 11.6,20.3 11.6,20.3
			22.6,27.2 		"/>
		<path fill="#D5757A" d="M0.8,11.1C0.8,11.1,0.8,11.1,0.8,11.1C0.8,11.1,0.8,11.1,0.8,11.1C0.8,11.1,0.8,11.1,0.8,11.1
			C0.8,11.1,0.8,11.1,0.8,11.1z M0.1,12.9L0.1,12.9C0.1,12.9,0.2,13,0.1,12.9C0.2,13,0.2,13,0.1,12.9C0.2,13,0.2,13,0.1,12.9z
			 M0.1,12.7C0.1,12.7,0.1,12.7,0.1,12.7C0.1,12.7,0.1,12.7,0.1,12.7C0.1,12.7,0.1,12.7,0.1,12.7z M0.1,12.7
			C0.1,12.7,0.1,12.7,0.1,12.7C0.1,12.7,0.1,12.8,0.1,12.7C0.1,12.8,0.1,12.8,0.1,12.7z M0.1,12C0,12,0,12,0.1,12
			C0.1,12,0.1,11.9,0.1,12C0.1,11.9,0.1,11.9,0.1,12z M0,12.1c0,0,0,0.1,0,0.1C0,12.2,0,12.2,0,12.1C0,12.2,0,12.2,0,12.1
			C0,12.1,0,12.1,0,12.1z M0,12.3L0,12.3C0,12.3,0,12.3,0,12.3c0,0.1,0,0.1,0,0.2c0,0,0,0,0,0C0,12.4,0,12.4,0,12.3z"/>
	</g>
	<g>
		<path fill="#BE1414" d="M56.2,33.6l-2.2,16L49.4,41l0-0.1c0,0-0.1-0.1-0.1-0.1c0-0.1-0.1-0.1-0.2-0.2c0,0-0.1-0.1-0.1-0.1
			c0,0-0.1-0.1-0.1-0.1L12.7,17.8L56.2,33.6z"/>
		<path fill="#D5757A" d="M0.8,11.1C0.8,11.1,0.8,11.1,0.8,11.1C0.8,11.1,0.8,11.1,0.8,11.1C0.8,11.1,0.8,11.1,0.8,11.1
			C0.8,11.1,0.8,11.1,0.8,11.1z M0.1,12.9C0.2,12.9,0.2,13,0.1,12.9C0.2,13,0.2,13,0.1,12.9C0.2,13,0.2,13,0.1,12.9z"/>
		<path fill="#DB7F73" d="M71.9,20.9c-0.2-0.5-0.6-0.9-1.1-0.9L1.6,11l0,0l0,0c0,0-0.1,0-0.1,0c0,0-0.1,0-0.1,0c-0.1,0-0.1,0-0.2,0
			c0,0,0,0,0,0c0,0-0.1,0-0.1,0h0c0,0,0,0,0,0c0,0,0,0,0,0c0,0,0,0,0,0c0,0,0,0,0,0c0,0,0,0,0,0c0,0,0,0,0,0c0,0-0.1,0-0.1,0
			c0,0,0,0,0,0c0,0,0,0,0,0c0,0,0,0,0,0c0,0,0,0,0,0c0,0,0,0,0,0c0,0,0,0,0,0c0,0,0,0,0,0c0,0,0,0,0,0c0,0,0,0,0,0c0,0,0,0,0,0l0,0
			c0,0,0,0,0,0c0,0-0.1,0.1-0.1,0.1c0,0,0,0,0,0c0,0,0,0,0,0l0,0c0,0,0,0,0,0c0,0,0,0,0,0c0,0,0,0,0,0c0,0,0,0,0,0c0,0,0,0,0,0l0,0
			c0,0,0,0,0,0c0,0,0,0,0,0c0,0,0,0.1-0.1,0.1c0,0,0,0,0,0c0,0,0,0,0,0v0c0,0,0,0.1,0,0.1c0,0,0,0.1,0,0.1c0,0,0,0,0,0c0,0,0,0,0,0
			c0,0,0,0.1,0,0.1c0,0,0,0.1,0,0.1c0,0,0,0.1,0,0.1c0,0.1,0,0.1,0,0.2c0,0,0,0,0,0c0,0,0,0.1,0,0.1v0c0,0,0,0,0,0c0,0,0,0,0,0
			c0,0,0,0,0,0c0,0,0,0,0,0c0,0,0,0,0,0.1c0,0,0,0.1,0.1,0.1l0,0c0,0,0,0.1,0,0.1c0,0,0,0,0,0c0,0,0,0,0,0c0,0,0,0,0,0l0,0
			c0,0,0,0,0,0l30.5,47.3c0.2,0.3,0.6,0.6,1,0.6h0.1c0.4,0,0.7-0.2,1-0.4l11.7-13l9.4,7.3c0,0,0.1,0.1,0.1,0.1c0,0,0.1,0.1,0.1,0.1
			c0,0,0,0,0,0c0,0,0.1,0,0.1,0c0.1,0,0.2,0.1,0.4,0.1c0.1,0,0.2,0,0.2,0c0,0,0,0,0,0c0.2,0,0.3-0.1,0.4-0.2c0.1,0,0.1-0.1,0.2-0.1
			c0.1-0.1,0.2-0.1,0.2-0.2c0,0,0-0.1,0.1-0.1c0.1-0.1,0.1-0.2,0.1-0.3c0,0,0-0.1,0-0.1c0,0,0-0.1,0-0.1l0,0l2.8-20.5l12.6-11.1
			C71.9,22,72.1,21.4,71.9,20.9z M44.2,43.9l-0.9,1l-0.9,1L32.1,57.5L6.6,18.1l-1-1.6l5.9,3.7l0,0l11,6.9l23.5,14.6L44.2,43.9z
			 M46.3,45.6l1.6-1.7l2.7,5.1L46.3,45.6z M54,49.6L49.4,41l0-0.1c0,0-0.1-0.1-0.1-0.1c0-0.1-0.1-0.1-0.2-0.2c0,0-0.1-0.1-0.1-0.1
			c0,0-0.1-0.1-0.1-0.1L12.7,17.8l43.5,15.8L54,49.6z M13.1,15.2l54.5,7.1l-10.2,8.9L13.1,15.2z"/>
	</g>
	<g>
		<polygon fill="#BE1414" points="67.6,22.3 57.4,31.2 13.1,15.2 		"/>
		<path fill="#D5757A" d="M0.2,11.6C0.2,11.6,0.2,11.6,0.2,11.6C0.2,11.6,0.2,11.6,0.2,11.6C0.2,11.6,0.2,11.6,0.2,11.6z"/>
	</g>
</g>
</svg>
