<?xml version="1.0" encoding="utf-8"?>
<!-- Generator: Adobe Illustrator 18.0.0, SVG Export Plug-In . SVG Version: 6.00 Build 0)  -->
<!DOCTYPE svg PUBLIC "-//W3C//DTD SVG 1.1//EN" "http://www.w3.org/Graphics/SVG/1.1/DTD/svg11.dtd">
<svg version="1.1" id="Layer_1" xmlns="http://www.w3.org/2000/svg" xmlns:xlink="http://www.w3.org/1999/xlink" x="0px" y="0px"
	 viewBox="0 0 72 72" enable-background="new 0 0 72 72" xml:space="preserve" width="85px" height="85px">
<g>
	<g>
		<path fill="#BE1414" d="M61.8,21.7l-2.9,40l-48.6-3.5l2.9-40l5.7,0.4l-0.4,5c-0.1,0.8,0.5,1.5,1.3,1.5c0.8,0.1,1.5-0.5,1.5-1.3
			l0.4-5l5.7,0.4l-0.4,5c-0.1,0.8,0.5,1.5,1.3,1.5c0.8,0.1,1.5-0.5,1.5-1.3l0.4-5l5.7,0.4l-0.4,5c-0.1,0.8,0.5,1.5,1.3,1.5
			s1.5-0.5,1.5-1.3l0.4-5l5.7,0.4l-0.4,5c-0.1,0.8,0.5,1.5,1.3,1.5c0.8,0.1,1.5-0.5,1.5-1.3l0.4-5l5.7,0.4l-0.4,5
			c-0.1,0.8,0.5,1.5,1.3,1.5s1.5-0.5,1.5-1.3l0.4-5L61.8,21.7z"/>
	</g>
	<g>
		<line fill="none" x1="54.2" y1="26.2" x2="54.6" y2="21.2"/>
		<line fill="none" x1="54.8" y1="18.3" x2="55.3" y2="11.2"/>
		<path fill="#DB7F73" d="M63.4,19l-7.2-0.5l0.5-7.2c0.1-0.8-0.5-1.5-1.3-1.5s-1.5,0.5-1.5,1.3l-0.5,7.2l-5.7-0.4l0.5-7.2
			c0.1-0.8-0.5-1.5-1.3-1.5c-0.8-0.1-1.5,0.5-1.5,1.3l-0.5,7.2l-5.7-0.4l0.5-7.2c0.1-0.8-0.5-1.5-1.3-1.5c-0.8-0.1-1.5,0.5-1.5,1.3
			L36.2,17l-5.7-0.4L31,9.4c0.1-0.8-0.5-1.5-1.3-1.5c-0.8-0.1-1.5,0.5-1.5,1.3l-0.5,7.2L21.9,16l0.5-7.2c0.1-0.8-0.5-1.5-1.3-1.5
			c-0.8-0.1-1.5,0.5-1.5,1.3l-0.5,7.2l-7.2-0.5c-0.8-0.1-1.5,0.5-1.5,1.3L7.3,59.5c-0.1,0.8,0.5,1.5,1.3,1.5l51.5,3.7
			c0.8,0.1,1.5-0.5,1.5-1.3l3.1-42.9C64.8,19.7,64.2,19,63.4,19z M58.9,61.8l-48.6-3.5l2.9-40l5.7,0.4l-0.4,5
			c-0.1,0.8,0.5,1.5,1.3,1.5c0.8,0.1,1.5-0.5,1.5-1.3l0.4-5l5.7,0.4l-0.4,5c-0.1,0.8,0.5,1.5,1.3,1.5c0.8,0.1,1.5-0.5,1.5-1.3l0.4-5
			l5.7,0.4l-0.4,5c-0.1,0.8,0.5,1.5,1.3,1.5s1.5-0.5,1.5-1.3l0.4-5l5.7,0.4l-0.4,5c-0.1,0.8,0.5,1.5,1.3,1.5
			c0.8,0.1,1.5-0.5,1.5-1.3l0.4-5l5.7,0.4l-0.4,5c-0.1,0.8,0.5,1.5,1.3,1.5s1.5-0.5,1.5-1.3l0.4-5l5.7,0.4L58.9,61.8z"/>
	</g>
	<g>
		<line fill="none" x1="45.7" y1="25.6" x2="46" y2="20.6"/>
		<line fill="none" x1="46.2" y1="17.7" x2="46.8" y2="10.6"/>
	</g>
	<g>
		<line fill="none" x1="37.1" y1="25" x2="37.4" y2="20"/>
		<line fill="none" x1="37.7" y1="17.1" x2="38.2" y2="9.9"/>
	</g>
	<g>
		<line fill="none" x1="28.5" y1="24.3" x2="28.9" y2="19.3"/>
		<line fill="none" x1="29.1" y1="16.5" x2="29.6" y2="9.3"/>
	</g>
	<g>
		<line fill="none" x1="20.5" y1="15.9" x2="21" y2="8.7"/>
		<line fill="none" x1="19.9" y1="23.7" x2="20.3" y2="18.7"/>
	</g>
	<g>
		<path fill="#DB7F73" d="M24.8,38.6l-3.9-0.3c-1-0.1-1.5-0.5-1.4-1.7c0.1-1.1,0.7-1.4,2.3-1.6l1.1-0.2c3.4-0.5,2.7-4,5.3-3.8
			c1,0.1,1.7,0.5,1.6,2.2l-1.2,17.1c-0.1,1.6-0.8,2.6-2.5,2.5c-1.7-0.1-2.2-1.2-2.1-2.8L24.8,38.6z"/>
		<path fill="#DB7F73" d="M48.4,50.3c1.1,0.1,1.9,0.7,1.8,2c-0.1,1.4-1,1.8-2.4,1.7l-11.3-0.8c-1.7-0.1-2.4-1.3-2.3-2.4
			c0.2-2.1,2.2-4.4,6.1-6.5c4.4-2.3,5.8-2.8,6-5.2c0.1-2-1.3-3.1-2.9-3.3c-1.9-0.1-3.3,0.5-4.1,2.9c-0.4,1.1-0.8,1.6-2,1.5
			c-1.2-0.1-2.2-0.7-2-2.2c0.3-3.7,4.1-6.2,8.5-5.9c4.8,0.3,7.4,3.7,7.2,6.5c-0.3,4-2.2,5.4-5.5,7c-3.5,1.7-5.7,2.8-6.2,3.9
			L48.4,50.3z"/>
	</g>
</g>
</svg>
