<?xml version="1.0" encoding="utf-8"?>
<!-- Generator: Adobe Illustrator 18.0.0, SVG Export Plug-In . SVG Version: 6.00 Build 0)  -->
<!DOCTYPE svg PUBLIC "-//W3C//DTD SVG 1.1//EN" "http://www.w3.org/Graphics/SVG/1.1/DTD/svg11.dtd">
<svg version="1.1" id="Layer_1" xmlns="http://www.w3.org/2000/svg" xmlns:xlink="http://www.w3.org/1999/xlink" x="0px" y="0px"
	 viewBox="0 0 72 72" enable-background="new 0 0 72 72" xml:space="preserve" width="85px" height="85px">
<g>
	<g>
		<path fill="#BE1414" d="M34.3,40l-0.1,12l-6-5c-0.1-0.1-0.1-0.1-0.2-0.2l-4.5-3.7l-0.1,6.1v0l-0.1,5.6l-13.1-7.9l0.1-29.4l13.3,8
			c0,0,0,0,0,0l0,1.7v0.1l0,9.5l0,2.8l6.9,0.3L34.3,40z"/>
		<path fill="#D5757A" d="M26.6,36.8l7.7,0.3v0L26.6,36.8z"/>
	</g>
	<g>
		<path fill="#BE1414" d="M34.4,32.1l0,3.8v0l0,1.2v0l-7.7-0.3l0-9.5L34.4,32.1C34.3,32.1,34.4,32.1,34.4,32.1z"/>
		<path fill="#D5757A" d="M37.3,32.1l0,2.9L37.3,32.1L37.3,32.1L37.3,32.1z M30.7,39.9l3.5,0.1h0.1L30.7,39.9z"/>
	</g>
	<g>
		<path fill="#BE1414" d="M34.1,55.7V56c0,0,0,0,0,0v0.1L34,61.2v0.1l-7.8-4.7l0-1.7l0.1-5.6l6,5L34.1,55.7z"/>
	</g>
	<g>
		<polygon fill="#BE1414" points="32.7,18.7 26.5,22.3 25.1,23.1 25.1,23.1 11.8,15 11.8,15 19.1,10.7 		"/>
		<path fill="#DB7F73" d="M61.9,12.1l-7.2-4.2c-0.5-0.3-1-0.4-1.5-0.4c-0.5,0-1,0.1-1.4,0.4l-16.5,9.4c-0.2-0.4-14.7-9-14.7-9
			c-0.5-0.3-1-0.4-1.5-0.4c-0.5,0-1,0.1-1.4,0.4l-7.3,4.2c-2.3,1.3-2.9,2.9-2.9,5L7.3,46.9c0,1,0.5,2,1.4,2.5l13.1,7.9
			c0.5,0.3,2.4,1.4,2.9,1.7l7.8,4.7c0.5,0.3,5.4,0.2,5.9,0L62.8,49c0.9-0.5,1.4-1.4,1.4-2.4l0.4-29.3v-0.1
			C64.7,15.1,64.2,13.4,61.9,12.1z M19.1,10.7l13.6,8l-6.2,3.6l-1.4,0.8h0l-13.3-8L11.8,15L19.1,10.7z M34.1,56
			C34.1,56,34.1,56,34.1,56l0,0.1L34,61.2v0.1l-7.8-4.7l0-1.7l0.1-5.6l6,5l1.8,1.5V56z M34.1,52l-6-5c-0.1-0.1-0.1-0.1-0.2-0.2
			l-4.5-3.7l-0.1,6.1v0l-0.1,5.6l-13.1-7.9l0.1-29.4l13.3,8c0,0,0,0,0,0l0,1.7v0.1l0,9.5l0,2.8l6.9,0.3l3.6,0.1L34.1,52z M34.3,35.9
			L34.3,35.9l0,1.2v0l-7.7-0.3l0-9.5l7.7,4.7c0,0,0,0,0.1,0L34.3,35.9z M35.8,29.6L28,24.8l0.2-0.1l2.3-1.3l22.7-13l7.2,4.2
			l-0.2,0.1L35.8,29.6z M37.2,39.3l1.5-0.9l4.2-2.5v13.7L37,52.8l0-0.7l0.2-12.2v0L37.2,39.3z M61.3,46.5L36.9,61.2l0.1-5.1l1.4-0.8
			l5.9-3.2l0,0l1.5-0.8V30.8l-4.2,2.5l-4.3,2.6l0-0.9l0-2.9l0,0l24.5-14.9L61.3,46.5z M24.7,59l7.8,4.7c2.2,1.1,3.9,1.1,5.9,0
			L24.7,59z"/>
	</g>
	<g>
		<polygon fill="#BE1414" points="60.4,14.6 60.2,14.7 35.8,29.6 28,24.8 28.2,24.6 30.5,23.3 53.2,10.3 		"/>
	</g>
	<g>
		<polygon fill="#BE1414" points="42.9,35.9 42.9,49.6 37,52.8 37,52.1 37.2,39.9 37.2,39.9 37.2,39.3 38.7,38.4 		"/>
	</g>
	<g>
		<polygon fill="#BE1414" points="61.8,17.2 61.3,46.5 36.9,61.2 37,56.1 38.4,55.4 44.3,52.1 44.3,52.1 45.8,51.3 45.8,30.8
			41.6,33.3 37.2,35.9 37.2,35 37.3,32.1 37.3,32.1 		"/>
	</g>
</g>
</svg>
