<?xml version="1.0" encoding="utf-8"?>
<!-- Generator: Adobe Illustrator 18.0.0, SVG Export Plug-In . SVG Version: 6.00 Build 0)  -->
<!DOCTYPE svg PUBLIC "-//W3C//DTD SVG 1.1//EN" "http://www.w3.org/Graphics/SVG/1.1/DTD/svg11.dtd">
<svg version="1.1" id="Layer_1" xmlns="http://www.w3.org/2000/svg" xmlns:xlink="http://www.w3.org/1999/xlink" x="0px" y="0px"
	 viewBox="0 0 72 72" enable-background="new 0 0 72 72" xml:space="preserve" width="85px" height="85px">
<g>
	<g>
		<path fill="#BE1414" d="M67.7,24.4l-1.8,16.2L5.8,33.8l1.8-16.2c0.4-3.3,3.4-5.7,6.7-5.3l48.1,5.4C65.7,18.1,68.1,21.1,67.7,24.4z
			"/>
		<path fill="#BE1414" d="M64.5,52.6l-0.2,1.8c-0.4,3.3-3.4,5.7-6.7,5.3L9.6,54.3c-3.3-0.4-5.7-3.4-5.3-6.7l0.2-1.8L64.5,52.6z"/>
		<path fill="#DB7F73" d="M62.7,14.7L14.7,9.3c-5-0.6-9.5,3-10,8l-3.4,30c-0.6,5,3,9.5,8,10l48.1,5.4c5,0.6,9.5-3,10-8l3.4-30
			C71.3,19.8,67.7,15.3,62.7,14.7z M7.7,17.6c0.4-3.3,3.4-5.7,6.7-5.3l48.1,5.4c3.3,0.4,5.7,3.4,5.3,6.7l-1.8,16.2L5.8,33.8
			L7.7,17.6z M64.3,54.4c-0.4,3.3-3.4,5.7-6.7,5.3L9.6,54.3c-3.3-0.4-5.7-3.4-5.3-6.7l0.2-1.8l60.1,6.8L64.3,54.4z"/>
	</g>
	<g>
		<path fill="#DEC5C5" d="M24.8,18.5c0.1-0.7,0.6-1.1,1.2-1.1s1.1,0.6,1,1.3l-0.5,4.8c-0.1,0.7-0.6,1.1-1.2,1.1s-1.1-0.6-1-1.3
			l0.2-1.6l-2.2-0.2L22.1,23c-0.1,0.7-0.6,1.1-1.2,1.1s-1.1-0.6-1-1.3l0.5-4.8c0.1-0.7,0.6-1.1,1.2-1.1c0.7,0.1,1.1,0.6,1,1.3
			l-0.1,1.3l2.2,0.2L24.8,18.5z"/>
		<path fill="#DEC5C5" d="M28.5,19.1c0.1-0.9,0.6-1.3,1.4-1.2l3.5,0.4c0.7,0.1,0.9,0.4,0.9,0.9c-0.1,0.5-0.4,0.8-1.1,0.7l-2.6-0.3
			l-0.1,1l2.1,0.2c0.7,0.1,0.9,0.4,0.9,0.9c-0.1,0.5-0.4,0.8-1.1,0.7l-2.1-0.2l-0.1,1.1l2.7,0.3c0.7,0.1,0.9,0.4,0.9,0.9
			c-0.1,0.5-0.4,0.8-1.1,0.7l-3.6-0.4c-0.9-0.1-1.2-0.5-1.1-1.5L28.5,19.1z"/>
		<path fill="#DEC5C5" d="M39.6,24.2c0.6,0.1,0.9,0.4,0.9,1c-0.1,0.6-0.5,0.9-1.1,0.8l-3.3-0.4c-0.9-0.1-1.2-0.5-1.1-1.5l0.5-4.5
			c0.1-0.7,0.6-1.1,1.2-1.1s1.1,0.6,1,1.3L37.2,24L39.6,24.2z"/>
		<path fill="#DEC5C5" d="M46,25c0.6,0.1,0.9,0.4,0.9,1c-0.1,0.6-0.5,0.9-1.1,0.8l-3.3-0.4c-0.9-0.1-1.2-0.5-1.1-1.5l0.5-4.5
			c0.1-0.7,0.6-1.1,1.2-1.1s1.1,0.6,1,1.3l-0.5,4.1L46,25z"/>
		<path fill="#DEC5C5" d="M51.7,20.3c1.8,0.2,3.4,1.6,3.2,4c-0.3,2.5-2.1,3.4-4,3.2c-1.9-0.2-3.5-1.5-3.2-4
			C47.9,21,49.8,20,51.7,20.3z M51.5,22c-0.9-0.1-1.5,0.6-1.6,1.7c-0.1,1.1,0.2,1.9,1.2,2c0.9,0.1,1.5-0.6,1.6-1.7
			C52.7,22.9,52.4,22.1,51.5,22z"/>
		<path fill="#DEC5C5" d="M19.5,27c0-0.4,0.3-0.4,0.6-0.4l0.3,0c0.3,0,0.4,0.2,0.5,0.5l0.5,2.7l0,0l1.1-2.5c0.1-0.3,0.3-0.4,0.6-0.4
			l0.3,0c0.3,0,0.5,0.1,0.5,0.5l-0.4,3.3c0,0.2-0.2,0.4-0.5,0.4s-0.4-0.3-0.4-0.5l0.3-2.5l0,0l-1.2,2.6C21.6,31,21.4,31,21.2,31
			c-0.2,0-0.3-0.1-0.4-0.3l-0.6-2.8l0,0L20,30.4c0,0.2-0.2,0.4-0.5,0.4c-0.3,0-0.4-0.3-0.4-0.5L19.5,27z"/>
		<path fill="#DEC5C5" d="M25.2,29.7l-0.9-2c0-0.1-0.1-0.2-0.1-0.3c0-0.3,0.3-0.4,0.5-0.4c0.2,0,0.3,0.1,0.4,0.3l0.6,1.6l1-1.4
			c0.1-0.2,0.2-0.3,0.4-0.2c0.2,0,0.5,0.2,0.4,0.5c0,0.1-0.1,0.2-0.1,0.2l-1.4,1.8L26,31.1c0,0.3-0.2,0.4-0.5,0.4
			c-0.3,0-0.4-0.2-0.4-0.5L25.2,29.7z"/>
		<path fill="#DEC5C5" d="M29.8,28.2c0-0.4,0.3-0.5,0.7-0.5c0.2,0,0.4,0.1,0.4,0.3l1.3,2.8l0,0l0.3-2.4c0-0.3,0.2-0.4,0.5-0.4
			c0.3,0,0.4,0.2,0.4,0.5l-0.4,3.2c0,0.4-0.2,0.6-0.6,0.5c-0.3,0-0.4-0.1-0.5-0.3l-1.3-2.8l0,0l-0.3,2.4c0,0.3-0.2,0.4-0.5,0.4
			c-0.3,0-0.4-0.2-0.4-0.5L29.8,28.2z"/>
		<path fill="#DEC5C5" d="M35.2,28.6c0.1-0.2,0.3-0.3,0.5-0.2l0.2,0c0.2,0,0.4,0.1,0.5,0.4l0.8,3.3c0,0.1,0.1,0.3,0.1,0.4
			c0,0.2-0.2,0.4-0.5,0.4c-0.2,0-0.3-0.1-0.4-0.3l-0.2-0.7l-1.5-0.2l-0.3,0.7c-0.1,0.2-0.2,0.2-0.4,0.2c-0.3,0-0.4-0.2-0.4-0.5
			c0-0.1,0.1-0.3,0.1-0.3L35.2,28.6z M35.7,29.4L35.7,29.4L35,30.9l1.1,0.1L35.7,29.4z"/>
		<path fill="#DEC5C5" d="M38.1,29.1c0-0.4,0.3-0.4,0.6-0.4l0.3,0c0.3,0,0.4,0.2,0.5,0.5l0.5,2.7l0,0l1.1-2.5
			c0.1-0.3,0.3-0.4,0.6-0.4l0.3,0c0.3,0,0.5,0.1,0.5,0.5L42,32.9c0,0.2-0.2,0.4-0.5,0.4s-0.4-0.3-0.4-0.5l0.3-2.5l0,0l-1.2,2.6
			c-0.1,0.2-0.2,0.3-0.4,0.2s-0.3-0.1-0.4-0.3l-0.6-2.8l0,0l-0.3,2.5c0,0.2-0.2,0.4-0.5,0.4c-0.3,0-0.4-0.3-0.4-0.5L38.1,29.1z"/>
		<path fill="#DEC5C5" d="M43.2,29.8c0-0.4,0.3-0.5,0.6-0.5l2.2,0.2c0.3,0,0.5,0.1,0.4,0.4c0,0.3-0.2,0.4-0.5,0.3l-1.8-0.2L44,31
			l1.6,0.2c0.2,0,0.4,0.1,0.4,0.4s-0.2,0.3-0.5,0.3l-1.6-0.2l-0.1,1l1.9,0.2c0.3,0,0.5,0.1,0.4,0.4c0,0.3-0.2,0.4-0.5,0.3l-2.2-0.3
			c-0.3,0-0.5-0.2-0.5-0.6L43.2,29.8z"/>
		<path fill="#DEC5C5" d="M48.8,30.3c0-0.3,0.2-0.4,0.5-0.4c0.3,0,0.4,0.2,0.4,0.5l-0.4,3.3c0,0.3-0.2,0.4-0.5,0.4
			c-0.3,0-0.4-0.2-0.4-0.5L48.8,30.3z"/>
		<path fill="#DEC5C5" d="M52.6,32.1c0.8,0.3,1,0.8,0.9,1.3c-0.1,0.7-0.7,1.2-1.8,1.1c-1.2-0.1-1.7-0.8-1.6-1.2
			c0-0.2,0.2-0.4,0.4-0.3c0.5,0.1,0.3,0.8,1.2,0.9c0.5,0.1,0.8-0.2,0.8-0.5c0-0.2,0-0.4-0.4-0.5l-1-0.4c-0.8-0.3-0.9-0.8-0.9-1.2
			c0.1-0.9,1-1.2,1.8-1.1c0.7,0.1,1.5,0.6,1.5,1.1c0,0.2-0.2,0.3-0.5,0.3c-0.4,0-0.3-0.7-1.2-0.7c-0.4,0-0.7,0.1-0.7,0.4
			c0,0.3,0.3,0.4,0.6,0.5L52.6,32.1z"/>
	</g>
</g>
</svg>
