<?xml version="1.0" encoding="utf-8"?>
<!-- Generator: Adobe Illustrator 18.0.0, SVG Export Plug-In . SVG Version: 6.00 Build 0)  -->
<!DOCTYPE svg PUBLIC "-//W3C//DTD SVG 1.1//EN" "http://www.w3.org/Graphics/SVG/1.1/DTD/svg11.dtd">
<svg version="1.1" id="Layer_1" xmlns="http://www.w3.org/2000/svg" xmlns:xlink="http://www.w3.org/1999/xlink" x="0px" y="0px"
	 viewBox="0 0 72 72" enable-background="new 0 0 72 72" xml:space="preserve" width="85px" height="85px">
<g>
	<g>
		<g>
			<g>
				<polygon fill="#BE1414" points="64,51.4 47.8,13.5 50.8,12.2 67.1,50.1 				"/>
				<path fill="#DB7F73" d="M50.8,12.2l16.3,37.9l-3,1.3L47.8,13.5L50.8,12.2L50.8,12.2z M50.5,9.1c-0.3,0-0.6,0.1-1,0.2l-3,1.3
					c-1.6,0.7-2.3,2.5-1.6,4.1l16.3,37.9c0.3,0.8,0.9,1.3,1.7,1.6c0.5,0.2,0.9,0.2,1.4,0.2c0.3,0,0.6-0.1,1-0.2l3-1.3
					c1.6-0.7,2.3-2.5,1.6-4L53.6,11c-0.3-0.8-0.9-1.3-1.7-1.6C51.5,9.2,51,9.1,50.5,9.1L50.5,9.1z"/>
			</g>
			<g>
				<polygon fill="#BE1414" points="9,58.3 4.9,48.9 8,47.6 12,57 				"/>
				<path fill="#DB7F73" d="M8,47.6L12,57l-3,1.3l-4.1-9.5L8,47.6L8,47.6z M7.7,44.5c-0.3,0-0.6,0.1-0.9,0.2l-3,1.3
					c-0.8,0.3-1.3,0.9-1.6,1.7c-0.3,0.8-0.3,1.6,0,2.4l4.1,9.5c0.3,0.8,0.9,1.3,1.7,1.6c0.5,0.2,0.9,0.2,1.4,0.2
					c0.3,0,0.6-0.1,1-0.2l3-1.3c1.6-0.7,2.3-2.5,1.6-4.1l-4.1-9.5C10.3,45.1,9,44.4,7.7,44.5L7.7,44.5z"/>
			</g>
		</g>
		<path fill="#BE1414" d="M48,59.6c0,0.4-0.1,0.8-0.3,1.1c-0.3,0.3-0.6,0.5-1,0.6L31,62.9l0,0c-0.4,0-0.8-0.1-1.1-0.3
			c-0.3-0.3-0.5-0.6-0.6-1l-0.6-6.2l3.1-0.3l0.5,4.7l12.5-1.2l-0.4-4.5l3.1-0.3L48,59.6z"/>
	</g>
	<g>
		<g>
			<path fill="#DB7F73" d="M58.3,48.2L46.1,19.8c-0.4-1-1.3-1.7-2.4-2c-1-0.2-2.2,0.1-3,0.8L13,43.3c-1.1,1-1.4,2.5-0.9,3.9l3,6.9
				c0.6,1.3,2,2.2,3.4,2l10.2-0.9l3.1-0.3l12.5-1.1l3.1-0.3l8.1-0.7c1.1-0.1,2.1-0.7,2.6-1.6C58.7,50.4,58.7,49.2,58.3,48.2z
				 M55.5,49.7c0,0.1-0.1,0.1-0.2,0.1l-8.1,0.7L44,50.8l-12.5,1.1l-3.1,0.3l-10.2,0.9c-0.1,0-0.3-0.1-0.3-0.2l-3-6.9
				c-0.1-0.1,0-0.3,0.1-0.4l27.8-24.7c0,0,0.1-0.1,0.2-0.1c0,0,0.1,0,0.1,0c0.1,0,0.2,0.1,0.2,0.2l12.2,28.4
				C55.5,49.5,55.5,49.6,55.5,49.7z"/>
			<path fill="#BE1414" d="M55.5,49.7c0,0.1-0.1,0.1-0.2,0.1l-8.1,0.7L44,50.8l-12.5,1.1l-3.1,0.3l-10.2,0.9c-0.1,0-0.3-0.1-0.3-0.2
				l-3-6.9c-0.1-0.1,0-0.3,0.1-0.4l27.8-24.7c0,0,0.1-0.1,0.2-0.1c0,0,0.1,0,0.1,0c0.1,0,0.2,0.1,0.2,0.2l12.2,28.4
				C55.5,49.5,55.5,49.6,55.5,49.7z"/>
		</g>
	</g>
</g>
</svg>
