<svg xmlns="http://www.w3.org/2000/svg" viewBox="0 0 65 70" enable-background="new 0 0 65 70" height="100"><g fill="#D3692D"><path d="M39.4 9.8c-.7 0-1.3.6-1.3 1.3v19.6c-.1.3 0 .6.1.8.2.5.7.8 1.2.8s.9-.2 1.1-.6l10.7-10.6c.5-.5.5-1.4 0-1.9s-1.4-.5-1.9 0l-8.6 8.5V11.1c0-.7-.6-1.3-1.3-1.3zM24 38.3c-.7 0-1.3.6-1.3 1.3v14.2c0 .7.6 1.3 1.3 1.3s1.3-.6 1.3-1.3V39.6c0-.7-.6-1.3-1.3-1.3zM25.8 32.8H9.1C6.8 32.8 5 34.7 5 37v2.8C1 40.2.1 42.5.1 44.4v8c0 1.9.9 4.2 4.9 4.6.2 3.9 3.4 6.9 7.4 6.9h10.2c4.1 0 7.4-3.3 7.4-7.4V37c0-2.3-1.9-4.2-4.2-4.2zM2.7 52.5v-8c0-.6 0-1.7 2.3-1.9v11.9c-2.3-.4-2.3-1.4-2.3-2zm24.6 4.1c0 2.6-2.1 4.7-4.8 4.7H12.3c-2.6 0-4.8-2.1-4.8-4.7V37c0-.8.7-1.5 1.5-1.5h16.7c.8 0 1.5.7 1.5 1.5v19.6zM39.6 6C26.2 6 15 16.5 14.2 29.9c0 .7.5 1.4 1.2 1.4s1.4-.5 1.4-1.2C17.6 18 27.6 8.6 39.6 8.6c12.6 0 22.8 10.2 22.8 22.8 0 12.6-10.2 22.8-22.8 22.8-2.4 0-4.5-.3-6.5-.9-.7-.2-1.4.2-1.7.9-.2.7.2 1.4.9 1.7 2.2.7 4.6 1 7.3 1 14 0 25.4-11.4 25.4-25.4S53.6 6 39.6 6z"/></g></svg>