<svg xmlns="http://www.w3.org/2000/svg" viewBox="0 0 33.8 70" enable-background="new 0 0 33.8 70" height="100"><g fill="#D3692D"><path d="M33.7 50.9l-.2-4.9c0-2-1.6-3.6-3.6-3.6h-26c-2 0-3.6 1.6-3.6 3.5L0 51.1c0 .3.1.7.3.9.2.2.6.4.9.4h1.2l1.8 16.4c.1.7.6 1.2 1.3 1.2h22.8c.7 0 1.2-.5 1.3-1.1l1.8-16.4h1.2c.7 0 1.3-.6 1.3-1.3-.1-.1-.1-.2-.2-.3zM2.8 46c0-.6.5-1.1 1.1-1.1h26c.6 0 1.1.5 1.1 1.1l.2 3.9H2.6l.2-3.9zm24.3 21.4H6.6L5 52.4h23.8l-1.7 15zM9 19.1c-1.8 9.9 4.1 13.4 6.5 14.4v5.2c0 .7.6 1.3 1.3 1.3.7 0 1.3-.6 1.3-1.3v-4.9c2.7-.1 8.8-1.2 13.1-8.9C36.8 15.1 29.3 1.2 29 .7c-.3-.6-1-.8-1.6-.5C26.7.4 11.2 7.3 9 19.1zM27.3 2.9C28.8 6.2 33 16.5 29 23.7c-4.8 8.4-11.7 7.6-12 7.6H16.7c-1.4-.5-6.9-2.9-5.3-11.7 1.7-8.8 12.4-14.9 15.9-16.7zM18 23.8l-1.4 3.6c-.3.7.1 1.4.7 1.6.1.1.3.1.5.1.5 0 1-.3 1.2-.8l1.1-2.8c.1 0 .2-.1.3-.2l5.9-2.9c.6-.3.9-1.1.6-1.7-.3-.6-1.1-.9-1.7-.6L21.4 22l1.6-4.3 4.2-2.1c.6-.3.9-1.1.6-1.7-.3-.6-1.1-.9-1.7-.6l-1.7.8L26 10c.3-.7-.1-1.4-.7-1.6-.7-.3-1.4.1-1.6.7L22 13.2l-.6-1.6c-.3-.7-1-1-1.7-.7-.7.3-1 1-.7 1.7l1.7 4.3-1.3 3.6-1.1-2.8c-.3-.7-1-1-1.7-.7-.7.3-1 1-.7 1.7l2.1 5.1zM7.1 27.1c.3 0 .5-.1.8-.3.6-.4.7-1.2.2-1.8C3.3 18.7 3.6 8.5 3.8 5c2 .3 6.2.9 10.2 2.5.7.3 1.4 0 1.7-.7.3-.7 0-1.4-.7-1.7C9 2.7 2.9 2.5 2.7 2.5c-.7-.1-1.2.4-1.3 1.1-.1.6-1.8 14.5 4.6 23 .3.4.7.5 1.1.5z"/></g></svg>