<svg xmlns="http://www.w3.org/2000/svg" viewBox="0 0 68.3 70" enable-background="new 0 0 68.3 70" height="100"><path fill="#D3692D" d="M68.2 8.1v-.2c0-.1-.1-.2-.1-.2s0-.1-.1-.1l-.2-.2c-.1-.1-.2-.2-.4-.2h-.5c-.1 0-.2 0-.3.1h-.1L.8 35.3c-.5.2-.8.6-.8 1.1s.2 1 .6 1.3l10.8 7.2 5.2 16.8c.2.5.7 1.3 1.3 1.3.6 0 1.1-.7 1.3-1.3l.1-.3 6.3-6.8 9.5 7c.3.2.7.3 1 .2.4-.1.7-.3.9-.6L68.1 9v-.1s0-.1.1-.1c0-.1.1-.2.1-.3v-.2c0-.1-.1-.1-.1-.2zM4.1 36.7l49.3-21.2-40.9 26.8-8.4-5.6zm50.1-18.5L20.6 49c-.1.1-.2.2-.3.4v.2l-2.4 7.1-3.8-12.2 40.1-26.3zM21.1 55.4l1.1-3.3 1.2.9-2.3 2.4zm14.3 3.1l-11.8-8.7 37.5-34.4-25.7 43.1z"/></svg>