<svg xmlns="http://www.w3.org/2000/svg" viewBox="0 0 48.6 70" enable-background="new 0 0 48.6 70" height="100"><g fill="#E4BD31"><path d="M1.3 35.2c.7 0 1.3-.6 1.3-1.3C2.7 9.4 15.5 5.4 23.1 5.2h.7c15.4 0 20.7 15.6 20.9 16.3.2.7 1 1.1 1.7.9.7-.2 1.1-1 .9-1.7C47.1 20.5 41 2 23 2.5 8.4 3 0 14.4 0 33.9c0 .7.6 1.3 1.3 1.3zM9.5 32.3c.2-12.1 5.3-20.1 13.3-20.3C31 11.8 34 15.7 37 22.7c3.7 8.7 10.6 6.8 10.7 6.8.7-.2 1.1-.9.9-1.6-.2-.7-.9-1.1-1.6-.9-.2.1-4.7 1.2-7.5-5.3-3.2-7.5-6.9-12.3-15.9-12.3h-.8c-9.6.2-15.6 9.3-15.9 23 0 2.8-.7 4.8-2.1 6.1-1.5 1.4-3.4 1.4-3.4 1.4-.7 0-1.3.5-1.4 1.3 0 .7.5 1.3 1.3 1.4h.1c.6 0 3.1-.1 5.2-2.1 1.9-1.9 2.9-4.6 2.9-8.2zM14.9 35.2c0-.7-.6-1.3-1.3-1.3-.7 0-1.3.6-1.3 1.3.2 9.5-8.1 12-8.5 12.1-.8.2-1.2.9-1 1.7.2.6.7 1 1.3 1h.3c.1-.1 10.7-3.2 10.5-14.8zM47.2 35c-.4 0-11.2.6-14.4-12-1.6-6.3-6.3-8.3-10-7.4-4.3 1-7.9 5.5-6.6 12.3 2.1 10.9 7 21.3 28.2 23.4h.1c.7 0 1.2-.5 1.3-1.2.1-.7-.5-1.4-1.2-1.5-20.4-2.1-24.1-12.1-25.9-21.3-1-5.2 1.5-8.6 4.5-9.2 2.4-.5 5.6.6 6.9 5.5 3.7 14.8 17 14 17.2 13.9.7-.1 1.3-.7 1.2-1.4.1-.6-.6-1.2-1.3-1.1zM45.9 42.3c-7.5.2-13.2-2.9-17-9.2-2.9-4.8-3.5-9.8-3.5-9.9-.1-.7-.7-1.2-1.5-1.2-.7.1-1.2.7-1.2 1.5 0 .2 2.8 21.5 22.4 21.5h.8c.7 0 1.3-.6 1.3-1.4 0-.7-.6-1.3-1.3-1.3zM40.7 54.7c-8.3 0-15.7-3.9-22.4-11.9-.3-.4-.8-.6-1.3-.4-.5.1-.9.5-1 1-1.8 8.1-9.4 10.1-9.7 10.2-.7.2-1.1.9-1 1.6.2.7.9 1.1 1.6 1 .4-.1 8-2 11-9.8 6.8 7.3 14.4 11 22.8 11 .7 0 1.3-.6 1.3-1.3s-.6-1.4-1.3-1.4zM35.7 60h-.1c-6.9 0-11.8-3.9-15.6-7.7-.3-.3-.7-.4-1.1-.4-.4.1-.8.3-1 .6-2.9 4.9-8.3 6.4-8.4 6.5-.7.2-1.1.9-.9 1.6.2.7.9 1.1 1.6.9.2-.1 5.5-1.5 9-6.2 4.1 3.8 9.2 7.3 16.3 7.3h.1c.7 0 1.3-.6 1.3-1.3.1-.7-.5-1.3-1.2-1.3zM29 64.9c-5.1-.9-8.5-4.3-8.5-4.4-.5-.5-1.3-.6-1.9-.1-.5.5-.6 1.3-.1 1.9.2.2 3.9 4.1 10 5.2h.2c.6 0 1.2-.5 1.3-1.1.2-.7-.3-1.4-1-1.5z"/></g></svg>