<svg xmlns="http://www.w3.org/2000/svg" viewBox="0 0 71.8 70" enable-background="new 0 0 71.8 70" height="100"><g fill="#E4BD31"><path d="M68.1 57.1c-.1 0-5-4.8-5-9.9 5.5-3.8 8.7-9 8.7-14.5 0-11.1-12.5-20-28-20-15.4 0-28 9-28 20 0 7.9 6.5 15.1 16.6 18.3 3.6 1.1 7.4 1.7 11.3 1.7 2.7 0 5.4-.3 7.8-.8 4.1 7.1 11.7 7.6 13.9 7.6 2.2 0 2.7-.3 3-.9.2-.5.1-1-.2-1.4 0 0 0-.1-.1-.1zm-14.7-7.3c-.2-.5-.7-.7-1.2-.7h-.3c-2.4.6-5.3.9-8.1.9-3.6 0-7.2-.5-10.5-1.6-8.9-2.9-14.7-9.1-14.7-15.8 0-9.6 11.4-17.4 25.3-17.4 14 0 25.3 7.8 25.3 17.4 0 4.7-2.9 9.4-8 12.7-.3.2-.6.6-.6 1-.4 4.3 2 8.2 3.9 10.5-3.1-.1-8.3-1.4-11.1-7zM15.7 40.3c-.5 0-1 .4-1.2.8-2 3.9-5.4 5-7.8 5.3 1.4-1.9 3.1-4.9 2.8-8.1 0-.4-.3-.8-.6-1-4-2.6-6.3-6.1-6.3-9.9 0-7.5 9-13.7 20-13.7 1.3 0 3.3.2 4.8.4.7.1 1.4-.4 1.5-1.1.1-.7-.4-1.4-1.1-1.5-1.7-.3-3.8-.4-5.2-.4C10.2 11.1 0 18.5 0 27.5c0 4.4 2.5 8.7 6.9 11.8-.1 3.9-3.9 7.6-4 7.6l-.1.1c-.3.4-.4.9-.2 1.4.4.8 1.2.9 2.3.9h.3c2.3 0 8.5-.6 11.7-7 .1-.2.1-.4.1-.6v-.1c.1-.7-.5-1.3-1.3-1.3zM51.3 34.4c-.7-.2-1.4.2-1.6.9-.4 1.6-1.5 3-1.5 3-.5.6-.4 1.4.2 1.9.2.2.5.3.8.3.4 0 .8-.2 1-.5.1-.1 1.4-1.8 2-4 .2-.7-.2-1.4-.9-1.6zM51.5 27.2c-.7.2-1.2.9-1 1.6.4 1.7.1 3.4.1 3.4-.1.7.4 1.4 1.1 1.5h.2c.6 0 1.2-.5 1.3-1.1 0-.1.4-2.3-.1-4.5-.2-.6-.9-1-1.6-.9zM44.3 20.1c.3.3.6.5 1 .5.3 0 .6-.1.8-.3.6-.5.6-1.3.2-1.9-.8-1-2.8-1.5-3.6-1.6-.7-.1-1.4.3-1.6 1-.1.7.3 1.4 1 1.6 1 .1 2 .5 2.2.7zM47.6 23s1.2.8 1.5 2.3c.1.6.7 1.1 1.3 1.1h.2c.7-.1 1.2-.8 1.1-1.5-.5-2.8-2.7-4.1-2.7-4.1-.6-.4-1.4-.2-1.8.5-.4.5-.2 1.3.4 1.7zM32.6 43.1l-3-.3c-.7-.1-1.4.5-1.5 1.2-.1.7.5 1.4 1.2 1.5l3 .3h.1c.7 0 1.2-.5 1.3-1.2.1-.7-.4-1.4-1.1-1.5zM39 43.4c-.3.1-1.4.2-2.3.1-.7-.1-1.4.5-1.4 1.2-.1.7.5 1.4 1.2 1.4h1c1 0 2.2-.1 2.9-.6.6-.4.8-1.3.3-1.9-.3-.5-1.1-.7-1.7-.2zM45.7 40.7c-1.1 1.4-2.4 1.6-2.4 1.6-.7.1-1.2.8-1.1 1.5.1.7.7 1.1 1.3 1.1h.2c.2 0 2.3-.4 4.1-2.6.5-.6.4-1.4-.2-1.9-.6-.3-1.4-.3-1.9.3z"/></g></svg>