<svg xmlns="http://www.w3.org/2000/svg" viewBox="0 0 56.9 70" enable-background="new 0 0 56.9 70" height="100"><path fill="#E4BD31" d="M54.8 33.9c.5-.7.8-1.4.8-2.3 0-1-.4-2-1.1-2.7-1-1-2.6-1.3-4-.9-.4-.4-.8-.7-1.2-1.1-4-3.4-8.8-5-12.7-4.3-8.7 1.2-14.8 8.1-14.4 15.9.2 3.3 2.2 6.5 5.4 8.6 2.2 1.5 4.8 2.2 7.2 2.2.2.3.3.5.6.7.7.7 1.7 1.1 2.7 1.1 1 0 2-.4 2.7-1.1 1.5-1.5 1.5-3.9 0-5.4-1.4-1.4-3.9-1.4-5.4 0-.6.6-.9 1.3-1 2-1.8-.1-3.6-.7-5.3-1.7-2.5-1.6-4.1-4.1-4.2-6.5-.4-6.4 4.8-12.1 12.1-13.1 3.2-.6 7.1.8 10.6 3.7.3.3.6.5.9.8-.3.6-.5 1.2-.5 1.8 0 1 .4 2 1.1 2.7.7.7 1.7 1.1 2.7 1.1.3 0 .5 0 .8-.1 1.1 2.3 1.8 4.7 1.8 7.1 0 14.8-12.1 21.5-24 21.5-11.5 0-20.3-5.6-24.1-14.8l.3-.3C8 47.4 8 45 6.5 43.5c-.6-.6-1.3-.9-2.1-1.1-.2-1.4-.3-2.8-.3-4.3 0-4.3 1-8.5 3-12.1 5.3-9.5 16-15.4 26.6-15.1l-2.1 1.2c-.6.4-.9 1.2-.5 1.8.2.4.7.7 1.2.7.2 0 .5-.1.7-.2l5.6-3.2h.1c.2-.1.4-.3.5-.5.3-.5.2-1.1-.1-1.5l-4.5-5.3c-.5-.6-1.3-.6-1.9-.1-.6.5-.6 1.3-.1 1.9l2.3 2.7c-12.1-.9-24 5.6-30.1 16.4-2.2 4-3.3 8.6-3.3 13.4 0 1.7.1 3.3.3 4.8-.2.2-.5.3-.7.5-1.5 1.5-1.5 3.9 0 5.4.7.7 1.6 1.1 2.6 1.1 4.2 10.1 14 16.6 26.5 16.6 18.4 0 26.7-12.1 26.7-24.1 0-3-.7-5.9-2.1-8.6z"/></svg>