<svg xmlns="http://www.w3.org/2000/svg" viewBox="0 0 60.9 70" enable-background="new 0 0 60.9 70" height="100"><g fill="#E4BD31"><path d="M19.9 23.9l15.9.1h.2c.4 0 .8-.2 1-.5l2.5-3.3 1.6-1.9.3-.6v-.1c0-.1.1-.2.1-.3v-15c0-.7-.5-1.4-1.5-1.4H19.9c-.9 0-1.4.7-1.4 1.4v20.2c-.1.7.6 1.4 1.4 1.4zm1.2-20.4h17.8v12.6h-3.1c-.7 0-1.3.6-1.3 1.3v3.9l-13.4-.1V3.5zM60.8 36.4c-.4-.6-1.2-.8-1.8-.5l-2.7 1.6c2.6-9.6-2-19.9-11.2-24.3-.7-.3-1.5 0-1.8.6-.3.7 0 1.5.6 1.8 8 3.8 12 12.7 9.8 21l-.9-2.6c-.2-.7-1-1.1-1.7-.8-.7.2-1.1 1-.8 1.7l2.1 6s0 .1.1.1c0 .1.1.2.1.3.1.1.1.2.2.2.3.2.6.3.9.3.2 0 .5-.1.7-.2l5.9-3.4c.6-.4.8-1.2.5-1.8zM2.2 39.9c.1 0 .3 0 .4-.1.7-.2 1.1-1 .9-1.7-2.6-8.5 1.4-17.4 8.9-21.4l-1.3 2.4c-.3.6-.1 1.4.5 1.8.2.1.4.2.6.2.5 0 .9-.3 1.2-.7l3-5.6v-.1c.1-.2.2-.4.2-.6 0-.6-.4-1.1-.9-1.3l-6.5-2c-.7-.2-1.4.2-1.7.9-.2.7.2 1.4.9 1.7l3 .9C2.5 18.8-2.1 29.1.9 38.9c.2.6.7 1 1.3 1zM43.9 57.6C37.7 63.8 28 64.6 21 60h2.5c.7 0 1.3-.6 1.3-1.3s-.6-1.3-1.3-1.3h-5.9c-.4-.2-.8-.2-1.2 0-.5.3-.8.8-.7 1.4l1.3 6.7c.1.6.7 1.1 1.3 1.1h.3c.7-.1 1.2-.8 1.1-1.6l-.6-3.1c8.2 5.6 19.4 4.8 26.7-2.4.5-.5.5-1.4 0-1.9-.6-.5-1.4-.5-1.9 0zM16.3 54.7c2.9 0 5.6-1.1 7.7-3.2 4.2-4.2 4.2-11.1 0-15.3-2-2-4.8-3.2-7.7-3.2s-5.6 1.1-7.7 3.2C5 39.9 4.5 45.6 7.3 49.8c0 0-.1 0-.1.1l-6 6c-.9.9-.9 2.3 0 3.2.4.4 1 .7 1.6.7.6 0 1.2-.2 1.6-.7l6-6s0-.1.1-.1c1.7 1.1 3.7 1.7 5.8 1.7zm-5.7-16.6c1.5-1.5 3.6-2.4 5.8-2.4 2.2 0 4.2.8 5.8 2.4 3.2 3.2 3.2 8.4 0 11.6-1.5 1.5-3.6 2.4-5.8 2.4s-4.2-.8-5.8-2.4c-3.2-3.2-3.2-8.4 0-11.6zM43.4 40c-.1-.1-.2-.2-.4-.3l-6.8-3.3c-.5-.2-1.1-.1-1.5.3-.4.4-.5 1-.3 1.5l3.3 6.8c.1.1.2.3.3.4l16.2 16.2c.7.7 1.6 1.1 2.5 1.1.8 0 1.6-.3 2.2-.9l.9-.9c1.2-1.3 1.2-3.4-.2-4.7L43.4 40zm-2.3 1.8v1.4h-1.4l-1.3-2.7 2.7 1.3zm16.8 17.3l-.9.9c-.1.1-.2.1-.3.1-.2 0-.4-.1-.6-.3l-14-14h.4c.7 0 1.3-.6 1.3-1.3v-.4l14 14c.3.3.3.8.1 1z"/></g></svg>