<?xml version="1.0" encoding="utf-8"?>
<!-- Generator: Adobe Illustrator 18.0.0, SVG Export Plug-In . SVG Version: 6.00 Build 0)  -->
<!DOCTYPE svg PUBLIC "-//W3C//DTD SVG 1.1//EN" "http://www.w3.org/Graphics/SVG/1.1/DTD/svg11.dtd">
<svg version="1.1" id="Layer_1" xmlns="http://www.w3.org/2000/svg" xmlns:xlink="http://www.w3.org/1999/xlink" x="0px" y="0px"
	 viewBox="0 0 65.6 70" enable-background="new 0 0 65.6 70" height="100">
<g>
	<path fill="#E4BD31" d="M59.6,60l0-42.9c0-0.8-0.7-1.5-1.5-1.5h-7.5c0-0.1,0-0.2-0.1-0.3c0.5-1.5,1.4-2.5,2.3-2.5
		c0.7,0,1.2-0.6,1.2-1.2s-0.6-1.2-1.2-1.2c-1.4,0-2.7,0.8-3.6,2c-0.9-1.3-2.2-2-3.6-2c0,0,0,0,0,0c0,0,0,0,0,0c-1.4,0-2.7,0.8-3.6,2
		c-0.9-1.3-2.2-2-3.6-2c0,0,0,0,0,0c0,0,0,0,0,0c-1.4,0-2.7,0.8-3.6,2c-0.9-1.3-2.2-2-3.6-2c0,0,0,0,0,0c0,0,0,0,0,0
		c-1.4,0-2.7,0.8-3.6,2c-0.9-1.3-2.2-2-3.6-2c0,0,0,0,0,0c0,0,0,0,0,0c-2.4,0-4.4,2.2-5,5.3h-4c-0.8,0-1.5,0.7-1.5,1.5v43.2
		c0,0.7,0.6,1.2,1.2,1.2c0.1,0,0.1,0,0.2,0c0,0,0.1,0,0.1,0h43.2C58.9,61.5,59.6,60.8,59.6,60z M45.6,12.7
		C45.6,12.7,45.6,12.7,45.6,12.7C45.6,12.7,45.7,12.7,45.6,12.7c0.9,0,1.9,1,2.4,2.5c0,0.1,0,0.2-0.1,0.3h-4.6c0-0.1,0-0.2-0.1-0.3
		C43.8,13.7,44.7,12.7,45.6,12.7z M38.4,12.7C38.4,12.7,38.4,12.7,38.4,12.7C38.4,12.7,38.4,12.7,38.4,12.7c0.9,0,1.9,1,2.4,2.5
		c0,0.1,0,0.2-0.1,0.3h-4.6c0-0.1,0-0.2-0.1-0.3C36.5,13.7,37.5,12.7,38.4,12.7z M31.1,12.7C31.1,12.7,31.1,12.7,31.1,12.7
		C31.1,12.7,31.1,12.7,31.1,12.7c0.9,0,1.9,1,2.4,2.5c0,0.1,0,0.2-0.1,0.3h-4.6c0-0.1,0-0.2-0.1-0.3C29.2,13.7,30.2,12.7,31.1,12.7z
		 M23.8,12.7C23.8,12.7,23.8,12.7,23.8,12.7C23.8,12.7,23.8,12.7,23.8,12.7c0.9,0,1.9,1,2.4,2.5c0,0.1,0,0.2-0.1,0.3h-4.7
		C21.8,13.8,22.9,12.7,23.8,12.7z M15.9,59V18h2.9c0.3,3.6,2.4,6.3,5.1,6.3c0.7,0,1.2-0.6,1.2-1.2s-0.6-1.2-1.2-1.2
		c-1.1,0-2.4-1.5-2.6-3.8H26c0.3,3.6,2.4,6.3,5.1,6.3c0.7,0,1.2-0.6,1.2-1.2s-0.6-1.2-1.2-1.2c-1.1,0-2.3-1.4-2.6-3.6
		c0.1-0.1,0.1-0.1,0.2-0.2h4.6c0.3,3.6,2.4,6.3,5.1,6.3c0.7,0,1.2-0.6,1.2-1.2s-0.6-1.2-1.2-1.2c-1.1,0-2.3-1.4-2.6-3.6
		c0.1-0.1,0.1-0.1,0.2-0.2h4.6c0.3,3.6,2.4,6.3,5.1,6.3c0.7,0,1.2-0.6,1.2-1.2s-0.6-1.2-1.2-1.2c-1.1,0-2.3-1.4-2.6-3.6
		c0.1-0.1,0.1-0.1,0.2-0.2h4.6c0.3,3.6,2.4,6.3,5.1,6.3c0.7,0,1.2-0.6,1.2-1.2s-0.6-1.2-1.2-1.2c-1.1,0-2.3-1.4-2.6-3.6
		c0.1-0.1,0.1-0.1,0.2-0.2h6.6l0,41H15.9z"/>
	<path fill="#E4BD31" d="M62.3,19.9c-0.7,0-1.2,0.6-1.2,1.2v41.9H18.9c-0.7,0-1.2,0.6-1.2,1.2s0.6,1.2,1.2,1.2H62
		c0.8,0,1.5-0.7,1.5-1.5V21.1C63.5,20.5,63,19.9,62.3,19.9z"/>
	<path fill="#E4BD31" d="M10.9,27.4c0-0.1,0-0.2,0-0.3l-3.2-9c-0.2-0.5-0.6-0.8-1.2-0.8s-1,0.3-1.2,0.8l-3.2,8.9c0,0,0,0,0,0l0,0
		c0,0,0,0.1,0,0.1c0,0.1-0.1,0.2,0,0.4v28.8c0,2.1,1.6,3.9,3.6,3.9c0,0,0,0,0,0l1.6,0c2,0,3.6-1.7,3.6-3.9V27.6
		C10.9,27.5,10.9,27.4,10.9,27.4z M6.5,22.3l1.7,4.9L6.5,29l-1.7-1.7L6.5,22.3z M7.3,57.8l-1.6,0c-0.6,0-1.1-0.6-1.1-1.4V30.6l1,1
		C5.9,31.8,6.2,32,6.5,32s0.6-0.1,0.9-0.4l1-1v25.8C8.4,57.2,7.9,57.8,7.3,57.8z"/>
	<path fill="#E4BD31" d="M53,29.2H20.7c-0.7,0-1.2,0.6-1.2,1.2s0.6,1.2,1.2,1.2H53c0.7,0,1.2-0.6,1.2-1.2S53.7,29.2,53,29.2z"/>
	<path fill="#E4BD31" d="M53,36.2H20.7c-0.7,0-1.2,0.6-1.2,1.2c0,0.7,0.6,1.2,1.2,1.2H53c0.7,0,1.2-0.6,1.2-1.2
		C54.2,36.7,53.7,36.2,53,36.2z"/>
	<path fill="#E4BD31" d="M53,43H20.7c-0.7,0-1.2,0.6-1.2,1.2c0,0.7,0.6,1.2,1.2,1.2H53c0.7,0,1.2-0.6,1.2-1.2
		C54.2,43.5,53.7,43,53,43z"/>
	<path fill="#E4BD31" d="M53,49.8H20.7c-0.7,0-1.2,0.6-1.2,1.2s0.6,1.2,1.2,1.2H53c0.7,0,1.2-0.6,1.2-1.2S53.7,49.8,53,49.8z"/>
</g>
</svg>
