<svg xmlns="http://www.w3.org/2000/svg" viewBox="0 0 80.6 70" enable-background="new 0 0 80.6 70" height="100"><g fill="#E4BD31"><path d="M64.3 32.4c0-6.4-2.5-12.5-7.1-17.1-4.6-4.6-10.6-7.1-17.1-7.1-6.4 0-12.5 2.5-17.1 7.1-9.4 9.4-9.4 24.7 0 34.1 4.6 4.6 10.6 7.1 17.1 7.1 6.4 0 12.5-2.5 17.1-7.1 4.6-4.5 7.1-10.5 7.1-17zM40.2 53.9c-5.7 0-11.1-2.2-15.2-6.3-8.4-8.4-8.4-22 0-30.4 4.1-4.1 9.5-6.3 15.2-6.3 5.7 0 11.1 2.2 15.2 6.3s6.3 9.5 6.3 15.2-2.2 11.1-6.3 15.2-9.5 6.3-15.2 6.3zM50.8 47.4c-.5-.2-1.1-.5-1.6-.7-.7-.3-1.4-.5-1.8-.8-1-.6-1.5-1.3-1.6-2.3 3.2-2.4 5.3-6.9 5.3-11.9 0-7.6-4.8-13.9-10.7-13.9-5.9 0-10.7 6.2-10.7 13.9 0 5.1 2.1 9.6 5.3 12-.1 1-.6 1.7-1.6 2.3-.7.4-1.6.9-2.6 1.3l-.7.3c-.7.3-.9 1.1-.6 1.8.2.5.7.8 1.2.8.2 0 .4 0 .6-.1l.7-.3c1-.5 2.1-1 2.9-1.5 1.3-.8 2.2-1.9 2.6-3.2.9.4 1.9.6 3 .6s2.1-.2 3-.6c.4 1.3 1.2 2.3 2.6 3.2.6.4 1.4.7 2.2 1 .5.2 1 .4 1.4.6.2.1.4.1.6.1.5 0 1-.3 1.2-.8.2-.7-.1-1.5-.7-1.8zM32.3 31.7c0-6.2 3.6-11.2 8.1-11.2s8.1 5 8.1 11.2c0 6.2-3.6 11.2-8.1 11.2s-8.1-5-8.1-11.2zM80.3 41.8c-.4-1.7-1.8-3.8-4.1-4.8-1.9-.8-2.3-1-3.4-1.6-.3-.2-.5-.4-.6-.6 1.9-1.4 3-3.9 3-6.9 0-4.6-3-8.3-6.6-8.3-1.9 0-3.9 1.6-4.5 2.1-.6.5-.6 1.3-.1 1.9.5.6 1.3.6 1.9.1 1.1-.9 2.2-1.4 2.8-1.4 2.1 0 3.9 2.6 3.9 5.7 0 1.3-.3 5.7-4.7 5.7-.7 0-1.3.6-1.3 1.3 0 .7.6 1.3 1.3 1.3.7 0 1.4-.1 2-.3.3.6.8 1.2 1.5 1.7 1.3.8 1.8 1 3.8 1.8 1.6.6 2.4 2.1 2.6 2.9 0 .1 0 .2.1.3h-13c-.7 0-1.3.6-1.3 1.3s.6 1.3 1.3 1.3h14.6c.4 0 .7-.2 1-.4s.4-.6.3-1c-.2 0-.3-.9-.5-2.1zM15.9 42.7h-13c0-.1 0-.2.1-.3.2-.8 1-2.3 2.6-2.9 1.9-.8 2.5-1 3.8-1.8.7-.5 1.2-1 1.6-1.6.6.2 1.3.3 2 .3s1.3-.6 1.3-1.3c0-.7-.6-1.3-1.3-1.3-4.4 0-4.7-4.4-4.7-5.7 0-3.1 1.8-5.7 3.9-5.7.5 0 1.7.5 2.8 1.4.6.5 1.4.4 1.9-.1.5-.6.4-1.4-.1-1.9-.6-.5-2.6-2.1-4.5-2.1-3.6 0-6.6 3.7-6.6 8.3 0 3 1.1 5.5 3 6.9-.1.2-.2.4-.6.6-1.3.5-1.7.7-3.6 1.5-2.3 1-3.8 3.1-4.1 4.8-.3 1.2-.4 2-.4 2.1 0 .4.1.7.3 1 .3.3.6.4 1 .4h14.6c.7 0 1.3-.6 1.3-1.3s-.5-1.3-1.3-1.3zM60.8 48.1c-.5-.5-1.4-.5-1.9 0s-.5 1.4 0 1.9l7.4 7.4c.4.4.4.9 0 1.3s-.9.4-1.3 0l-7.4-7.4c-.5-.5-1.4-.5-1.9 0s-.5 1.4 0 1.9l7.4 7.4c.7.7 1.6 1 2.5 1s1.8-.3 2.5-1c1.4-1.4 1.4-3.6 0-5l-7.3-7.5z"/></g></svg>