<svg xmlns="http://www.w3.org/2000/svg" viewBox="0 0 57.7 70" enable-background="new 0 0 57.7 70" height="100"><g fill="#E4BD31"><path d="M26.2 8.8H1.5c-.8 0-1.5.7-1.5 1.5V35c0 .8.7 1.5 1.5 1.5l18.3.2h.2c.4 0 .8-.2 1-.5l6.4-7.8c.2-.2.3-.5.3-.8V10.3c0-.8-.7-1.5-1.5-1.5zm-5.1 22.8v-2.9h2.4l-2.4 2.9zM2.7 11.5h22.4V26h-5.3c-.7 0-1.3.6-1.3 1.3V34l-15.8-.2V11.5zM31.6 36.5l18.4.1h.1c.4 0 .8-.2 1-.5l4.7-5.9 1.5-1.9c.1-.1.1-.2.2-.3.1-.3.2-.6.1-.9V10.3c0-.8-.6-1.5-1.4-1.5H31.6c-.8 0-1.5.7-1.5 1.5V35c0 .8.7 1.5 1.5 1.5zm19.8-5.1v-2.7h2.2l-2.2 2.7zM32.7 11.5H55V26h-4.9c-.7 0-1.3.6-1.3 1.3V34l-16-.1V11.5zM26.2 38.8H1.5c-.8 0-1.5.7-1.5 1.5V65c0 .8.7 1.5 1.5 1.5l18.3.2h.2c.4 0 .8-.2 1-.5l6.4-7.8c.2-.2.3-.5.3-.8V40.3c0-.8-.7-1.5-1.5-1.5zm-5.1 22.8v-2.9h2.4l-2.4 2.9zM2.7 41.4h22.4V56h-5.3c-.7 0-1.3.6-1.3 1.3v6.6l-15.8-.1V41.4zM57.7 40.3c0-.8-.6-1.5-1.4-1.5H31.6c-.8 0-1.5.7-1.5 1.5V65c0 .8.7 1.5 1.5 1.5l18.4.1h.1c.4 0 .8-.2 1-.5l5.6-7.1.6-.8c.3-.3.3-.7.2-1.1V40.3zm-25 1.1H55V56h-4.9c-.7 0-1.3.6-1.3 1.3v6.6l-16-.1V41.4zm18.7 20v-2.7h2.2l-2.2 2.7z"/></g></svg>