<svg xmlns="http://www.w3.org/2000/svg" viewBox="0 0 70.7 70" enable-background="new 0 0 70.7 70" height="100"><g fill="#E4BD31"><path d="M57.3 13.7c-.7-.1-1.4.3-1.5 1.1-.1.7.3 1.4 1.1 1.5 5.4 1 11.2 6.9 11.2 15.8.1 16-16.2 21.4-21.2 22.7-7 1.8-12.8 1.4-15.5-1.1-1.9-1.7-3-3.6-3.5-6.2-.1-.7-.8-1.2-1.6-1.1-.7.1-1.2.8-1.1 1.6.6 3.2 1.9 5.5 4.3 7.6 2.1 1.9 5.4 2.9 9.4 2.9 2.6 0 5.4-.4 8.5-1.2 5.5-1.4 23.3-7.4 23.2-25.3 0-10.2-6.9-17.1-13.3-18.3zM17.8 40.3h.5c.7 0 1.3-.5 1.3-1.2.1-.7-.5-1.4-1.2-1.4H18c-6.7-.5-11.4-2.4-12.9-5.1-2-3.6.1-9.4 4.8-13.7 4.5-4.1 13.8-6.7 23.6-6.7h.1c3.7 0 7.9 0 12.3.6.7.1 1.4-.4 1.5-1.2s-.4-1.4-1.2-1.5c-4.6-.6-9-.6-12.7-.6-10.5 0-20.4 2.9-25.4 7.4C2.4 22 .2 29.2 2.8 33.8c2 3.6 7.2 5.9 15 6.5zM31.7 47.4c0 3.3 3.2 5.9 7.2 5.9s7.2-2.6 7.2-5.9-3.2-5.9-7.2-5.9-7.2 2.6-7.2 5.9zm11.8 0c0 1.8-2.1 3.2-4.6 3.2s-4.6-1.5-4.6-3.2c0-1.8 2.1-3.2 4.6-3.2s4.6 1.4 4.6 3.2zM57.8 19.8c-.4-.1-.7-.1-1.1-.1-2.5 0-4.6 1.5-4.9 3.6-.2 1.2.2 2.5 1.1 3.5.9.9 2.1 1.5 3.4 1.8.4.1.7.1 1.1.1 2.5 0 4.6-1.5 4.9-3.6.2-1.2-.2-2.5-1.1-3.5-.8-.9-2-1.5-3.4-1.8zm-1 6.2c-.8-.1-1.5-.5-1.9-1-.2-.2-.6-.7-.5-1.3.1-.8 1.1-1.4 2.3-1.4.2 0 .4 0 .6.1.8.1 1.5.5 1.9 1 .2.2.6.7.5 1.3-.1.9-1.5 1.5-2.9 1.3zM59.5 31.5c-2.5 0-4.6 1.5-4.9 3.6-.2 1.2.2 2.5 1.1 3.5.9.9 2.1 1.5 3.4 1.8.4.1.7.1 1.1.1 2.5 0 4.6-1.5 4.9-3.6.2-1.2-.2-2.5-1.1-3.5-.9-.9-2.1-1.5-3.4-1.8-.4-.1-.7-.1-1.1-.1zm3 4.9c-.2.9-1.5 1.6-3 1.3-.8-.1-1.5-.5-1.9-1-.2-.2-.6-.7-.5-1.3.1-.8 1.1-1.4 2.3-1.4.2 0 .4 0 .6.1.8.1 1.5.5 1.9 1 .4.3.7.8.6 1.3zM14.4 18.8c-1.1.8-1.7 2-1.7 3.3 0 2.5 2.4 4.4 5.3 4.4 1.4 0 2.7-.4 3.7-1.2 1.1-.8 1.7-2 1.7-3.3 0-2.5-2.4-4.4-5.4-4.4-1.4 0-2.7.4-3.6 1.2zm6.3 3.2c0 .6-.4 1-.7 1.2-.5.4-.8.6-2.1.6s-2.6-.8-2.6-1.8c0-.6.4-1 .7-1.2.5-.4 1.3-.6 2.1-.6 1.4 0 2.6.8 2.6 1.8zM25.8 18.7c0 2.5 2.4 4.4 5.3 4.4 3 0 5.3-2 5.3-4.5S34 14.2 31 14.2c-2.8 0-5.2 2-5.2 4.5zm8-.1c0 1-1.5 1.7-2.7 1.8s-2.7-.8-2.7-1.8 1.2-1.8 2.7-1.8c1.5.1 2.7.9 2.7 1.8zM37 35.8c1.9-2 7.4-8.3 12.4-14.4 10-12.4 9.4-13 8.4-14-.3-.2-.6-.4-1-.4-3.3 0-25.5 21-26.6 22.1-2.8 2.9-13.9 15.6-14.4 17.3-.1.5 0 1 .3 1.3l2.8 2.7c.3.2.6.4.9.4.1 0 .3 0 .4-.1 1.7-.5 14-12 16.8-14.9zm-17 12l-1.3-1.2c2-2.8 9.9-12 13.4-15.6 3.4-3.5 14.9-13.8 21.1-18.7-4.7 6.3-14.6 18.1-18 21.6-3.5 3.6-12.5 11.7-15.2 13.9zM17.3 51.7l-3.2-3.2c-.2-.2-.4-.3-.7-.4-.3-.1-3.4-.6-5.9 2.5-1.4 1.8-1.8 3.3-2.2 4.7-.2.6-.3 1.2-.6 1.9-.4 1-2.7 2.9-4.1 3.9-.5.3-.7.9-.6 1.4.1.5.6.9 1.2 1 0 0 1 .1 2.4.1 2.7 0 6.5-.3 8.9-1.8 4.2-2.6 5.7-7.2 5.1-9.5-.1-.3-.2-.5-.3-.6zm-6.2 7.8c-1.3.8-3.4 1.3-6.1 1.4.9-.9 1.7-1.9 2.1-2.8.3-.8.5-1.5.7-2.1.4-1.3.7-2.4 1.7-3.8 1.1-1.3 2.3-1.6 3-1.6l2.5 2.5c.1 1.4-.8 4.5-3.9 6.4z"/></g></svg>