<svg width="115" height="100" viewBox="0 0 115 88" xmlns="http://www.w3.org/2000/svg"><title>Imported Layers</title><desc>Created with Sketch.</desc><g fill="none" fill-rule="evenodd"><path d="M3.305 61.253h54.03v23.115H3.305V61.253zM46.535 34.794l-.02.003.002.002c.066.016.132.02.202.03.036.006.074.006.11.006h.076c-.13 0-.253-.015-.372-.043M69.12 8.047h.004l.005-.003-.01.003m10.74 0h.003l.005-.003-.01.003m10.906 0h.003l.004-.003-.007.003" fill="#8AB44C"/><path d="M3.305 61.253h54.03v23.115H3.305V61.253zm84.597 0h23.628v23.115H87.902V61.253zM34.368 57.95V34.838h11.796c.03 0 .056 0 .08-.002l.014-.002c.015 0 .03 0 .046-.003h.025c.014 0 .033-.004.05-.007l.06-.01c.02-.003.04-.006.063-.012h.008l.003-.002.02-.003c.12.028.244.043.373.043h64.623V57.95H34.367zM20.818 8.42h23.63v23.115h-23.63V8.42zm27.76 0h54.03v23.115h-54.03V8.42zm20.543-.373l.01-.003-.005.003h-.003zm10.74 0l.01-.003-.005.003h-.003zm10.907 0l.008-.003-.005.003h-.004zM101.12 0h-5.948c-.912 0-1.652.74-1.652 1.65v3.47h-1.487V1.98c0-.91-.74-1.65-1.652-1.65h-5.946c-.913 0-1.653.74-1.653 1.65v3.14h-1.65V1.98c0-.91-.74-1.65-1.653-1.65h-5.95c-.91 0-1.65.74-1.65 1.65v3.14H70.39V1.98c0-.91-.74-1.65-1.653-1.65H62.79c-.914 0-1.654.74-1.654 1.65v3.14h-1.652V1.98c0-.91-.74-1.65-1.653-1.65h-5.947c-.912 0-1.652.74-1.652 1.65v3.14h-7.435V1.98c0-.91-.78-1.65-1.69-1.65h-5.997c-.914 0-1.73.74-1.73 1.65v3.14H31.89V1.98c0-.91-.78-1.65-1.693-1.65H24.2c-.912 0-1.73.74-1.73 1.65v3.14h-3.33c-.913 0-1.625.763-1.625 1.674V33.2c0 .91.712 1.64 1.625 1.64h11.923v23.11h-3.8v-2.806c0-.91-.74-1.65-1.652-1.65h-5.946c-.913 0-1.653.74-1.653 1.65v2.807h-1.65v-2.805c0-.91-.74-1.65-1.654-1.65h-5.95c-.91 0-1.65.74-1.65 1.65v2.807H1.65C.74 57.95 0 58.69 0 59.602V86.02c0 .91.74 1.65 1.652 1.65h57.335c.912 0 1.653-.74 1.653-1.65V61.252h23.958V86.02c0 .91.74 1.65 1.652 1.65h27.098c.912 0 1.652-.74 1.652-1.65V33.185c0-.912-.74-1.65-1.652-1.65h-7.436V6.79c0-.91-.742-1.674-1.654-1.674h-1.485V1.65c0-.91-.74-1.65-1.652-1.65z" fill="#C6DDA6"/><path d="M48.578 8.42h54.03v23.115h-54.03V8.42zM111.53 34.837V57.95H34.368V34.838h77.162" fill="#8AB44C"/><path d="M87.902 61.253h23.628v23.115H87.902V61.253zM46.304 34.83c-.015.002-.03.003-.046.003l-.013.002c-.025.002-.052.002-.08.002h.11l.027-.004.027-.004h-.027" fill="#8AB44C"/><path d="M20.82 8.42h23.627v23.115H20.82V8.42z" fill="#8AB44C"/></g></svg>