<svg width="115" height="100" viewBox="0 0 115 134" xmlns="http://www.w3.org/2000/svg"><title>concept-labs</title><desc>Created with Sketch.</desc><g fill="none" fill-rule="evenodd"><g><path d="M91.423 79.457l-5.575 29.592-22.143-29.374 5.403-3.543c.854-.558 1.14-1.68.66-2.585l-6.076-11.4-.016-.03-.002-.004.13.08 1.872 1.17.117.074 25.63 16.02" fill="#D3692D"/><path d="M65.456 73.814l-14.23 9.33L47.7 85.45l-4.836 3.172.006-.014.002-.002 9.204-17.154.53-.994 3.143-5.872.425-.79 1.7-3.16.004-.003.012-.007v-.002l.002-.002-.002-.002v-.038l.007.002h.016l.006-.006.014.004.002.002h.023l.007-.002.022.002h.1v-.01l.003-.012.004-.02.015-.027.173-.116v-.01h.022l7.15 13.424" fill="#D3692D"/><path d="M51.685 63.96l-15.33 28.457-29.708-3.42 27.83-24.38 3.155 4.868c.033.05.07.102.108.15.04.05.082.1.128.148.058.06.12.114.182.165.026.022.05.042.078.06.028.02.055.04.083.055l.038.026c.313.19.668.29 1.03.29.315 0 .632-.074.925-.232l11.482-6.187" fill="#D3692D"/><path d="M51.81 53.09L21.44 36.55 24.84 6.687 49.7 35.545l-3.855 2.528c-.106.07-.204.148-.294.237-.047.045-.09.09-.13.14-.12.14-.215.294-.29.455-.033.075-.06.15-.086.227-.025.08-.045.166-.06.25-.012.074-.022.15-.026.224-.008.118-.006.24.01.36.01.078.025.155.043.234.01.04.02.077.034.116.01.03.018.058.03.087.02.058.043.115.07.172.012.028.028.055.042.083L51.81 53.09" fill="#D3692D"/><path d="M25.308 43.04l-.002.002h-.002l.002-.004v-.002l.002-.002h-.004l-.002-.002H25.3l-.006-.004h-.004l-.004-.002-.006-.004h-.053l.006.008.004.006v.002l.012.015.005-.002H25.264l.004-.002.007-.002.008-.002h.008l.002-.002h.01l-.002.002v.002l-.002.004h-.002l-.004.006v.002l-.004.006-.008.007-.002.005v.002h-.002l-.002.006-.003.004-.005.008-.008.002.03.014h.005l.014.005.008.002-.004-.008-.002-.003v-.002l-.002-.002-.002-.002h-.002l-.002-.005-.006-.012v-.002l.008-.01.002-.004.004-.004v-.002l.002-.004v-.003l.004-.007.002-.002v-.004h-.008zm.006-.014l-.006.008.006.004h.002v-.014l-.002.002zm-.006.014l-.002.002h-.002l.002.01.002.008.002-.004v-.003l.004-.007.002-.002v-.004h-.008zm.008.087v.055l.002-.002v-.01l-.002-.043zm28.06 15.28v.002h.003v-.005l-.003.002zm-.007.006l-.003.002h.006v-.002l.004-.002h-.002l-.006.003zm-.957-.404l.004-.007h-.012v.002h.002v.006l.002.007.005-.002-.004-.004h.003zm-.015 0h.002v-.007h-.002v.006zm.045-.003h-.002l-.02-.002V58h-.003l-.012.003h-.003l.003.008h.002l.002.007.005-.002-.004-.004.01.003h.01l.023-.004-.01-.003zm-.02.008h-.006l.002.004h.01v-.003l-.005-.002h-.002zm.99.434l-.005-.005-.013-.008-.026-.018-.005-.005h-.068l-.057-.01-.016-.002h.004l.04-.023-.007-.004-.054-.032-.02-.012-.372-.2-.045-.028-.01-.002-.005-.002-.002-.003-.07-.04-.04-.02-.025-.003-.024-.002v-.01h-.04.04v-.003h-.077l-.008.003-.002-.002h-.004l-.005-.003-.006.002h-.096.082-.01l-.072-.01v-.007l.032-.006-.016.004-.016.007v.014h.06l-.007.002H52.4h.035-.01l-.006-.003h.002l.003.002H52.397h.004-.004v-.09l-24.406-13.28-2.578-1.4-.002-.003-.01-.007-.022-.008-.02-.008-.007-.004-.004-.004h-.034v-.016l-.004-.004.004-.004v-.012l-.006.004-.002.002-.004.004-.024.025h.02l11.002 16.968.004.003.117.183.002.016h.077v.085l.025.048.01.016 3.11 4.78.29.45.003-.003 13.478-7.308-.006-.01zm-.84-.43l.005-.003h.016v-.002h-.018l-.002-.002h-.013l-.008-.002-.01-.003v-.002L52.528 58l.003.005.006.008.003.004.002.002h.03zm-.158-.005l-.004-.004h-.003l.002.007.005-.002zm-.002-.006l.004-.007h-.012v.002h.002v.006l.002.007.005-.002-.004-.004h.003z" fill="#D3692D"/><path d="M72.105 25.63l-.002.006-.01.02h-.07.03l-2.366 4.408-.037.07-1.215 2.267-.987 1.84-.03.07-.053.102-.302.566-7.508 13.955-2.033 3.76h-.002l-.01.04-.004.023-.006.03v.003l-.944.423-.082.03-.036.014-.013.006-.014.013v.008h-.005l-.006-.002-.01.002h-.067v-.002l-6.814-12.83h-.003l-.03-.057.01-.006 4.245-2.78 18.28-11.982.01.01v.017h.026-.026.06l.005-.01.002-.004.003-.003.012-.007" fill="#D3692D"/><path d="M108.292 25.207L79.766 50.07l-2.543-4.484c-.09-.158-.2-.3-.322-.423-.03-.03-.062-.06-.095-.088l-.075-.062-.053-.04c-.022-.017-.043-.033-.065-.046-.04-.026-.08-.052-.12-.075-.076-.042-.152-.08-.23-.113-.04-.017-.08-.033-.12-.047-.08-.025-.164-.047-.246-.065-.082-.015-.167-.027-.25-.033-.113-.008-.225-.006-.337.008-.105.01-.21.03-.31.057l-.103.03c-.07.026-.135.053-.202.083l-11.308 5.25 15.21-28.234 29.695 3.417" fill="#D3692D"/><path d="M88.07 72.672l-26.394-16.48-.012-.007-.01-.006-.918-.575 13.97-6.49 2.844 5.014.006.01L88.07 72.67" fill="#D3692D"/><path fill="#D3692D" d="M25.143 43.022h-.01l.028.028.003-.014.004-.008-.006.002-.017-.008"/><path fill="#D3692D" d="M36.358 60.324l.016.015v-.003l-.016-.013"/><path d="M55.587 36.435l-1.85 1.21-3.402 2.26 3.403-2.256 1.85-1.215" fill="#D3692D"/><path d="M52.607 70.46l-9.405 17.528 1.006-1.873 7.868-14.66.53-.995m-.187-12.44h.05H52.418m-.02 0h.02-.02m.005-.015H52.4v.004h-.002v-.003.004l.01.002h-.003l-.002-.007m-.003-.002h-.002v.004h.002v-.004m.005 0h-.003v.002h.003v-.002m.006 0h-.005.006M25.32 43.248h-.004v.003h.006l-.003-.004m-.025-.17v.003l.005.012.002.004h.002v.002l-.01-.022m-.006-.036h-.006l-.008.002.01.022.004-.004.003-.004-.002-.016m13.99 27.337c.315 0 .632-.074.925-.232l11.482-6.187-15.33 28.457-29.708-3.42 27.83-24.38 3.155 4.868c.033.05.07.102.108.15.04.05.082.1.128.148.058.06.12.114.182.165.026.022.05.042.078.06.028.02.055.037.083.055l.038.026c.313.19.668.29 1.03.29m24.427 9.296l5.403-3.543c.854-.558 1.14-1.68.66-2.585l-6.076-11.4-.016-.03-.002-.004.13.08 1.872 1.17.117.074 19.67 12.293 5.962 3.723-.002.012-5.575 29.584-22.143-29.374m-5.612-19.112l.004-.02.015-.027.173-.116v-.01h.022l7.15 13.424-14.23 9.33L47.7 85.45l-4.836 3.172.006-.014.002-.002-.002.002h-.05l12.93-24.047 2.115-3.977h.002l.012.018.003-.01.002-.008h.002l.004.018.002.01v.008l-.007.005-.018.01-1.692 3.16-.05.097.05-.095 1.7-3.163.004-.002.012-.007v-.002l.002-.002-.002-.002v-.038l.007.002h.016l.006-.006.014.004.002.002h.023l.007-.002.022.002h.1v-.02l.003-.002M36.34 60.39l-.003-.036.002.005.013.03h-.014m-.034-.04l.018-.026.01.022-.028.005m.007-.04l-.004-.01v-.002l-.003-.008.006.004v.004l.008.014v.01l-.014.015v-.017l.003-.006-.003-.006.006.002m18.64-1.336l-.004-.008v-.007.004l.003.01m-.003-.013v-.008.01m3.68-.515l-.003-.008h.005l.008.006h-.01m-.004-.007l-.003-.004h.002v.003m.394-.02l-.02-.003H59l.02-.002.012-.002h.01l-.023.004v.004m-5.653-.005l.002-.002.005-.004h.002l-.004.003v.002h.002H53.366m.01-.006v-.003l.002-.002v.004h-.003m5.693 0v-.002l.052-.01.034-.008c-.03.01-.057.015-.086.02m-.54-.11l.04-.037.01-.008.004-.01-.007-.017-.005-.01.008.002.01.008v.035l-.008.018c-.023.01-.05.017-.053.02m-1.18-.26h-.004v-.002l-.014-.003.032-.01.017-.003.008.015-.038.003m-4.805-.02l-.002-.003-.004-.004-.007-.008L52.53 58l.01.005.003.002.01.004.008.003h.014l.002.002h.018v.002h-.016l-.004.002h-.03m-.146-.112v-.004l.004.002-.002.002h-.002m0-.075v-.004l.002-.003v-.004h.002v.006H52.4l-.002.003m4.344.033l.028-.043-.028.043m-.047-.043l-.004-.067.02.016c-.007.014-.016.03-.015.05M55.095 57.134v-.002.002m-.014-.034l.016-.066h.002c0 .056 0 .082-.002.094v.003l-.002-.008.002-.003h-.002l-.002-.03-.01.01m-.156-.073h.002-.002m3.347-.1c-.018-.067-.063-.133-.118-.195.056.062.1.127.118.196m-.773-.69l-.002-.003h.002v.004m0-.007h-.002v-.004h.002v.003m2.963-.776l-.013-.002h.013v.002m.026-.064l.01-.018v.002l-.01.016m.025-.044l.005-.01v.003l-.006.01.003-.006-.002.002m-1.7-.88l-.047-.002h.045l.002.002m.023 0l.024-.01.027.007-.028-.007-.024.01h-.015.015m-.176-.138l-.003-.003.002.002M58.67 54.306l-.02-.007.02.007m.042.02l-.034-.038.035.036m-.046-.038l.004-.004.008.003h-.01m-.065-.016H58.6h.008-.005m2.133 1.335l13.97-6.49 2.844 5.014.006.01L88.07 72.67l-26.394-16.48-.012-.007-.01-.006-.918-.575M25.163 43.072l-.002-.005-.034-.045h.007l-.007-.008.017.008h.026l-.003.006.01-.006h.033l.002.004v-.004h.01l.015.014-.004-.006-.006-.008h.053l.005.003v-.003h.023v.01l.006-.006.002-.002v.014h-.002l-.006-.004v.006h.008v.004l-.002.002-.004.007V43.066l.006.047v.002l-.002.002v.004l-.003-.004.003.007-.003.018.006.028v-.04l.002.042v.01l-.002.002v.037h.033l.003.003.008.004.02.008.022.008.01.006h.002l2.578 1.402 24.406 13.28v.07l.032-.005-.016.004-.003.002H52.42v.003l.02.002h.003l.01.002-.024.003h-.01l-.01-.002.004.003.054.007H52.494l.005-.003.004.002h.092v.012l.023.002.025.004.04.02.07.04.002.002.006.002.01.002.044.027.373.202.02.012.054.032.007.004-.04.022h-.003l.016.003.057.01h.069l.004.004.025.017.013.008.004.004.006.01-13.478 7.307-.002.002-.292-.45-3.11-4.78-.01-.017-.024-.048v-.086h-.077l-.002-.003-.006-.016-.01-.01-.055-.017-.016.003-.005-.023c-.002-.022-.006-.03-.01-.03 0 0-.002 0-.003.004l-.01-.015V60.255l-.01-.006.01-.005v-.002l-.023-.024-.02-.025-.002-.004h.044l-.004-.002-.02.003h-.022l-.015.003h-.002L25.185 43.13l-.037-.023-.03-.01v-.075h.006l.035.046.003.004m24.34-2.615l.004-.006-.004.006m22.57-14.81v-.002h.002m-.004.002l.002-.002v-.002.002h.002v.003h-.003M49.478 40.394l.01-.006 4.245-2.78 18.28-11.982.008-.014.002.002v.013-.004.005l-.002.002h.002v.005-.003.021h.026-.026.06l.005-.01.002-.004.003-.003.012-.007-.002.006-.01.02h-.004l-4.63 8.594-.036.06-.014.027-.045.075-.302.566-7.508 13.955-2.033 3.76h-.002l-.01.04.492-.218c.24-.11.49-.17.744-.18-.245.014-.49.073-.72.18l-.516.218-.004.023-.006.03v.003l-.944.423-.082.03-.036.014-.013.006-.014.013v.008h-.005l-.006-.002-.01.002h-.067v-.002l-6.814-12.83h-.003l-.03-.057m22.55-14.784h.002-.002m-.004-.006l-.002-.006v.002l.002.004m0-.006l-.002-.002v-.002.004m.004.006l-.002-.004v-.006.004l.004.004v.004l-.002-.002v.002h-.002V25.6l.002.004m-.003-.015v-.005.004m0-.004l.003-.002.004.002.002.002-.004.002-.004-.004m-8.637 24.438l15.21-28.235 29.695 3.417L79.766 50.07l-2.543-4.484c-.09-.158-.2-.3-.322-.423l-.01-.01-.004-.004c0-.003-.003-.004-.004-.005-.018-.018-.037-.036-.057-.053l-.005-.005c-.002 0-.003-.002-.005-.003l-.01-.01-.075-.06-.053-.042c-.022-.016-.043-.032-.065-.045-.04-.026-.08-.052-.12-.075-.076-.042-.152-.08-.23-.113-.04-.017-.08-.033-.12-.047-.08-.025-.164-.047-.246-.065-.082-.015-.167-.027-.25-.033-.044-.003-.087-.005-.13-.005-.07 0-.138.004-.207.013-.105.01-.21.03-.31.057l-.103.03c-.07.026-.135.053-.202.083l-11.308 5.25m9.617-26.17l.013-.024.063-.093 1.302-2.406.652-1.194-.643 1.195-.745 1.377-.17.314-.414.762-.056.07m2.592-4.764L75.64 19l.07-.13.02-.04.027-.048-.047.09-.114.216m.547-.752l-.01-.008v-.002l.006-.012.003-.002.002.002-.002.012v.01m.06-.133l.015-.017h.002l.012-.008-.03.025M21.442 36.55L24.84 6.687 49.7 35.545l-3.855 2.528c-.106.07-.204.148-.294.237-.047.045-.09.09-.13.14-.12.14-.215.294-.29.455-.033.075-.06.15-.086.227-.025.08-.045.166-.06.25-.012.074-.022.15-.026.224-.003.044-.005.09-.005.134 0 .075.005.15.015.225.01.08.025.156.043.235.01.04.02.077.034.116.01.03.018.058.03.087.02.058.043.115.07.172.012.028.028.055.042.083L51.81 53.09 21.44 36.55M23.392.032c-.192 0-.386.03-.575.087-.743.23-1.28.882-1.37 1.662l-4.05 35.596-.006.047-.003.054-.006.077c0 .04-.002.08 0 .12 0 .04 0 .082.005.12.002.045.006.088.014.132.005.044.013.09.025.137.01.045.02.092.033.138.014.045.027.09.045.134.016.044.035.088.055.133.02.044.04.087.065.128.02.043.045.082.07.122l.03.047.014.02 14.577 22.487L.712 88.96c-.585.514-.814 1.327-.585 2.075.232.746.88 1.287 1.653 1.376l35.403 4.074.045.006.045.004.088.006.033.004h.013l.046.002c.035 0 .068-.002.104-.006.106-.004.21-.02.312-.044.045-.01.09-.02.135-.033.045-.014.09-.028.135-.046.043-.015.09-.035.132-.055.043-.02.086-.04.127-.065.042-.022.08-.045.12-.07l.045-.03L55.537 85.03v46.996c0 1.09.88 1.974 1.963 1.974 1.083 0 1.962-.884 1.962-1.974V83.28c0-.257-.05-.504-.14-.73l1.086-.713.004-.002.002.002 24.978 33.14c.375.498.958.78 1.563.78.15 0 .298-.018.447-.053.756-.178 1.334-.788 1.48-1.553l6.605-35.06.004-.012c.056-.186.086-.38.086-.578l-.002-.046c0-.035 0-.07-.004-.104-.004-.05-.008-.1-.016-.15-.012-.1-.03-.2-.06-.297-.026-.096-.062-.19-.103-.28l-.022-.047c-.02-.04-.042-.08-.063-.118-.014-.03-.032-.058-.05-.085L81.75 53.563l32.487-28.314c.588-.514.82-1.33.59-2.077-.23-.746-.88-1.287-1.652-1.376l-35.403-4.075-.045-.006c-.018-.002-.035-.004-.053-.004l-.08-.006-.085-.003h-.036c-.04 0-.08.003-.12.007-.043.002-.086.006-.13.014-.044.006-.09.014-.137.026-.045.007-.09.02-.135.033-.045.014-.09.028-.136.046-.043.014-.088.034-.13.054-.044.02-.087.04-.13.065-.042.023-.083.046-.124.074l-.04.026-.02.013-.04.03.02-.026c-.036.026-.073.053-.11.083l-.08.07-.023.02-.038.062.04.008v.002l-.038.018-.054.02h.01l.003.003h-.014l-.004.002-.005.006-.013.017-.016.004.004-.003.008-.008.006-.007-.002-.003.003-.007.013-.015-.006.004-.023.01h-.016l-.045.006-.006-.003v.024L53.02 33.39 24.882.717c-.38-.44-.928-.685-1.49-.685" fill="#E9B699"/><path d="M63.705 79.676l22.143 29.373-22.143-29.374m-.03-17.562v.003l.017.032 6.075 11.398c.48.904.195 2.027-.66 2.585l-5.402 3.543 5.425-3.543c.853-.558 1.163-1.68.682-2.585L63.82 62.224 85.462 75.73 65.793 63.44l-.117-.073-1.873-1.17-.13-.08" fill="#D3692D"/><path d="M58.067 60.586h-.04l.022.002.003.002-.004.006.01-.008.007-.002m-.145-.006l-.006.006H57.9l-.008-.002v.038l.002.002-.002.002v.002l-.013.007-.005.002-1.7 3.162-.05.094-.374.694 2.135-3.953-5.278 9.825-.53.994-7.87 14.66 13.764-25.528h.02l-.023-.002-.006.002h-.022l-.002-.002-.014-.004m.167-.004v.01-.01m.215-.187h-.02v.01l-.173.117-.015.026-.004.02.188-.13.005-.026V60.4l.004.003 2.085 3.91 2.412 4.512.6 1.13 1.963 3.852v.002l-13.335 8.78-.813.553-1.216.803-7.114 4.662-.002.002-.006.014 4.837-3.172 3.526-2.31 14.23-9.328-7.15-13.423" fill="#D3692D"/><path d="M36.306 60.186H36.3l.002.002.004.003v-.004m17.026-1.77h-.03l.024.003.006-.005M36.468 60.39l.012-.003-.004.002h-.008m16.897-1.975h-.014l.007.008.05.03-13.47 7.307-3.4-5.225-.01-.012-.025-.048v-.092.006-.015l-.005.003-.008-.002h-.022l-.02.005-.02.01h-.003.077v.085l.025.048.01.016 3.11 4.78.29.45.003-.003 13.478-7.308-.006-.01-.004-.005-.013-.008-.026-.018-.005-.005m.012-.006h-.002l-.006.003-.003.002h.006v-.002l.004-.002m.002-.005l-.003.002v.002h.002v-.005m-.625-.305l.002.005.033.028.39.22v.01l.002.01v.042h.012l.04-.008.03.004.033.005-.057-.01-.016-.002h.004l.04-.023-.007-.004-.054-.032-.02-.012-.372-.2-.045-.028-.01-.002-.005-.002m-.16-.068v.002l.048.004-.025-.004-.024-.002m-.126-.012h.012-.012m.126 0h-.06l.007.003.003-.002h.05m-.094-.003l-.006.002h-.002.014-.002l-.005-.003m-.1-.01h-.002v.002h.002v-.004m-.002-.003v.004-.004m.13-.002l.005.005.006.008.003.004.002.002h.03l.003-.003h.016v-.002h-.018l-.002-.002h-.013l-.008-.002-.01-.003v-.002L52.528 58m-.1-.003l-.032.006h.002v.003h.003v-.003h.008l.004-.002.016-.003M25.35 43.22h-.034v.013l.033.012-.03.004.002.004.047.005.01.003-.007-.01.017.006.03.017-.04-.014 7.876 12.184 3.19 4.912.007-.01-11.016-17.06 26.96 14.73H52.423h-.004.048l-.054-.007-.003-.002.01.003h.01l.023-.004-.01-.003h-.002l-.02-.002V58h-.003l-.006.002h-.005v.002h-.002l.002.007h.002v.002h-.01v-.005.004-.078l-24.405-13.28-2.578-1.4-.002-.003-.01-.007-.022-.008-.02-.008-.007-.004-.004-.004m-.034-.093v.055l.002-.002v-.01l-.002-.043m-.014-.028H25.3l.01.016-.005-.014-.003-.003m-.01-.04l-.004.004-.004.004.016.03h.002l-.002-.003-.006-.012v-.008l-.003-.014m.026-.02h-.007v.017-.004l.004-.007.002-.002v-.004m0-.016l-.002.002-.006.007.006.005h.002v-.014m-.06-.002h-.03l.007.008.004.006v.002l.006.007.012-.023m.025 0h-.02l.013.024.01-.002h.005l-.003-.02-.005-.002" fill="#D3692D"/><path d="M72.083 25.655l-.006.002v-.002h-.025l-2.365 4.41-.037.07-1.215 2.266.85-1.57-.144.27-.02.048-.22.412-1.437 2.68 4.62-8.585" fill="#D3692D"/><path d="M72.01 25.644l-2.733 1.796-15.545 10.18-4.245 2.775-.008.003-.003-.003.03.056.002.003 6.813 12.83h.085v-.007l.015-.013.013-.006.036-.014.082-.03.944-.424v-.003l.006-.03.004-.024.01-.04h.002l2.033-3.76 7.508-13.955.302-.566-.13.21.648-1.203-.443.82-.42.738-7.558 13.982v.002l-1.988 3.787.032-.015-.006.02v.004l-.067.03-.912.423-.092.046h-.003l-.053.022-.004.002-6.84-12.843.807-.535-.81.535 4.213-2.796 4.887-3.205-3.038 1.995L71.98 25.693 69.107 31.1l-.004.048-1.22 2.27.55-1.017 1.216-2.265.037-.07 2.365-4.41h.026-.056.026-.028l-.007-.007-.003-.004m.012-.007v.005-.004m.083-.008l-.012.007-.004.004-.003.006-.006.01h.013l.01-.02.002-.006" fill="#D3692D"/><path d="M76.886 45.15l.005.003-.004-.004m-.06-.058c.02.017.038.035.056.053-.018-.018-.037-.036-.057-.053m-.01-.008c.002 0 .003.002.005.003-.002 0-.003-.002-.005-.003m-1.3-.494c-.068 0-.137.004-.206.013-.105.01-.21.03-.31.057l-.103.03c-.07.026-.135.053-.202.083l-11.308 5.25 11.308-5.25c.067-.03.133-.057.202-.082l.102-.03c.1-.028.205-.047.31-.057.068-.01.137-.013.206-.013.043 0 .086.002.13.005.083.006.168.018.25.033.082.018.165.04.245.065.043.014.082.03.12.046.08.03.156.07.23.112.042.023.083.05.122.075.022.013.043.03.065.045l.053.04c.026.02.05.04.075.063l-.075-.062-.053-.04c-.022-.017-.043-.033-.065-.046-.04-.026-.08-.052-.12-.075-.076-.042-.152-.08-.23-.113-.04-.017-.08-.033-.12-.047-.08-.025-.164-.047-.246-.065-.082-.015-.167-.027-.25-.033-.044-.003-.087-.005-.13-.005m32.776-19.383L79.766 50.07l-2.543-4.484c-.09-.158-.2-.3-.322-.423.123.123.232.265.323.423l2.543 4.485 28.526-24.863" fill="#D3692D"/><path d="M25.242 43.045l-.01.017-.038.03h.022l.006.003h.037l-.005-.004-.014-.02.023.013.008.004.004-.004v-.002l-.007-.005-.006-.004.007.003-.002-.002h-.004v-.003l-.017-.014.008.003v-.003l-.008-.008m46.78-17.43v.007-.006m3.925-7.263v.002-.002m.008 0h-.008.008m.094 0h-.005l-.006.002-.006.002-.003.002-.002.003.002.002.016-.01v-.002h.003m0 0h-.005.004m0-.002v.002" fill="#D3692D"/><path fill="#D3692D" d="M25.294 43.184l-.006.017-.008.02.023-.025v-.005l-.01-.006"/><path fill="#D3692D" d="M25.303 43.195l-.023.024h.028l-.005-.025"/><path fill="#D3692D" d="M25.302 43.188v.002l.003.003v-.002l-.003-.002"/><path fill="#D3692D" d="M25.305 43.193"/><path fill="#D3692D" d="M25.316 43.22h-.008.008"/><path fill="#D3692D" d="M36.26 60.19h-.017v.002h.017"/><path fill="#D3692D" d="M36.49 60.36l-.013.013.012.003h.012v-.003l-.013-.014"/><path fill="#D3692D" d="M57.885 60.605l-.014.023.015-.006h.002v-.007l-.002-.01"/></g></g></svg>