<svg width="113" height="100" viewBox="0 0 113 57" xmlns="http://www.w3.org/2000/svg"><title>experience-design-V2</title><desc>Created with Sketch.</desc><g fill="none" fill-rule="evenodd"><g><g><path d="M112.98 22.235v-.005c0-.016-.03-.03-.033-.045-.006-.024-.02-.046-.026-.068-.007-.022-.02-.043-.027-.065l-.02-.047-.037-.074c-.006-.01-.01-.022-.016-.033-.014-.026-.03-.05-.046-.075-.006-.008-.01-.018-.017-.027-.016-.024-.034-.048-.053-.07-.006-.01-.012-.018-.02-.027-.018-.022-.037-.044-.058-.065l-.018-.02c-2.42-2.432-3.18-5.11-2.26-7.965.726-2.244 2.245-3.796 2.257-3.81.433-.43.482-1.116.116-1.606-.364-.49-1.033-.635-1.567-.34l-21.21 11.732c-1.7-4.245-4.63-8.13-8.64-11.365C74.698 2.933 65.933 0 56.623 0c-9.312 0-18.076 2.934-24.68 8.26-4.09 3.296-7.052 7.27-8.737 11.61L1.82 7.895C1.286 7.597.617 7.74.25 8.228c-.368.488-.322 1.175.11 1.61.013.014 1.53 1.566 2.256 3.81.922 2.854.163 5.533-2.257 7.964l-.008.007c-.017.017-.03.034-.047.052-.01.013-.022.024-.032.036-.017.02-.032.043-.048.065l-.022.03c-.016.024-.03.05-.044.074l-.018.03c-.012.023-.023.048-.034.072l-.016.036c-.01.02-.016.043-.023.065l-.02.053-.013.056-.015.063c0 .005-.002.01-.003.013-.004.016-.004.03-.006.045l-.01.065v.066C0 22.456 0 22.47 0 22.48v.012c0 .05.004.102.01.152.053.46.32.833.74 1.408.632.868 1.69 2.32 1.992 4.125.36 2.146-.456 4.333-2.423 6.498-.015.015-.027.032-.04.05-.01.012-.022.023-.03.036-.02.027-.038.053-.055.08-.004.006-.01.01-.01.016-.022.033-.04.066-.058.1l-.024.058c-.007.016-.015.03-.02.047-.01.023-.015.045-.023.067l-.015.043-.015.068-.01.045-.01.067c0 .017-.004.034-.005.05-.002.02-.002.042-.002.062-.002.013-.003.027-.003.04v.025c0 .01 0 .022.003.032.02.523.314.844.753 1.32.658.71 1.88 2.03 2.272 3.766.472 2.092-.425 4.283-2.666 6.514-.412.41-.48 1.055-.164 1.544.23.357.622.558 1.025.558.15 0 .3-.028.448-.086l22.932-9.048c1.743 3.175 4.213 6.092 7.34 8.614 5.643 4.55 12.863 7.35 20.652 8.07.017.004.033.005.05.006 1.313.12 2.64.182 3.98.182 9.31 0 18.074-2.932 24.68-8.258 3.186-2.57 5.688-5.55 7.435-8.797l22.542 9.226c.15.063.306.092.46.092.4 0 .79-.2 1.02-.552.323-.488.257-1.137-.158-1.55-2.24-2.23-3.138-4.422-2.666-6.514.39-1.736 1.614-3.057 2.27-3.767.452-.488.758-.813.764-1.36 0-.006.007-.01.007-.015v-.003c0-.03-.01-.06-.012-.088-.002-.033-.01-.068-.014-.1l-.008-.04c-.004-.025-.01-.048-.017-.072l-.012-.04-.022-.066c-.006-.016-.01-.03-.017-.046l-.025-.058c-.01-.016-.016-.033-.024-.05l-.027-.05-.03-.05-.03-.046c-.013-.016-.024-.033-.036-.05l-.037-.042-.023-.03c-1.968-2.164-2.783-4.35-2.423-6.497.302-1.805 1.36-3.257 1.992-4.125.423-.58.692-.955.74-1.422.01-.078.01-.158.005-.238v-.034c-.003-.017.014-.035.01-.053-.002-.023.01-.047.01-.07zM4.753 12.352l17.666 9.892c-.24.88-.43 1.772-.568 2.674L3.535 21.646c1.27-1.776 1.91-3.682 1.91-5.69-.004-1.324-.288-2.543-.69-3.604zm.4 15.417c-.238-1.414-.8-2.626-1.366-3.583L21.61 27.37c-.02.376-.03.753-.03 1.13 0 .995.064 1.98.186 2.957L3.934 33.893c1.157-2 1.567-4.05 1.22-6.124zm-.41 17.555c.84-1.726 1.064-3.472.67-5.22-.345-1.528-1.115-2.772-1.822-3.686L22.2 33.877c.32 1.376.763 2.724 1.325 4.036l-18.782 7.41zm22.91-4.893c-2.317-3.576-3.628-7.634-3.628-11.932 0-10.665 8.067-19.852 19.582-23.874L27.653 40.432zm1.665 2.277L46.702 3.69c3.13-.798 6.462-1.233 9.92-1.233.797 0 1.586.024 2.368.07L38.6 50.187c-3.69-1.963-6.853-4.51-9.28-7.478zM51.97 54.277c-4.003-.46-7.773-1.5-11.172-3.015L61.556 2.755C65.62 3.25 69.44 4.347 72.87 5.93L51.97 54.278zm4.65.265c-.697 0-1.39-.02-2.075-.054l20.51-47.455c3.537 1.944 6.57 4.43 8.912 7.308L66.93 53.21c-3.24.864-6.707 1.333-10.307 1.333zm13.405-2.304l15.61-35.603c2.29 3.56 3.582 7.593 3.582 11.863 0 10.546-7.885 19.647-19.193 23.74zm38.162-6.988L89.8 37.727c.44-1.054.804-2.13 1.092-3.226l18.436 1.98c-.695.907-1.438 2.13-1.775 3.624-.39 1.725-.176 3.446.636 5.148zm-16.533-17.3l17.463-3.666c-.547.943-1.08 2.12-1.307 3.483-.354 2.105.075 4.186 1.27 6.213l-17.69-1.9c.18-1.18.272-2.374.272-3.583 0-.182-.004-.365-.008-.547zm-.187-2.47c-.15-1.185-.392-2.352-.72-3.5l17.476-9.666c-.41 1.072-.7 2.3-.703 3.64-.003 2.028.653 3.955 1.95 5.747l-18.003 3.78z" id="Shape" fill="#F1E19A"/><path d="M108.19 45.252L89.8 37.727c.44-1.054.804-2.13 1.092-3.226l18.436 1.98c-.695.907-1.438 2.13-1.775 3.624-.39 1.725-.176 3.446.636 5.148zM109.084 33.983l-17.69-1.9c.18-1.18.27-2.374.27-3.583 0-.182-.003-.365-.007-.547l17.463-3.667c-.547.943-1.08 2.12-1.307 3.483-.354 2.105.075 4.186 1.27 6.213zM109.472 21.703l-18.002 3.78c-.15-1.186-.392-2.353-.72-3.5l17.476-9.667c-.41 1.072-.7 2.3-.703 3.64-.003 2.028.653 3.955 1.95 5.747zM89.22 28.5c0 10.546-7.886 19.647-19.193 23.74l15.61-35.603c2.29 3.56 3.582 7.593 3.582 11.863zM83.97 14.343L66.93 53.21c-3.24.864-6.707 1.333-10.307 1.333-.698 0-1.39-.02-2.076-.054l20.51-47.455c3.537 1.944 6.57 4.43 8.912 7.308zM72.87 5.93L51.97 54.278c-4.003-.46-7.773-1.5-11.172-3.015L61.556 2.755C65.62 3.25 69.44 4.347 72.87 5.93zM58.99 2.527L38.6 50.187c-3.69-1.963-6.853-4.51-9.28-7.478L46.704 3.69c3.13-.798 6.462-1.233 9.92-1.233.797 0 1.586.024 2.368.07zM43.608 4.626L27.653 40.432c-2.316-3.576-3.627-7.634-3.627-11.932 0-10.665 8.067-19.852 19.582-23.874zM4.743 45.325c.84-1.726 1.065-3.472.67-5.22-.344-1.528-1.114-2.772-1.82-3.686l18.606-2.542c.32 1.376.763 2.724 1.325 4.036l-18.782 7.41zM3.934 33.893c1.157-2 1.567-4.05 1.22-6.124-.238-1.414-.8-2.626-1.366-3.583L21.61 27.37c-.02.376-.03.753-.03 1.13 0 .995.064 1.98.186 2.957L3.934 33.893zM22.42 22.244c-.24.88-.43 1.772-.568 2.674L3.535 21.646c1.27-1.776 1.91-3.682 1.91-5.69-.004-1.324-.288-2.543-.69-3.604l17.665 9.892z" fill="#E4BD31"/></g></g></g></svg>