<svg width="115" height="100" viewBox="0 0 115 115" xmlns="http://www.w3.org/2000/svg"><title>strategy</title><desc>Created with Sketch.</desc><g fill="none" fill-rule="evenodd"><g><path d="M97.2 17.82V5.1l12.348 10.39-.027.006-12.32 2.32M3.15 3.16H94.05v16.564c0 .09.008.176.022.26.01.06.022.114.038.17.085.305.26.58.51.787.22.182.484.3.76.34.04.007.08.012.12.016.04.004.083.006.125.006.03 0 .057 0 .086-.002.066-.004.135-.013.205-.025l15.575-2.933.044-.008v93.507H3.15V3.16M95.577 0H2.183C.967 0 0 1.05 0 2.268v110.555C0 114.043.967 115 2.183 115h110.253c1.216 0 2.25-.957 2.25-2.177V16.427c0-.466-.228-.905-.584-1.205l-6.16-5.205-2.805-2.368L96.597.4c-.285-.24-.65-.4-1.02-.4" fill="#A7C5EE"/><path d="M95.937 21.275c-.074.014-.153.022-.228.025-.03.002-.058.002-.087.002-.042 0-.085-.002-.126-.006l-.12-.015c-.275-.04-.54-.158-.76-.34-.248-.208-.424-.483-.51-.788-.015-.056-.027-.11-.037-.17-.014-.084-.022-.17-.022-.26V3.16H3.15v108.68h108.384V18.343l-15.597 2.933M33.054 57.642c.39.78.08 1.728-.7 2.122-1.813.916-3.182 2.063-4.184 3.505-.305.44-.795.677-1.293.677-.31 0-.624-.094-.9-.285-.713-.497-.89-1.48-.392-2.2 1.29-1.856 3.09-3.378 5.353-4.52.777-.393 1.724-.08 2.116.7M18.446 33.116c-.403 0-.807-.155-1.114-.462-.616-.618-.616-1.618 0-2.234l3.565-3.575-3.453-3.463c-.616-.618-.616-1.617 0-2.233.614-.62 1.61-.62 2.227 0l3.455 3.46 3.453-3.46c.614-.62 1.613-.62 2.227 0 .616.615.616 1.614 0 2.232l-3.453 3.463 3.565 3.575c.614.616.614 1.616 0 2.234-.307.307-.71.462-1.114.462-.403 0-.806-.155-1.113-.462l-3.565-3.575-3.566 3.574c-.308.307-.71.462-1.114.462m6.496 42.977c-.74 0-1.4-.526-1.545-1.283-.25-1.3-.375-2.68-.375-4.11 0-.924.055-1.82.16-2.667.11-.865.9-1.477 1.762-1.368.863.11 1.474.9 1.366 1.766-.09.715-.137 1.478-.137 2.27 0 1.23.107 2.412.318 3.514.165.858-.394 1.686-1.25 1.85-.1.02-.2.03-.298.03m8.008 9.61c-.307.437-.794.67-1.29.67-.312 0-.63-.096-.906-.29-1.965-1.395-3.578-3.037-4.797-4.888-.48-.726-.28-1.707.444-2.19.727-.48 1.704-.28 2.184.448 1.004 1.522 2.346 2.883 3.99 4.05.71.503.878 1.49.376 2.2m.81-57.496c-.69 0-1.325-.46-1.518-1.162-.23-.84.265-1.71 1.103-1.94.1-.03 2.5-.683 6.28-1.408.855-.164 1.68.398 1.844 1.256.162.856-.4 1.684-1.253 1.848-3.663.702-6.015 1.345-6.038 1.35-.142.04-.282.056-.42.056m11.074 61.54c-.153.748-.808 1.263-1.54 1.263-.106 0-.213-.01-.32-.032-2.28-.47-4.4-1.076-6.298-1.8-.813-.31-1.22-1.222-.913-2.037.31-.814 1.22-1.225 2.033-.914 1.74.664 3.696 1.22 5.812 1.657.853.176 1.4 1.01 1.226 1.866m-.866-32.512c-2.292.137-4.27.373-6.045.722-.102.02-.205.03-.304.03-.74 0-1.398-.523-1.546-1.277-.167-.856.39-1.687 1.244-1.854 1.914-.377 4.028-.63 6.462-.775.87-.052 1.615.61 1.667 1.48.052.873-.61 1.62-1.48 1.673m2.176-31.42c-.778 0-1.454-.578-1.56-1.372-.114-.865.492-1.66 1.354-1.775 2.173-.29 4.315-.507 6.372-.65.867-.058 1.62.6 1.68 1.47.058.87-.597 1.624-1.465 1.684-1.99.135-4.066.347-6.172.628-.07.01-.14.015-.21.015m9.678 66.448h-.026c-2.236-.038-4.394-.154-6.418-.347-.866-.082-1.5-.853-1.42-1.72.082-.87.85-1.507 1.718-1.425 1.942.185 4.02.297 6.172.333.87.014 1.564.733 1.55 1.605-.014.865-.717 1.555-1.575 1.555m.657-35.027c-.017 0-.034 0-.05-.002-1.996-.063-4.135-.123-6.262-.137-.87-.007-1.57-.718-1.564-1.59.006-.874.718-1.58 1.586-1.57 2.16.013 4.324.075 6.34.14.87.027 1.552.757 1.526 1.63-.03.853-.728 1.528-1.575 1.528m.664-33.85c.01-.87.722-1.57 1.595-1.56 2.265.025 4.438.163 6.46.407.862.105 1.478.89 1.374 1.757-.097.803-.777 1.392-1.563 1.392-.064 0-.127-.005-.19-.013-1.907-.228-3.966-.36-6.12-.384-.87-.01-1.567-.725-1.556-1.597m11.42 68.34c-2.17.204-4.31.35-6.37.44-.022.002-.046.002-.068.002-.84 0-1.536-.662-1.574-1.51-.038-.872.637-1.61 1.506-1.647 2.007-.087 4.098-.233 6.212-.43.866-.08 1.635.557 1.715 1.426.082.87-.555 1.64-1.42 1.72m.557-34.28c-.8.02-1.628.03-2.532.03-1.145 0-2.404-.015-3.847-.05-.87-.02-1.558-.744-1.538-1.616.02-.87.744-1.563 1.612-1.54 2.527.06 4.46.063 6.224.02.87-.025 1.593.664 1.615 1.538.023.872-.664 1.597-1.533 1.62m.553-32.87c.237-.84 1.107-1.328 1.945-1.09 2.28.647 4.356 1.492 6.168 2.513.757.428 1.027 1.39.6 2.15-.288.516-.823.807-1.374.807-.262 0-.527-.065-.77-.203-1.596-.9-3.44-1.65-5.483-2.228-.837-.238-1.324-1.11-1.087-1.95m11.518 65.41c-1.38.253-3.593.634-6.298 1.006-.072.01-.145.015-.216.015-.775 0-1.45-.574-1.56-1.365-.117-.864.486-1.66 1.348-1.78 2.646-.364 4.81-.736 6.158-.985.855-.158 1.676.41 1.834 1.27.157.857-.41 1.68-1.266 1.838m.906-34.983c-1.74.898-3.867 1.53-6.503 1.93-.08.012-.158.016-.236.016-.766 0-1.437-.56-1.555-1.342-.132-.862.46-1.667 1.32-1.797 2.292-.35 4.103-.877 5.534-1.614.774-.4 1.724-.095 2.123.68.397.777.092 1.73-.683 2.127m1.48-17.76c-.656-1.836-1.617-3.486-2.855-4.906-.574-.655-.508-1.653.145-2.228.656-.575 1.65-.51 2.225.148 1.5 1.72 2.66 3.71 3.45 5.922.293.822-.132 1.727-.952 2.02-.175.064-.354.094-.53.094-.648 0-1.253-.403-1.484-1.05m.552 11.307c.295-.758.47-1.627.524-2.58.03-.554.045-1.102.045-1.632 0-.46-.013-.92-.036-1.368-.045-.87.623-1.614 1.49-1.66.87-.043 1.61.625 1.656 1.497.026.498.04 1.015.04 1.53 0 .59-.018 1.195-.05 1.805-.07 1.288-.317 2.482-.73 3.55-.244.627-.84 1.01-1.47 1.01-.19 0-.384-.035-.57-.108-.81-.316-1.215-1.232-.9-2.044m13.16 45.392c-.306.308-.71.463-1.113.463s-.806-.155-1.114-.463l-3.566-3.575-3.565 3.575c-.308.308-.71.463-1.114.463-.404 0-.807-.155-1.114-.463-.616-.618-.616-1.618 0-2.234l3.565-3.574-3.453-3.463c-.616-.617-.616-1.617 0-2.233.614-.618 1.61-.618 2.227 0l3.454 3.462 3.453-3.462c.615-.618 1.614-.618 2.228 0 .616.616.616 1.616 0 2.233l-3.453 3.463 3.565 3.575c.614.617.614 1.617 0 2.235" fill="#498BDA"/><path d="M107.94 10.017l6.162 5.205c.356.3.583.74.583 1.205 0-.46-.2-.904-.562-1.21l-6.182-5.2" fill="#A7C5EE"/><path d="M110.274 15.968l-.03.005-13.772 2.593V4.356l13.802 11.612" fill="#A7C5EE"/><path d="M27.69 20.685c-.402 0-.805.155-1.112.464l-3.453 3.46-3.454-3.46c-.307-.31-.71-.465-1.113-.465s-.806.155-1.113.464c-.308.307-.462.71-.462 1.115 0 .404.154.808.462 1.117l3.453 3.463-3.565 3.575c-.308.308-.462.712-.462 1.116 0 .404.154.81.462 1.118.307.307.71.462 1.114.462.403 0 .806-.155 1.113-.462l3.565-3.575 3.565 3.574c.307.307.71.462 1.113.462s.807-.155 1.114-.462c.307-.31.46-.714.46-1.118 0-.404-.153-.808-.46-1.116l-3.565-3.575 3.453-3.463c.308-.31.462-.713.462-1.117s-.154-.808-.462-1.116c-.307-.31-.71-.465-1.114-.465" fill="#A7C5EE"/><path d="M96.06 81.977c-.402 0-.805.154-1.113.463l-3.453 3.462-3.453-3.462c-.307-.31-.71-.463-1.113-.463s-.806.154-1.113.463c-.308.308-.462.712-.462 1.116 0 .404.154.81.462 1.117l3.453 3.463-3.565 3.575c-.308.31-.462.713-.462 1.117s.154.81.462 1.118c.307.308.71.463 1.114.463.403 0 .806-.155 1.113-.463l3.564-3.575 3.565 3.575c.307.308.71.463 1.113.463s.807-.155 1.114-.463c.307-.31.46-.714.46-1.118 0-.404-.153-.808-.46-1.116l-3.565-3.574 3.453-3.463c.308-.308.462-.713.462-1.117s-.154-.808-.462-1.116c-.307-.31-.71-.463-1.114-.463" fill="#A7C5EE"/><path d="M58.714 21.828h-.02c-.854.01-1.544.702-1.553 1.56v.02c0 .864.694 1.568 1.557 1.578 2.154.025 4.213.156 6.12.385.063.01.126.014.19.014.786 0 1.466-.59 1.562-1.392.007-.064.01-.128.01-.19 0-.79-.587-1.47-1.386-1.567-2.02-.244-4.194-.382-6.46-.407h-.02" fill="#A7C5EE"/><path d="M58.735 21.828c2.265.025 4.438.163 6.46.407.798.097 1.385.778 1.386 1.566 0-.787-.587-1.468-1.386-1.565-2.02-.244-4.194-.382-6.46-.407m-.04 0c-.854.01-1.544.702-1.553 1.56v.02-.02c.01-.858.7-1.55 1.554-1.56" fill="#A7C5EE"/><path d="M52.416 22.017c-.036 0-.07 0-.107.004-2.058.143-4.2.36-6.373.65-.79.107-1.367.786-1.367 1.565 0 .07.004.14.014.21.105.795.78 1.372 1.56 1.372.07 0 .138-.005.21-.015 2.105-.28 4.182-.493 6.17-.628.832-.058 1.468-.75 1.468-1.573 0-.036 0-.073-.003-.11-.058-.828-.74-1.463-1.554-1.473h-.02" fill="#A7C5EE"/><path d="M53.99 23.49l.002.11c0-.036 0-.073-.003-.11m-1.575-1.473c-.035 0-.07 0-.106.004-2.058.143-4.2.36-6.373.65-.79.107-1.367.786-1.367 1.565 0-.78.576-1.458 1.367-1.564 2.173-.29 4.315-.507 6.372-.65l.105-.003m0 0h.02-.02" fill="#A7C5EE"/><path d="M71.186 23.432h-.016c-.646.006-1.24.414-1.467 1.044l-.01.033-.008.02v.004l-.015.047c-.04.146-.06.29-.06.434 0 .69.454 1.32 1.147 1.518 2.043.578 3.887 1.33 5.482 2.227.243.137.508.202.77.202.55 0 1.085-.29 1.374-.806.137-.244.2-.508.202-.77 0-.553-.288-1.09-.803-1.38-1.812-1.022-3.887-1.867-6.168-2.515l-.016-.003c-.138-.037-.276-.055-.41-.055h-.004" fill="#A7C5EE"/><path d="M69.684 24.534c-.005.016-.01.03-.014.047-.04.146-.06.29-.06.434 0-.143.02-.288.06-.433l.014-.046m.008-.025l-.007.02.007-.02m1.907-1.023c.004 0 .01.003.015.004 2.28.65 4.356 1.494 6.168 2.515.515.29.804.828.803 1.382 0-.554-.288-1.09-.803-1.382-1.812-1.02-3.887-1.866-6.168-2.514l-.016-.003m-.43-.055c-.646.006-1.24.414-1.467 1.044.227-.63.82-1.038 1.467-1.044m.016 0h.003-.004" fill="#A7C5EE"/><path d="M39.924 23.67h-.003c-.088 0-.178.008-.27.024-.007 0-.015.003-.024.004-3.782.725-6.18 1.38-6.28 1.408-.7.193-1.162.83-1.16 1.527 0 .136.02.275.056.413.193.702.828 1.162 1.52 1.162.136 0 .276-.017.417-.055.022-.006 2.374-.65 6.037-1.35.754-.146 1.28-.808 1.28-1.55 0-.1-.01-.2-.028-.3-.145-.753-.8-1.28-1.537-1.283h-.01" fill="#A7C5EE"/><path d="M41.47 24.954c.018.1.027.2.027.3 0-.1-.01-.2-.028-.3m-1.844-1.256c-3.782.725-6.18 1.38-6.28 1.408-.7.193-1.162.83-1.16 1.527-.002-.696.46-1.334 1.16-1.527.1-.03 2.498-.683 6.28-1.408m.295-.028c-.088 0-.178.008-.27.024.092-.016.182-.024.27-.024m.004 0h.01-.01" fill="#A7C5EE"/><path d="M81.903 29.72h-.006c-.348.002-.697.118-.987.354l-.025.02-.02.018c-.357.314-.54.755-.536 1.198 0 .366.13.733.39 1.03 1.237 1.42 2.198 3.07 2.854 4.907.23.646.836 1.05 1.483 1.05.177 0 .356-.03.53-.094.645-.23 1.045-.84 1.045-1.487 0-.177-.03-.357-.092-.534-.79-2.21-1.95-4.203-3.45-5.922l-.02-.022-.004-.005-.043-.045c-.304-.307-.705-.465-1.11-.468h-.01" fill="#A7C5EE"/><path d="M83.09 30.26c1.5 1.72 2.66 3.71 3.45 5.922.063.177.093.357.092.534 0-.177-.03-.357-.092-.534-.79-2.21-1.95-4.203-3.45-5.922m-.024-.027c0 .002.002.003.004.005l-.004-.005m-2.181-.138l-.02.017c-.357.314-.54.755-.536 1.198-.004-.443.178-.884.535-1.198l.02-.017m1.012-.375c-.348.002-.697.118-.987.354.29-.236.64-.352.987-.354m.006 0h.01-.01" fill="#A7C5EE"/><path d="M86.232 41.31c-.014 0-.026 0-.04.002h-.04c-.842.044-1.495.744-1.495 1.58 0 .026 0 .053.002.08.022.447.035.907.035 1.37 0 .53-.016 1.077-.045 1.63-.054.954-.23 1.823-.524 2.58-.072.188-.107.38-.107.57 0 .633.38 1.232 1.005 1.475.187.073.38.107.57.107.63 0 1.227-.382 1.47-1.008.414-1.07.66-2.263.73-3.55.033-.61.05-1.217.05-1.805 0-.515-.013-1.032-.04-1.53-.043-.842-.735-1.494-1.563-1.5h-.01" fill="#A7C5EE"/><path d="M84.695 44.34c0 .53-.016 1.08-.045 1.632-.054.954-.23 1.823-.524 2.58-.072.188-.107.38-.107.57 0-.19.034-.382.106-.57.295-.757.47-1.626.524-2.58.03-.553.045-1.1.045-1.63m3.11-1.533c.027.498.04 1.015.04 1.53 0-.515-.013-1.032-.04-1.53m-1.654-1.497c-.84.043-1.493.743-1.493 1.578 0-.834.653-1.534 1.494-1.577m.08-.002c-.012 0-.024 0-.037.002h.038m.002 0h.01-.01" fill="#A7C5EE"/><path d="M81.373 52.023h-.005c-.224 0-.45.05-.664.15l-.027.014-.023.012c-1.43.736-3.242 1.264-5.534 1.613-.78.117-1.34.79-1.34 1.557 0 .08.006.16.02.24.117.783.788 1.343 1.554 1.343.078 0 .157-.004.237-.017 2.637-.4 4.765-1.03 6.504-1.93.545-.28.858-.833.857-1.407 0-.243-.056-.49-.173-.72-.005-.007-.01-.015-.013-.023-.283-.528-.823-.832-1.384-.834h-.007" fill="#A7C5EE"/><path d="M82.764 52.857l.013.024c.117.23.173.477.174.72 0-.243-.056-.49-.173-.72-.005-.007-.01-.015-.013-.023m-2.11-.658c-1.43.736-3.242 1.264-5.534 1.613-.78.117-1.34.79-1.34 1.557 0-.767.56-1.44 1.34-1.557 2.292-.35 4.103-.877 5.534-1.614M81.367 52.022c-.223 0-.45.05-.663.15.214-.1.44-.15.664-.15m.005 0h.007-.007" fill="#A7C5EE"/><path d="M50.17 53.94h-.017c-.853.008-1.547.707-1.552 1.57v.01c0 .867.7 1.573 1.565 1.58 2.127.013 4.266.073 6.26.136.018.002.035.002.052.002.847 0 1.546-.675 1.575-1.53v-.05c0-.85-.673-1.552-1.526-1.578-2.016-.065-4.18-.127-6.34-.14h-.017" fill="#A7C5EE"/><path d="M50.153 53.94c-.853.007-1.547.707-1.552 1.57v.01-.01c.006-.863.7-1.562 1.553-1.57m.016 0h.016c2.16.013 4.324.075 6.34.14.853.026 1.525.73 1.526 1.578 0-.85-.673-1.552-1.526-1.578-2.016-.065-4.18-.127-6.34-.14h-.017" fill="#A7C5EE"/><path d="M43.876 54.082c-.025 0-.05 0-.075.002h-.02c-2.434.146-4.548.4-6.462.775-.75.146-1.272.806-1.274 1.544 0 .102.01.206.03.31.148.753.806 1.276 1.545 1.276.098 0 .2-.01.303-.03 1.776-.35 3.753-.585 6.045-.722.84-.05 1.484-.748 1.482-1.58 0-.03 0-.06-.003-.092-.05-.83-.732-1.474-1.55-1.484h-.02" fill="#A7C5EE"/><path d="M45.447 55.566c.002.03.003.062.003.092 0-.03 0-.06-.003-.092m-1.667-1.48c-2.434.144-4.548.397-6.462.773-.75.146-1.272.806-1.274 1.544.002-.738.524-1.398 1.274-1.545 1.914-.377 4.028-.63 6.462-.775m.095-.003c-.025 0-.05 0-.074.002l.075-.002m0 0h.02-.02" fill="#A7C5EE"/><path d="M62.772 54.272h-.02c-.84.01-1.532.69-1.552 1.542v.04c0 .855.682 1.556 1.538 1.576 1.443.035 2.702.05 3.847.05.904 0 1.73-.01 2.532-.03.856-.02 1.534-.724 1.535-1.577v-.04c-.023-.857-.717-1.535-1.562-1.54h-.096c-.76.02-1.55.03-2.407.03h-.019c-1.05 0-2.2-.015-3.51-.045-.08 0-.163-.003-.246-.005h-.04" fill="#A7C5EE"/><path d="M70.65 55.832l.002.04v-.04m-4.084-1.51h.012-.012m2.426-.028c-.76.02-1.55.03-2.407.03.857 0 1.648-.01 2.407-.03m.085 0h-.044.043m0 0h.01-.01m-6.328-.022c-.84.01-1.532.69-1.552 1.542v.04-.04c.02-.85.71-1.53 1.552-1.542m.04 0h.02l.247.006c-.083 0-.165-.003-.248-.005h-.02m-.02 0" fill="#A7C5EE"/><path d="M31.644 56.772h-.004c-.23 0-.465.053-.686.16l-.016.01c-2.262 1.142-4.064 2.664-5.353 4.52-.19.276-.282.59-.283.9 0 .5.235.993.675 1.3.276.19.59.285.9.285.498 0 .988-.237 1.293-.678 1.002-1.443 2.37-2.59 4.185-3.506.55-.28.867-.835.867-1.412 0-.24-.054-.482-.168-.71l-.007-.013c-.278-.542-.827-.855-1.396-.858h-.006" fill="#A7C5EE"/><path d="M33.047 57.63l.007.012c.114.228.168.47.168.71 0-.24-.054-.482-.168-.71l-.007-.013m-2.11-.69c-2.26 1.144-4.063 2.666-5.352 4.523-.19.275-.282.59-.283.9 0-.31.093-.625.283-.9 1.29-1.857 3.09-3.38 5.353-4.522m.702-.168c-.23 0-.465.053-.686.16.22-.107.455-.16.686-.16m.004 0h.007-.006" fill="#A7C5EE"/><path d="M24.745 66.653h-.018c-.746.01-1.396.548-1.53 1.297-.004.013-.006.026-.008.04l-.007.043c-.106.846-.16 1.743-.16 2.667 0 1.43.125 2.81.374 4.11.145.757.805 1.283 1.545 1.283.098 0 .2-.01.298-.03.755-.144 1.28-.806 1.28-1.55 0-.098-.01-.198-.03-.3-.21-1.1-.317-2.283-.317-3.513 0-.792.046-1.555.137-2.27.008-.066.012-.134.012-.2 0-.784-.582-1.463-1.378-1.565-.006 0-.012 0-.018-.002-.06-.007-.12-.01-.18-.01" fill="#A7C5EE"/><path d="M26.173 70.7c0 1.23.107 2.412.318 3.514.02.1.03.2.03.3 0-.1-.01-.2-.03-.3-.21-1.102-.317-2.284-.317-3.514m-2.984-2.71l-.007.043c-.106.846-.16 1.743-.16 2.667 0-.924.054-1.82.16-2.667l.006-.044m1.736-1.327c.006 0 .012 0 .018.002.796.102 1.377.78 1.378 1.565 0-.784-.582-1.463-1.378-1.565-.006 0-.012 0-.018-.002m-.2-.01c-.745.008-1.395.548-1.53 1.297.135-.75.785-1.288 1.53-1.297m.02 0" fill="#A7C5EE"/><path d="M27.27 78.745h-.008c-.29.002-.58.082-.84.25-.007.003-.014.008-.02.012-.46.305-.708.81-.707 1.324 0 .3.086.6.262.866 1.22 1.85 2.832 3.493 4.797 4.887.276.195.594.29.907.29.496 0 .983-.232 1.29-.668.196-.278.29-.598.29-.915-.002-.494-.234-.98-.667-1.287-1.643-1.166-2.985-2.527-3.99-4.05-.298-.453-.79-.702-1.296-.707h-.018" fill="#A7C5EE"/><path d="M28.584 79.454c1.004 1.522 2.346 2.883 3.99 4.05.432.306.664.792.665 1.286-.002-.494-.234-.98-.667-1.287-1.643-1.166-2.985-2.527-3.99-4.05m-2.182-.446c-.457.305-.706.81-.705 1.324 0-.513.248-1.018.706-1.323m.862-.262c-.29.002-.58.082-.84.25.26-.168.55-.248.84-.25m.007 0h.017-.018" fill="#A7C5EE"/><path d="M37.235 86.122h-.014c-.593.006-1.152.35-1.413.915 0 .003-.003.006-.004.01l-.007.014-.01.027-.01.02c0 .004-.002.007-.003.01l-.01.024c-.07.186-.103.375-.103.562 0 .637.387 1.237 1.016 1.477 1.898.722 4.017 1.33 6.298 1.798.107.022.214.033.32.033.732 0 1.387-.514 1.54-1.26.022-.108.033-.214.033-.32 0-.734-.513-1.393-1.26-1.547-2.115-.436-4.07-.993-5.81-1.657-.184-.07-.372-.103-.557-.104h-.005" fill="#A7C5EE"/><path d="M35.773 87.117l-.01.024c-.07.186-.103.375-.103.562 0-.187.033-.376.103-.56l.01-.025m.012-.03l-.01.02.01-.02m.018-.04l-.007.014.007-.013m1.993-.82c1.74.663 3.696 1.22 5.812 1.656.746.154 1.26.813 1.26 1.548 0-.734-.514-1.393-1.26-1.547-2.116-.436-4.07-.993-5.812-1.657m-.575-.104c-.593.006-1.152.35-1.413.915.26-.564.82-.91 1.414-.915m.015 0h.005-.005" fill="#A7C5EE"/><path d="M80.906 86.857c-.094 0-.19.01-.286.026-1.35.25-3.512.62-6.158.985-.788.11-1.36.784-1.362 1.56 0 .072.005.146.015.22.108.79.784 1.365 1.56 1.365.07 0 .143-.005.215-.015 2.705-.372 4.918-.753 6.298-1.007.76-.14 1.29-.802 1.292-1.55 0-.094-.01-.19-.026-.288l-.014-.066c-.164-.72-.8-1.22-1.516-1.23h-.018" fill="#A7C5EE"/><path d="M82.44 88.086l.014.066c.017.097.026.194.026.29 0-.096-.01-.193-.026-.29l-.014-.066m-1.534-1.23c-.094 0-.19.01-.286.027-1.35.25-3.512.62-6.158.985-.788.11-1.36.784-1.362 1.56.002-.776.574-1.45 1.362-1.56 2.646-.364 4.81-.736 6.158-.985.096-.017.192-.026.286-.026h.018-.018" fill="#A7C5EE"/><path d="M68.414 88.578h-.002c-.048 0-.097.002-.146.007-2.114.197-4.205.343-6.212.43-.845.036-1.507.735-1.507 1.576v.072c.04.848.735 1.51 1.575 1.51h.07c2.058-.09 4.2-.238 6.367-.44.814-.078 1.426-.764 1.428-1.57 0-.05-.002-.1-.007-.15-.074-.814-.75-1.424-1.548-1.434h-.018" fill="#A7C5EE"/><path d="M49.524 88.765h-.01c-.772.005-1.434.576-1.547 1.35-.004.027-.008.055-.01.083-.005.05-.008.1-.008.15 0 .805.61 1.493 1.426 1.57 2.024.193 4.182.31 6.418.346h.027c.86 0 1.562-.69 1.576-1.553v-.03c-.002-.858-.69-1.56-1.55-1.574-2.153-.036-4.23-.148-6.172-.333l-.02-.002c-.044-.003-.086-.005-.13-.005" fill="#A7C5EE"/><path d="M47.957 90.198c-.005.05-.008.1-.008.15 0-.05.002-.1.007-.15m1.696-1.427c.007 0 .014.002.02.003 1.943.185 4.02.297 6.173.333.86.014 1.548.716 1.55 1.574-.002-.858-.69-1.56-1.55-1.574-2.153-.036-4.23-.148-6.172-.333l-.02-.002m-.14-.005c-.772.005-1.434.576-1.547 1.35.113-.774.775-1.345 1.547-1.35m.01 0" fill="#A7C5EE"/></g></g></svg>