<svg width="113" height="100" viewBox="0 0 113 113" xmlns="http://www.w3.org/2000/svg"><title>Imported Layers</title><desc>Created with Sketch.</desc><g fill="none" fill-rule="evenodd"><g><path d="M56.88 11.372l-.006-.013-.002-.005-.013-.024c-.027.01-.054.017-.083.023l-.01.003.006.008.003.005c.033 0 .064.024.098.024h.017l-.01-.022m0 0l-.006-.013-.002-.005-.013-.024c-.027.01-.054.017-.083.023l-.01.003.006.008.003.005c.033 0 .064.024.098.024h.017l-.01-.022m0 0l-.006-.013-.002-.005-.013-.024c-.027.01-.054.017-.083.023l-.01.003.006.008.003.005c.033 0 .064.024.098.024h.017l-.01-.022m35.93 35.763c-.076-.504-.164-1.005-.263-1.51l-.03.02c.154.498.2.993.275 1.49.06.384-.022.76-.21 1.065.196-.305.286-.68.228-1.065m-36.044-35.78l.01.003v-.005l-.01.003m.108.003c-.034-.002-.065-.002-.098-.002.033 0 .064.012.098.014h.006l-.006-.013m.006.012l-.006-.013c-.034-.002-.065-.002-.098-.002v-.005l-.01.003.007.008.003.005c.033 0 .064.024.098.024h.017l-.01-.022m-.114-.016l.007.008.003-.006-.01-.002m-33.075 38.3c-.018.003-.037-.023-.056-.023h-.01c-.022 0-.042.03-.064.03-.044 0-.088.013-.133.01-.044-.005-.086-.003-.13-.012-.03-.004-.06-.006-.087-.012-.024-.004-.05-.01-.073-.017.026.007.05.017.073.02.028.008.058.014.086.018.045.008.087.015.13.018.088.007.176.006.265-.002h.005l-.004-.028m-.65-.055h-.008l.008.003c.02.008.036.01.055.016-.02-.006-.036-.012-.055-.02m33.84-38.228l-.006-.013c-.034-.002-.065-.002-.098-.002v-.005l-.01.003.007.008.003.005c.033 0 .064.024.098.024h.017l-.01-.022m0 0l-.006-.013c-.034-.002-.065-.002-.098-.002v-.005l-.01.003.007.008.003.005c.033 0 .064.024.098.024h.017l-.01-.022m0 0l-.006-.013-.002-.005-.013-.024c-.015-.027-.03-.055-.043-.082-.01.035-.024.07-.04.105l-.01.003.006.008.003.005c.033 0 .064.024.098.024h.017l-.01-.022m0 0l-.006-.013-.002-.005-.013-.024c-.027.01-.054.017-.083.023l-.01.003.006.008.003.005c.033 0 .064.024.098.024h.017l-.01-.022m0 0l-.006-.013-.002-.005-.013-.024c-.027.01-.054.017-.083.023l-.01.003.006.008.003.005c.033 0 .064.024.098.024h.017l-.01-.022m0 0l-.006-.013-.002-.005-.013-.024c-.027.01-.054.017-.083.023l-.01.003.006.008.003.005c.033 0 .064.024.098.024h.017l-.01-.022" fill="#9754BB"/><path fill="#9754BB" d="M68.227 12.332l-.03-.007c-.113-.02-.224-.037-.336-.053-.582-.095-1.168-.182-1.754-.26l-.02-.003-.004.005v.003h.003l.02.003.02.004.014.003c.207.036.417.067.625.1.566.083 1.13.155 1.692.244l-.23-.038"/><path d="M70.802 45.367c-.82-9.013-3.714-18-6.124-24.212-1.36-3.5-2.69-6.468-3.732-8.653l-.003-.006h.003c1.5.885 3.636 2.222 6.077 3.967.17.12.34.242.51.367.086.06.17.125.258.187.286.208.576.423.867.642.426.317.856.646 1.29.986.438.34.877.692 1.322 1.054.59.482 1.19.983 1.788 1.502 4.253 3.68 7.777 7.55 10.475 11.5 2.836 4.146 4.757 8.392 5.732 12.648-2.893-1.91-5.94-2.875-9.09-2.875-3.986 0-7.277 1.553-9.373 2.892m-67.418-.56c2.09-16.036 19.16-29.137 41.452-32.57-4.534 3.33-9.045 8.724-13.49 16.15-4.223 7.053-7.195 13.98-8.51 17.258-3.386-2.305-6.888-3.47-10.436-3.47-3.817 0-6.927 1.35-9.016 2.632M66.07 12.01l-.018-.023v-.014.003l.03.02.003.002c.907.12 1.81.257 2.71.412.225.04.448.078.672.12.076.012.15.025.224.04.28.05.558.103.835.158l.197.04c.172.033.343.07.514.104.105.022.213.043.318.067.128.025.257.053.386.082 1.17.255 2.333.54 3.482.852.46.125.917.254 1.372.388.456.134.908.273 1.36.416l.505.162c1.178.382 2.338.797 3.48 1.242.533.208 1.06.422 1.582.642l.52.22c.462.2.92.404 1.372.612.225.104.45.21.674.315.28.133.558.27.835.405.415.205.825.414 1.23.626.408.213.81.43 1.21.65.635.35 1.26.712 1.874 1.082.41.246.813.498 1.212.754.2.128.396.256.593.385.393.26.782.523 1.163.79 2.486 1.733 4.733 3.627 6.697 5.653 5.03 5.186 7.94 10.91 8.537 16.725-.526-.32-1.064-.607-1.606-.858-.095-.044-.188-.086-.282-.127-.19-.083-.378-.16-.57-.236-.095-.036-.19-.072-.287-.107-1.15-.42-2.33-.69-3.537-.81-.107-.01-.216-.02-.323-.027-.115-.008-.23-.016-.347-.022-.252-.013-.504-.02-.758-.02-.238 0-.474.007-.707.018-.112.005-.224.013-.336.02-.216.016-.43.035-.64.06l-.236.028c-.157.02-.313.043-.468.067-.077.012-.154.025-.23.04-.346.058-.685.13-1.016.21l-.247.06c-.167.043-.33.088-.49.133-.08.022-.16.045-.238.07-.476.144-.935.305-1.376.476-.165.064-.328.13-.487.2-.14.058-.28.117-.415.178-.946.426-1.786.893-2.498 1.336.1.504.187 1.005.263 1.51.012.078.017.155.017.232 0 .302-.09.59-.244.832.147-.24.227-.52.228-.815 0-.082-.005-.166-.018-.25-.074-.497-.12-.992-.275-1.49l-.005-.02c-.315-1.4-.626-2.794-1.088-4.185-.05-.154-.107-.31-.165-.463-.088-.23-.18-.464-.263-.695-.083-.233-.16-.464-.22-.694v-.002c-.137-.367-.282-.732-.435-1.097-.078-.184-.155-.367-.235-.547-.04-.09-.08-.183-.123-.274-.04-.093-.082-.183-.124-.274-.19-.41-.387-.82-.593-1.227-.137-.272-.28-.544-.426-.814h.01l.01-.002c-.15-.28-.288-.558-.446-.836v-.002c-.157-.28-.335-.54-.5-.817l-.01.013h-.008c-.038-.088-.078-.164-.115-.235-.012-.023-.026-.045-.04-.066-.087-.146-.175-.264-.265-.41-.16-.26-.323-.53-.49-.792-.054-.088-.11-.175-.166-.26l-.073-.11c-.1-.155-.204-.31-.306-.464l-.31-.46c-.077-.108-.15-.217-.226-.325l-.23-.327c-.308-.435-.625-.87-.952-1.3-.08-.11-.164-.217-.246-.324l-.25-.325c-.203-.26-.406-.518-.614-.775-.208-.258-.42-.514-.635-.77-.887-1.066-1.83-2.12-2.83-3.165-.12-.128-.242-.254-.366-.38-.182-.188-.366-.377-.552-.564l-.492-.49c-1.157-1.14-2.377-2.264-3.658-3.372-3.25-2.81-6.408-5.06-8.972-6.777l-.02-.002h-.004l-.008-.003-.012-.01.01.005M26.865 44.165c1.55-3.596 4.025-8.898 7.192-14.186 4.444-7.424 11.073-16.164 18.516-18.193-2.432 3.825-6.703 13.307-7.08 33.043-2.885-1.996-6.05-3.004-9.443-3.004-3.586 0-6.793 1.136-9.184 2.34m29.9-32.81l.01-.003c.017-.034.03-.07.04-.105.015.027.03.055.043.083l.012.025.002.004.006.012.01.022.102.198.11.22c.347.693.772 1.564 1.253 2.59l.15.318c.09.195.18.395.276.6l.172.375c.054.117.107.236.16.356.112.244.223.496.337.752l.003.01c.04.093.082.183.122.277.172.386.345.785.52 1.2.035.076.068.155.1.233l.11.255c.063.153.127.306.193.46l.22.532.184.444.132.327c.054.134.108.267.16.4.18.447.36.905.542 1.37l.21.544.12.32c.062.16.124.323.185.487.04.1.077.2.113.302l.208.567.21.572c.08.23.164.462.246.696.125.35.248.707.37 1.066.068.198.136.398.203.6l.104.318c.077.23.154.465.23.7.093.283.184.57.274.86.09.288.182.578.27.87l.107.353c.128.424.254.852.378 1.282.058.205.117.41.173.617l.18.646.137.518c.044.166.09.33.13.498.026.096.052.192.075.29.114.436.222.874.328 1.316l.172.734c.096.42.19.843.28 1.266.1.468.196.94.287 1.41l.005.026c.038.195.076.388.112.583l.097.54c.04.22.08.438.116.657.027.16.082.318.082.48v.063c0 .023 0 .05.005.072.01.07.03.142.04.214l.004.007c.008.035.014.07.02.107.003.023.003.046.007.07.055.363.107.727.156 1.09.01.062.017.12.023.18.004.02.005.038.008.056.047.342.088.684.127 1.027l.013.113c.028.253.055.505.08.758-2.94-1.766-6.053-2.66-9.294-2.66-4.08 0-7.495 1.424-9.685 2.66.224-13.02 2.19-21.206 3.863-25.89 1.915-5.364 3.86-7.356 3.915-7.41.098-.096.18-.202.25-.312.026-.046.05-.09.073-.138.012-.023.023-.047.033-.07l-.007-.008M56.42 0c-.87 0-1.575.7-1.575 1.56v6.696c-14.376.28-27.85 4.336-38.094 11.496-5.217 3.646-9.322 7.903-12.2 12.656C1.544 37.378.017 42.668.017 48.13c0 .636.39 1.208.985 1.446.193.077.394.115.593.115.418 0 .83-.164 1.132-.474.038-.04 3.902-3.92 9.675-3.92 3.406 0 6.82 1.357 10.154 4.036l.01.01c.03.024.063.047.094.067.022.015.044.03.068.043.032.02.063.04.094.056l.095.045c.035.015.07.03.107.042l.01.003h.008l.055.02.042.01.007.003.066.015c.028.006.058.008.086.013.045.01.087.008.13.012H23.45c.037 0 .075-.008.112-.008.022 0 .042-.03.063-.03h.01c.015 0 .03.014.044.02l.01.002h.004l.005.028c.044-.003.09-.01.134-.017l.012-.002c.04-.007.08-.015.118-.026l.02-.006c.035-.01.07-.02.105-.034l.033-.01.07-.03c.057-.024.114-.05.168-.083.04-.024.082-.05.12-.08.04-.026.078-.056.115-.087l.04-.033c.493-.406 5.418-4.33 11.42-4.33 3.615 0 6.942 1.447 9.89 4.3.306.295.704.444 1.102.444.366 0 .732-.124 1.028-.377.033-.03 2.74-2.298 6.775-3.25v55.23c0 .25.008.5.025.746.388 5.936 5.39 10.648 11.48 10.648 6.344 0 11.505-5.112 11.505-11.394 0-.86-.706-1.56-1.576-1.56-.87 0-1.577.7-1.577 1.56 0 4.56-3.748 8.272-8.353 8.272-4.605 0-8.353-3.71-8.353-8.272V45.65c.11-.002.22-.004.33-.004 3.517 0 6.89 1.31 10.032 3.89l.023.023c.027.023.055.045.084.065.02.015.037.03.058.042.02.012.038.026.058.04.02.01.04.024.06.033l.055.03c.022.012.045.023.068.033.04.018.084.036.126.05.024.01.047.018.073.025.017.006.035.01.053.015l.068.016.088.016.024.003c.03.002.06.005.09.01.044.003.088.005.132.005.02 0 .04 0 .06-.002.027 0 .054-.003.08-.004.048-.006.095-.012.14-.02.03-.005.06-.01.09-.02.023-.004.046-.01.07-.016.15-.044.293-.11.422-.192.02-.014.043-.028.063-.044.076-.053.147-.115.213-.18.39-.365 4.295-3.872 9.617-3.872 3.377 0 6.666 1.43 9.773 4.25.3.274.682.41 1.063.41.388 0 .775-.14 1.078-.42.044-.04 4.39-3.983 9.86-3.983 2.95 0 5.75 1.156 8.31 3.438.294.263.672.4 1.054.4.207 0 .414-.04.612-.12.562-.237.937-.772.963-1.376.316-7.745-2.973-15.402-9.51-22.145-5.146-5.306-12.09-9.757-20.083-12.87-7.38-2.874-15.53-4.557-23.748-4.892-.04-.002-.078-.016-.118-.016h-.643c-.202-.268-.48-.456-.788-.55V1.56C57.997.698 57.29 0 56.42 0" fill="#CBA9DF"/><path d="M23.443 49.673h.005-.005m.234-.02l.01.003c-.003 0-.006 0-.01-.002m-.54-.023l.007.003c-.002 0-.004 0-.007-.002m69.69-2.262c0 .302-.09.59-.244.832.155-.243.244-.53.244-.832m-.31-1.723c.154.498.2.993.275 1.49.013.084.02.168.02.25 0-.082-.007-.166-.02-.25-.074-.497-.12-.992-.275-1.49m-35.75-34.29l.006.01-.007-.01" fill="#9754BB"/><path d="M69.467 12.53l-.45-.072-.223-.037c-.19-.032-.378-.062-.567-.088l-.03-.007c-.477-.07-.955-.13-1.432-.2-.208-.03-.418-.062-.626-.098l-.015-.003-.02-.003-.02-.002h-.003l-.008-.003-.003-.005-.018-.023v-.014.003l.03.02.003.002c.907.12 1.81.257 2.71.412.225.04.45.078.672.12" fill="#9754BB"/><path d="M106.895 43.61c-1.15-.42-2.33-.69-3.537-.81 1.206.117 2.388.387 3.537.81" fill="#9754BB"/><path d="M70.525 12.728c-.063-.01-.125-.022-.188-.033-.214-.037-.43-.073-.646-.114-.486-.088-.973-.172-1.463-.248l-.03-.007c-.113-.02-.224-.037-.336-.053-.57-.09-1.146-.17-1.72-.245l-.015-.003h-.003l-.02-.006h-.02l-.008-.003-.012-.01.01.005-.02-.023v-.014.003l.03.02.003.002c.907.12 1.81.257 2.71.412.225.04.45.078.672.12.076.012.15.025.224.04.28.05.558.105.835.158" fill="#9754BB"/><path fill="#9754BB" d="M66.106 12.02l-.02-.002h-.004l-.008-.003-.012-.01.01.005.01.005.017.003.006.003"/><path d="M109.64 44.938c-.526-.32-1.064-.607-1.606-.86l-.282-.125c-.19-.083-.378-.16-.57-.236-.095-.036-.19-.072-.287-.107-1.15-.42-2.33-.69-3.537-.81-.107-.01-.216-.02-.323-.027-.115-.008-.23-.016-.347-.022-.252-.013-.504-.02-.758-.02-.238 0-.474.007-.708.018-.11.005-.223.013-.335.02-.216.016-.43.035-.64.06l-.236.028c-.157.02-.313.042-.468.067-.077.012-.154.025-.23.04-.346.058-.685.13-1.016.21l-.248.06c-.165.043-.327.086-.487.133-.08.022-.16.045-.238.07-.476.144-.935.305-1.376.476-.165.064-.328.13-.487.2-.14.058-.28.117-.415.178-.954.426-1.805.893-2.533 1.336-.315-1.4-.626-2.795-1.088-4.186-.05-.154-.107-.31-.165-.463-.088-.23-.18-.464-.263-.695-.083-.233-.16-.464-.22-.695-.137-.368-.282-.733-.435-1.098-.078-.184-.155-.367-.235-.548-.04-.09-.08-.182-.123-.273-.04-.093-.082-.183-.125-.274-.19-.41-.387-.82-.593-1.227-.137-.272-.28-.544-.426-.814h.02c-.15-.28-.288-.56-.446-.838-.157-.28-.335-.56-.5-.837h-.01c-.04-.067-.08-.134-.123-.2-.012-.025-.026-.047-.04-.07-.084-.14-.172-.283-.26-.425-.16-.26-.325-.518-.494-.775-.055-.088-.11-.175-.167-.26l-.073-.11c-.1-.155-.203-.31-.306-.464l-.31-.46c-.077-.108-.15-.217-.226-.325l-.23-.327c-.308-.435-.625-.87-.952-1.3-.08-.11-.164-.217-.246-.324-.082-.11-.166-.217-.25-.324-.2-.26-.404-.52-.614-.776-.208-.258-.42-.514-.635-.77-.887-1.066-1.83-2.12-2.83-3.165-.12-.128-.242-.254-.366-.38-.182-.188-.366-.377-.552-.564l-.492-.49c-1.157-1.14-2.377-2.264-3.658-3.372-3.25-2.81-6.408-5.06-8.972-6.777l.02.004.013.003c.207.036.417.067.625.1.477.067.955.128 1.43.198l.032.007c.19.026.378.056.567.09.075.01.15.024.224.036.226.038.45.075.673.117.217.038.433.078.647.12l.385.075c.172.035.343.07.514.103l.318.066c.128.025.257.053.386.082 1.17.255 2.333.54 3.482.852.46.125.917.254 1.372.388.456.135.908.273 1.36.416l.505.162c1.178.385 2.338.8 3.48 1.244.533.207 1.06.42 1.582.64l.52.22c.462.2.92.404 1.372.612.225.104.45.21.674.315.28.134.558.27.835.405.415.205.825.414 1.23.626.408.213.81.43 1.21.65.635.35 1.26.712 1.874 1.082.41.248.813.5 1.212.754.2.128.396.256.593.385.393.26.782.523 1.163.79 2.486 1.733 4.733 3.627 6.697 5.653 5.03 5.186 7.94 10.91 8.537 16.725" fill="#9754BB"/><path d="M89.265 45.35c-2.893-1.91-5.94-2.875-9.09-2.875-3.986 0-7.277 1.553-9.373 2.892-.82-9.013-3.714-18-6.124-24.212-1.36-3.5-2.69-6.468-3.732-8.653 1.5.883 3.636 2.22 6.077 3.96.17.12.34.245.51.368.086.06.17.125.258.187.286.208.576.423.867.642.426.317.856.646 1.29.987.438.34.877.69 1.322 1.053.59.482 1.19.983 1.788 1.502 4.253 3.68 7.777 7.55 10.475 11.5 2.836 4.146 4.757 8.392 5.732 12.648" fill="#9754BB"/><path d="M67.62 45.184c-2.94-1.766-6.053-2.66-9.293-2.66-4.08 0-7.496 1.424-9.687 2.66.224-13.02 2.19-21.206 3.863-25.89 1.915-5.364 3.86-7.356 3.915-7.41.098-.095.18-.202.25-.312.026-.046.05-.09.073-.138.012-.023.023-.047.033-.07l.003-.006h.098l.006.014.01.022.102.198.11.22c.347.693.772 1.564 1.253 2.59l.15.318.275.6.172.375c.054.117.107.236.16.356l.337.752.003.01c.04.093.082.183.122.277.172.386.345.786.52 1.2.035.076.068.155.1.233l.11.255c.063.153.127.306.193.46l.22.532.184.444.132.327.16.4c.18.447.36.905.542 1.37l.21.544.12.32c.062.16.123.323.185.487.04.1.077.2.113.303.07.187.138.376.208.566l.21.572c.08.23.164.462.246.696.125.35.248.707.37 1.066.068.198.136.398.202.6.037.106.07.212.106.318.077.23.154.465.23.7.093.283.184.57.274.86.09.288.182.578.27.87l.107.353c.128.424.254.852.378 1.283.058.204.117.41.174.616.06.214.12.43.178.646.047.172.093.345.138.518.044.166.09.33.13.498.026.096.052.192.075.29.112.436.22.876.328 1.316l.172.734c.096.42.19.843.28 1.266.1.468.196.94.287 1.41l.005.026c.148.77.25 1.545.408 2.32v.002c0 .023.002.048.005.072.01.07.03.142.04.214l.004.007c.008.06.017.118.027.177.055.363.107.727.156 1.09.01.062.017.12.023.18.004.02.005.038.008.056.047.342.088.684.127 1.027l.013.113c.028.253.055.506.08.758" fill="#9754BB"/><path d="M52.574 11.787c-2.432 3.825-6.703 13.307-7.08 33.043-2.885-1.996-6.05-3.004-9.443-3.004-3.586 0-6.793 1.136-9.184 2.34 1.55-3.597 4.025-8.9 7.192-14.187 4.444-7.424 11.073-16.164 18.516-18.193" fill="#9754BB"/><path d="M44.836 12.236c-4.534 3.33-9.045 8.725-13.49 16.15-4.223 7.054-7.195 13.98-8.51 17.26-3.386-2.306-6.888-3.472-10.436-3.472-3.817 0-6.927 1.35-9.016 2.633 2.09-16.036 19.16-29.137 41.452-32.57" fill="#9754BB"/><path fill="#9754BB" d="M54.87 102.04c-.017-.09-.025-.182-.025-.278v-.468c0 .25.008.498.025.745"/><path fill="#9754BB" d="M56.86 11.33c-.027.01-.054.017-.083.023.016-.034.03-.07.04-.105l.042.083"/><path d="M78.736 22.17c-1.157-1.14-2.377-2.264-3.658-3.372-3.25-2.81-6.408-5.06-8.972-6.777l-.02-.002h-.004l-.008-.003-.012-.01.01.005-.02-.023v-.014.003l.03.02.003.002.02.014.017.01.003.002.006.005c2.56 1.688 5.705 3.963 8.945 6.762 1.284 1.108 2.504 2.235 3.66 3.38" fill="#9754BB"/><path d="M86.44 31.376l-.31-.46c-.077-.108-.15-.217-.226-.325.075.11.15.215.223.323.106.154.21.31.314.463" fill="#9754BB"/><path d="M89.984 37.67c-.04-.093-.082-.183-.125-.274-.19-.41-.387-.82-.593-1.227-.137-.272-.28-.544-.426-.814h.01c.147.27.284.542.422.813.206.407.4.817.59 1.226.04.09.083.18.122.273" fill="#9754BB"/><path fill="#9754BB" d="M91.26 40.977c-.088-.23-.18-.464-.263-.695.085.23.175.464.262.695"/><path fill="#9754BB" d="M67.184 41.776c-.013-.072-.032-.144-.04-.214.01.07.03.142.04.214"/><path fill="#9754BB" d="M56.777 11.353v.005l-.004.006-.007-.008.01-.003"/></g></g></svg>