<svg width="115" height="100" viewBox="0 0 115 110" xmlns="http://www.w3.org/2000/svg"><title>Imported Layers</title><desc>Created with Sketch.</desc><g fill="none" fill-rule="evenodd"><g><path d="M61.686 87.295c-3.247 0-6.23-.166-8.962-.444 2.82.31 5.894.494 9.235.494 4.548 0 9.305-.335 14.25-1-5.066.638-9.912.95-14.524.95" fill="#E09416"/><path d="M4.18 97.853c0-1.767 1.43-5.49 10.28-11.594 4.134-2.853 8.355-5.14 10.224-6.112 2.615 2.292 11.005 8.35 28.063 9.987 2.75.266 5.726.414 8.94.414 5.33 0 10.958-.415 16.864-1.24 6.32-.88 12.958-2.232 19.886-4.05-12.616 6.58-23.683 11.512-33.56 14.966-12.28 4.295-23 6.383-32.774 6.383-7.325 0-14.27-1.128-21.857-3.545-3.903-1.37-5.94-3.06-6.058-5.026-.004-.06-.006-.122-.006-.187m92.51-15.436c-.003-.025-.005-.047-.006-.072-.183-3.256-.64-10.78-1.354-18.734-1.286-14.32-2.777-23.184-4.43-26.352-1.113-2.13-3.166-3.982-5.573-5.554 2.672.777 5.257 1.66 7.72 2.64 5.753 2.292 10.738 5.09 13.677 7.673.88.775 3.045 4.26 4.152 19.864.487 6.886.568 13.49.58 16.096l-.004.04c-5.062 1.682-9.985 3.095-14.763 4.4M26.01 66.662c0-8.392.976-19.277 5.488-24.7 3.232-3.886 10.778-7.45 21.82-10.306 7.566-1.96 14.414-2.956 15.896-3.16 4.586 1.165 16.088 5.055 18.82 10.283 2.824 5.41 4.814 32.488 5.44 44.102-5.285 1.388-10.422 2.456-15.38 3.2l-.15.02c-.582.087-1.16.168-1.735.245-4.945.664-9.702 1-14.25 1-3.342 0-6.417-.184-9.236-.494h-.016c-.183-.02-.364-.04-.544-.063-7.967-.938-13.818-2.896-17.667-4.615-4.45-1.988-7.045-3.993-7.986-4.793-.146-1.51-.5-5.662-.5-10.72M96.055 7.998c-5.658 0-12.995-1.216-18.35-2.285 5.355-1.07 12.692-2.285 18.35-2.285 2.6 0 4.588.253 5.91.753 1.54.582 1.54 1.248 1.54 1.532 0 .284 0 .95-1.54 1.533-1.324.5-3.31.752-5.91.752m-52.142-.163c-2.6 0-4.586-.253-5.91-.752-1.54-.583-1.54-1.25-1.54-1.533 0-.285 0-.95 1.54-1.533 1.322-.5 3.31-.753 5.91-.753 5.66 0 12.995 1.216 18.35 2.285-5.355 1.068-12.692 2.284-18.35 2.284m0-7.826c-3.03 0-5.336.312-7.046.958-1.36.514-3.642 1.79-3.642 4.585s2.282 4.074 3.642 4.588c1.71.646 4.016.96 7.046.96h.002c4.396 0 10.162-.67 17.137-1.986 2.945-.557 5.494-1.118 7.152-1.5v17.726c-5.262.75-31.162 4.88-39.186 14.525-7.883 9.475-6.29 31.965-5.776 37.362-1.916.993-6.238 3.328-10.58 6.32-3.39 2.335-6.08 4.59-8 6.697C2.056 93.1.81 95.79.955 98.232c.202 3.415 2.978 6.08 8.248 7.925.015.004.03.01.044.013 7.92 2.526 15.18 3.703 22.855 3.703 10.14 0 21.208-2.146 33.838-6.564 13.518-4.728 29.196-12.163 47.928-22.73l.038-.024c.247-.148.453-.362.592-.618l.046-.09c.037-.082.07-.165.092-.25.01-.036.017-.07.026-.106.01-.042.016-.086.02-.13.004-.018.005-.036.007-.056v-.015c.006-.04.007-.083.007-.126 0-.085.042-8.55-.59-17.5-.375-5.283-.908-9.713-1.588-13.16-.93-4.72-2.096-7.564-3.667-8.946-6.155-5.414-19.994-11.756-37.413-14.1V7.718c1.637.382 4.332.973 7.475 1.567 6.974 1.318 12.74 1.98 17.14 1.98 3.03 0 5.335-.317 7.045-.964 1.36-.513 3.64-1.792 3.64-4.586 0-2.794-2.28-4.075-3.64-4.59-1.71-.646-4.015-.96-7.046-.96-4.398 0-10.165.682-17.14 2-3.61.682-6.627 1.417-8.13 1.746-.27-.2-.603-.32-.963-.32-.243 0-.473.054-.68.152-1.52-.33-4.512-1.064-8.09-1.74C54.077.685 48.31.01 43.913.01" fill="#F0CC8E"/><path d="M24.684 80.148c-1.87.973-6.09 3.26-10.224 6.11-8.85 6.104-10.28 9.828-10.28 11.595 0 .065.003.126.007.186.118 1.966 2.155 3.656 6.058 5.025 7.586 2.417 14.532 3.544 21.857 3.544 9.773 0 20.494-2.09 32.775-6.384 9.876-3.454 20.943-8.386 33.56-14.965-6.93 1.818-13.566 3.17-19.886 4.05-5.905.825-11.534 1.24-16.864 1.24-3.213 0-6.19-.15-8.94-.415C35.69 88.498 27.3 82.44 24.685 80.148" fill="#E09416"/><path d="M69.214 28.494c-1.482.204-8.33 1.2-15.895 3.16-11.044 2.856-18.59 6.42-21.822 10.306-4.512 5.423-5.487 16.308-5.487 24.7 0 5.058.354 9.21.5 10.72.942.8 3.537 2.804 7.987 4.792 3.85 1.72 9.7 3.677 17.667 4.615.18.022.36.043.544.063h.016c2.73.28 5.715.445 8.962.445 4.612 0 9.458-.313 14.523-.95.574-.077 1.152-.158 1.734-.245l.15-.02c4.958-.744 10.095-1.812 15.38-3.2-.626-11.615-2.616-38.694-5.44-44.103C85.3 33.55 73.8 29.66 69.213 28.494" fill="#E09416"/><path d="M76.21 86.345c-5.066.637-9.912.95-14.524.95-3.247 0-6.23-.166-8.962-.444 2.82.31 5.894.494 9.235.494 4.548 0 9.305-.335 14.25-1" fill="#E09416"/><path d="M85.327 31.704c2.407 1.572 4.46 3.424 5.573 5.554 1.653 3.168 3.144 12.033 4.43 26.353.714 7.954 1.17 15.48 1.354 18.735 0 .025.003.047.005.072 4.777-1.306 9.7-2.72 14.762-4.402l.003-.04c-.01-2.605-.092-9.21-.58-16.094-1.106-15.603-3.272-19.088-4.15-19.863-2.94-2.583-7.925-5.38-13.678-7.672-2.463-.98-5.048-1.864-7.72-2.64" fill="#E09416"/><path d="M98.436 85.26c-12.616 6.58-23.683 11.512-33.56 14.966-12.28 4.295-23 6.383-32.774 6.383-7.326 0-14.27-1.128-21.857-3.545-3.903-1.37-5.94-3.06-6.058-5.026-.1-1.686 1.1-5.456 10.273-11.78 4.134-2.853 8.355-5.14 10.224-6.112 2.615 2.292 11.005 8.35 28.063 9.987 2.83.3 5.897.473 9.212.473 5.273 0 10.818-.434 16.59-1.3 6.32-.88 12.96-2.23 19.886-4.047" fill="#E09416"/><path d="M61.686 90.55c-3.213 0-6.19-.15-8.94-.415 2.83.3 5.898.473 9.213.473 5.273 0 10.818-.434 16.59-1.3-5.905.827-11.534 1.24-16.864 1.24" fill="#E09416"/><path d="M93.473 82.88c-5.284 1.388-10.42 2.456-15.38 3.2l-.15.02c-5.695.79-11.12 1.185-16.257 1.185-3.47 0-6.64-.184-9.522-.498-7.967-.938-13.818-2.896-17.667-4.615-4.45-1.988-7.045-3.994-7.986-4.793-.39-4.013-2.242-26.73 4.988-35.42 3.232-3.886 10.778-7.45 21.82-10.306 7.566-1.96 14.414-2.956 15.896-3.16 4.586 1.165 16.088 5.054 18.82 10.283 2.824 5.41 4.814 32.488 5.44 44.102" fill="#E09416"/><path d="M111.455 77.976l-.003.002c-5.064 1.682-9.988 3.14-14.768 4.367-.183-3.256-.64-10.78-1.354-18.734-1.286-14.32-2.777-23.184-4.43-26.352-1.113-2.13-3.166-3.982-5.572-5.554 2.67.777 5.256 1.66 7.72 2.64 5.752 2.292 10.737 5.09 13.676 7.673.88.775 3.046 4.26 4.152 19.864.487 6.886.568 13.49.58 16.096" fill="#E09416"/><path d="M103.503 5.712c0 .284 0 .95-1.54 1.533-1.323.5-3.31.752-5.91.752-5.657 0-12.994-1.216-18.348-2.285 5.354-1.07 12.69-2.285 18.35-2.285 2.598 0 4.587.253 5.908.753 1.54.582 1.54 1.248 1.54 1.532" fill="#E09416"/><path d="M62.26 5.55c-5.353 1.068-12.69 2.284-18.348 2.284-2.6 0-4.586-.253-5.91-.753-1.54-.58-1.54-1.247-1.54-1.53 0-.285 0-.95 1.54-1.534 1.322-.5 3.31-.752 5.91-.752 5.66 0 12.995 1.216 18.348 2.285" fill="#E09416"/></g></g></svg>