<svg xmlns="http://www.w3.org/2000/svg" viewBox="0 0 71.7 70" enable-background="new 0 0 71.7 70" width="100" height="100"><g fill="#8AB44C"><path d="M50 39.5c-.7-.2-1.4.2-1.6.9-.4 1.6-1.5 3-1.5 3-.5.6-.4 1.4.2 1.9.2.2.5.3.8.3.4 0 .8-.2 1-.5.1-.1 1.4-1.8 2-4 .2-.7-.2-1.4-.9-1.6zM50.2 32.4c-.7.2-1.2.9-1 1.6.4 1.7.1 3.4.1 3.4-.1.7.4 1.4 1.1 1.5h.2c.6 0 1.2-.5 1.3-1.1 0-.1.4-2.3-.1-4.5-.2-.6-.9-1.1-1.6-.9zM43 25.2c.3.3.6.5 1 .5.3 0 .6-.1.8-.3.6-.5.6-1.3.2-1.9-.8-1-2.8-1.5-3.6-1.6-.7-.1-1.4.3-1.6 1-.1.7.3 1.4 1 1.6 1 .2 2 .6 2.2.7zM46.3 28.2s1.2.7 1.5 2.3c.1.6.7 1.1 1.3 1.1h.2c.7-.1 1.2-.8 1.1-1.5-.5-2.8-2.7-4.1-2.7-4.1-.6-.4-1.4-.2-1.8.5-.5.5-.2 1.3.4 1.7zM31.3 48.3l-3-.3c-.7-.1-1.4.5-1.5 1.2-.1.7.5 1.4 1.2 1.5l3 .3h.1c.7 0 1.2-.5 1.3-1.2.1-.8-.4-1.5-1.1-1.5zM37.7 48.5c-.3.1-1.4.2-2.3.1-.7-.1-1.4.5-1.4 1.2-.1.7.5 1.4 1.2 1.4h1c1 0 2.2-.1 2.9-.6.6-.4.8-1.3.3-1.9-.3-.5-1.1-.6-1.7-.2zM44.4 45.8c-1.1 1.4-2.3 1.6-2.4 1.6-.7.1-1.2.8-1.1 1.5.1.7.7 1.1 1.3 1.1h.2c.2 0 2.3-.4 4.1-2.6.5-.6.4-1.4-.2-1.9-.6-.3-1.5-.2-1.9.3zM68.1 62.7c-.1 0-5.1-4.8-5-9.9 5.5-3.8 8.6-9 8.6-14.5 0-11-12.5-20-27.9-20-15.4 0-27.9 9-27.9 20 0 7.9 6.5 15.1 16.5 18.3 3.6 1.1 7.4 1.7 11.4 1.7 2.7 0 5.5-.3 7.9-.8 4.2 7 11.6 7.6 13.8 7.6 2.1 0 2.6-.3 2.9-.9.2-.5.1-1-.2-1.4-.1 0-.1-.1-.1-.1zm-14.7-7.3c-.2-.4-.7-.7-1.2-.7h-.3c-2.4.6-5.3.9-8.2.9-3.7 0-7.3-.5-10.6-1.6-8.9-2.8-14.7-9-14.7-15.8 0-9.6 11.3-17.4 25.3-17.4 14 .2 25.3 8 25.3 17.5 0 4.7-2.9 9.3-8 12.6-.3.2-.6.6-.6 1-.4 4.3 2 8.2 3.9 10.5-2.9-.2-7.9-1.4-10.9-7zM16.1 46c-.6-.1-1.2.1-1.5.7-2 3.9-5.5 5.1-7.9 5.4 1.4-1.9 3.1-4.9 2.8-8.1 0-.4-.3-.8-.6-1-4-2.6-6.3-6.2-6.3-9.9 0-7.5 9-13.6 20-13.6 1.1 0 2.9.2 4.9.5.7.1 1.4-.4 1.5-1.1.1-.7-.4-1.4-1.1-1.5-.8-.1-3.4-.5-5.2-.5C10.2 16.8 0 24.1 0 33.1c0 4.4 2.5 8.7 6.9 11.7-.1 4-3.9 7.6-3.9 7.7l-.1.1c-.3.4-.4.9-.2 1.4.3.8 1.1.9 2.3.9h.3c2.3 0 8.5-.6 11.7-6.9.1-.2.2-.4.2-.7-.1-.6-.5-1.1-1.1-1.3z"/></g></svg>