<svg xmlns="http://www.w3.org/2000/svg" viewBox="0 0 72 70" enable-background="new 0 0 72 70" width="100" height="100"><g fill="#8AB44C"><path d="M64.5 59.3c-.1-.2-.2-.4-.4-.5L58 54.1V40c0-.7-.6-1.3-1.3-1.3-.7 0-1.3.6-1.3 1.3v13.4l-46-.1V22.5h12.7c.7 0 1.3-.6 1.3-1.3s-.6-1.3-1.3-1.3h-14c-.7 0-1.3.6-1.3 1.3V54L.5 58.8c-.3.2-.5.6-.5 1 0 3.1 1.4 5.3 3.4 5.3h57.9c2 0 3.4-2.2 3.4-5.3v-.3l-.2-.2zm-56.4-3h48.4l2.9 2.2-54.1-.1 2.8-2.1zm53.1 6.2H3.4c-.1 0-.4-.5-.6-1.3h59.1c-.2.8-.5 1.2-.7 1.3zM69.5 39.6s-2.9-2.8-3.1-5.8c3.5-2.5 5.5-6 5.5-9.6C72 17 63.7 11 53.6 11c-10.2 0-18.4 6-18.4 13.4 0 5.3 4.3 10.1 11 12.2 2.4.8 4.9 1.1 7.5 1.1 1.7 0 3.3-.2 4.8-.5 2.9 4.5 7.7 4.8 9.1 4.8 1.3 0 2-.1 2.3-.9.2-.5.1-1-.2-1.4-.1 0-.1 0-.2-.1zm-9.3-4.5c-.2-.4-.7-.7-1.2-.7h-.3c-1.5.4-3.3.6-5.1.6-2.3 0-4.6-.3-6.6-1-5.5-1.8-9.1-5.6-9.1-9.7 0-5.9 7.1-10.7 15.8-10.7 8.7 0 15.8 4.8 15.8 10.7 0 2.9-1.8 5.7-4.9 7.7-.3.2-.6.6-.6 1-.2 2.4.9 4.6 1.9 6.2-1.9-.3-4.2-1.3-5.7-4.1zM28.7 28.7c-.2 1.8-1.7 3.7-2.3 4.3l-.1.1c-.3.4-.4.9-.2 1.4.4.8 1.3.9 2.1.9h.1c1.5 0 5.9-.4 8-4.8.1-.2.1-.4.1-.6 0-.7-.6-1.3-1.3-1.3-.5 0-1 .3-1.2.8-.9 1.8-2.4 2.6-3.7 3 .7-1.3 1.4-2.9 1.2-4.6 0-.4-.3-.8-.6-1-2.4-1.6-3.8-3.8-3.8-6 0-4.6 5.6-8.3 12.4-8.3.8 0 2.2.1 3.1.3.7.1 1.4-.4 1.5-1.1.1-.7-.4-1.4-1.1-1.5-1.1-.2-2.6-.3-3.5-.3-8.3 0-15 4.9-15 11-.2 2.9 1.4 5.7 4.3 7.7z"/></g></svg>