<svg xmlns="http://www.w3.org/2000/svg" viewBox="0 0 61.4 70" enable-background="new 0 0 61.4 70" width="100" height="100"><g fill="#8AB44C"><path d="M45.2 38.9c-.1-.1-.2-.2-.3-.2h-.1c-.1 0-.1-.1-.2-.1L28 36.1c-.3-.1-.7 0-1 .3L14.8 46c-.5.4-.6 1-.3 1.6V66c0 .6.5 1.2 1.1 1.2L32 69.6c.1 0 .2.1.3.1h.1c.3 0 .6-.1.8-.3.1-.1.2-.2.2-.3l11.7-9.2c.3-.2.5-.6.5-1V40c.1-.5-.1-.9-.4-1.1zm-17-.2l13.1 1.9-9.3 7.3-13.2-1.8 9.4-7.4zM17 48.4l14.2 1.9V67L17 65V48.4zm26.1 9.9l-9.4 7.5v-16l9.4-7.4v15.9zM9.7 13c-.2 0-.3 0-.5.1L1 14.7c-.7.1-1.1.8-1 1.5.1.7.8 1.1 1.5 1l4.7-.9c-3.3 4.4-5 9.7-5 15.2 0 6.8 2.7 13.2 7.5 18 .2.2.6.4.9.4s.6-.1.9-.4c.5-.5.5-1.3 0-1.8-4.3-4.3-6.7-10.1-6.7-16.2 0-5.1 1.7-9.9 4.7-13.9v4.7c0 .7.6 1.3 1.3 1.3s1.3-.6 1.3-1.3v-8c-.2-.7-.7-1.3-1.4-1.3zM46.2 1.3c-.1-.7-.8-1.1-1.5-1-.7.1-1.1.8-1 1.5l.9 4.7c-4.4-3.3-9.7-5-15.2-5-6.8 0-13.2 2.7-18 7.5-.5.5-.5 1.3 0 1.8s1.3.5 1.8 0C17.5 6.4 23.3 4 29.4 4c5 0 9.7 1.6 13.6 4.5h-4.4c-.7 0-1.3.6-1.3 1.3 0 .7.6 1.3 1.3 1.3h7.6c.1 0 .2.1.3.1.2 0 .4 0 .6-.1.5-.3.8-.8.6-1.4l-1.5-8.4zM59.9 44.5l-4.7.9c7.4-10 6.6-24.2-2.4-33.3-.5-.5-1.3-.5-1.8 0s-.5 1.3 0 1.8c8.2 8.2 8.9 21 2.1 30v-4.6c0-.7-.6-1.3-1.3-1.3s-1.3.6-1.3 1.3v8c0 .2 0 .4.1.5.2.4.7.7 1.1.7h.2l8.3-1.6c.7-.1 1.1-.8 1-1.5 0-.5-.6-1-1.3-.9z"/></g></svg>