<svg xmlns="http://www.w3.org/2000/svg" viewBox="0 0 71.3 70" enable-background="new 0 0 71.3 70" width="100" height="100"><g fill="#8AB44C"><path d="M50 51.5c-3.6-1.5-4.6-1.9-6.8-3.3-1.2-.7-1.7-1.5-1.8-2.7 3.4-2.6 5.7-7.4 5.7-12.9 0-8.3-5.2-15-11.5-15-6.4 0-11.5 6.7-11.5 15 0 5.5 2.3 10.4 5.8 13-.1 1.1-.6 1.9-1.8 2.6-2.2 1.4-3.1 1.8-6.8 3.3-4.1 1.7-6.6 5.4-7.3 8.3-.5 2.2-.6 3.8-.6 3.8 0 .4.1.7.4 1 .3.3.6.4 1 .4h41.7c.4 0 .7-.2 1-.4.3-.3.4-.6.4-1 0-.1-.1-1.7-.6-3.8-.7-2.8-3.2-6.5-7.3-8.3zM26.7 32.7c0-6.8 4-12.3 8.9-12.3s8.9 5.5 8.9 12.3-4 12.3-8.9 12.3-8.9-5.5-8.9-12.3zM16.3 62.5c.1-.6.2-1.3.4-2 .3-1.5 2-4.9 5.7-6.4 3.8-1.6 4.8-2 7.1-3.5 1.5-.9 2.4-2.1 2.8-3.5 1.1.4 2.2.6 3.3.6 1.2 0 2.3-.2 3.4-.7.4 1.4 1.3 2.6 2.8 3.5 2.4 1.5 3.4 1.9 7.1 3.5 3.7 1.6 5.4 4.9 5.7 6.5.2.8.3 1.5.4 2H16.3zM70.8 54.6c-.6-2.6-2.8-5.9-6.4-7.4-3.2-1.4-4-1.7-5.9-2.9-.9-.6-1.3-1.2-1.5-2.1 3-2.3 5-6.5 5-11.3 0-7.3-4.6-13.2-10.2-13.2-2 0-4.1 1.2-5.2 1.9-.6.4-.8 1.2-.4 1.8.4.6 1.2.8 1.8.4 1.4-.9 2.8-1.5 3.8-1.5 4.2 0 7.6 4.7 7.6 10.6 0 5.8-3.4 10.6-7.6 10.6-1.1 0-2.1-.3-3.1-.9-.6-.4-1.4-.2-1.8.4-.4.6-.2 1.4.4 1.8 1.4.9 2.9 1.4 4.5 1.4 1 0 1.9-.2 2.8-.5.4 1.2 1.2 2.2 2.4 3 2 1.3 2.9 1.7 6.2 3.1 3.2 1.3 4.6 4.2 4.9 5.5.1.6.2 1.1.3 1.5H60c-.7 0-1.3.6-1.3 1.3s.6 1.3 1.3 1.3h10c.4 0 .7-.2 1-.4.3-.3.4-.6.4-1-.1-.1-.2-1.5-.6-3.4zM11.6 56.7H2.8c.1-.4.2-1 .3-1.5.3-1.4 1.7-4.2 4.9-5.5 3.4-1.4 4.2-1.8 6.3-3.1 1.3-.8 2.1-1.8 2.5-3 .9.3 1.8.5 2.7.5 1.6 0 3.1-.4 4.5-1.3.6-.4.8-1.2.4-1.8-.4-.6-1.2-.8-1.8-.4-1 .6-2 .9-3.1.9-4.2 0-7.6-4.7-7.6-10.6 0-5.8 3.4-10.6 7.6-10.6 1.1 0 2.8.6 4.1 1.6.6.4 1.4.3 1.8-.3.4-.6.3-1.4-.3-1.8-1.9-1.3-4-2.1-5.7-2.1-5.6 0-10.2 5.9-10.2 13.2 0 4.9 2.1 9.1 5.1 11.4-.1.8-.6 1.4-1.5 2-1.9 1.2-2.6 1.5-5.9 2.9C3.2 48.7 1 52 .5 54.5c-.4 2-.5 3.4-.5 3.4 0 .4.1.7.4 1 .3.3.6.4 1 .4h10.3c.7 0 1.3-.6 1.3-1.3s-.7-1.3-1.4-1.3z"/></g></svg>