<svg xmlns="http://www.w3.org/2000/svg" viewBox="0 0 56.3 70" enable-background="new 0 0 56.3 70" width="100" height="100"><g fill="#8AB44C"><path d="M19.4 61.3c.7 0 1.3-.6 1.3-1.3V14.4c0-.7-.6-1.3-1.3-1.3s-1.4.6-1.4 1.3V60c0 .7.6 1.3 1.4 1.3zM37.4 61.3c.7 0 1.3-.6 1.3-1.3V14.4c0-.7-.6-1.3-1.3-1.3-.7 0-1.3.6-1.3 1.3V60c0 .7.6 1.3 1.3 1.3zM22.4 25.4h4.7c0 .7.5 1.3 1.3 1.4h.1c.7 0 1.3-.6 1.3-1.3v-.1h4.4c.7 0 1.3-.6 1.3-1.3s-.6-1.3-1.3-1.3h-3.8c0-.4-.1-.8-.4-1.1-.5-.5-1.4-.4-1.9.1-.2.3-.4.6-.5 1h-5.2c-.7 0-1.3.6-1.3 1.3s.6 1.3 1.3 1.3zM4.4 52.2h5.9c.1.2.2.3.3.5.3.3.6.5 1 .5.3 0 .6-.1.9-.3.2-.2.3-.4.4-.6h3.6c.7 0 1.3-.6 1.3-1.3s-.6-1.3-1.3-1.3h-4.1c0-.2 0-.5-.1-.7 0-.7-.6-1.3-1.4-1.3-.7 0-1.3.6-1.3 1.4v.6H4.4c-.7 0-1.3.6-1.3 1.3s.5 1.2 1.3 1.2zM40.2 41.4h4.5v.2c0 .7.6 1.3 1.3 1.3.7 0 1.3-.6 1.3-1.3v-.2H52c.7 0 1.3-.6 1.3-1.3 0-.7-.6-1.3-1.3-1.3h-4.8c0-.7-.6-1.3-1.3-1.3-.7 0-1.3.6-1.3 1.3h-4.5c-.7 0-1.3.6-1.3 1.3 0 .7.6 1.3 1.4 1.3zM28.4 30c-.7 0-1.3.6-1.3 1.3v2.9c0 .7.6 1.3 1.3 1.3.7 0 1.3-.6 1.3-1.3v-2.9c0-.7-.6-1.3-1.3-1.3zM28.4 38.3c-.7 0-1.3.6-1.3 1.3v2.9c0 .7.6 1.3 1.3 1.3.7 0 1.3-.6 1.3-1.3v-2.9c0-.7-.6-1.3-1.3-1.3zM28.2 47.4c-.8 0-1.3.5-1.4 1.3 0 .8-.2 1.8-.3 2-.5.5-.4 1.4.1 1.9.3.2.6.3.9.3.4 0 .7-.2 1-.4.8-.9.9-2.7 1-3.7 0-.8-.6-1.4-1.3-1.4zM26.2 54.8c-.6-.3-1.4-.1-1.8.6 0 0-.6 1.1-2.1 1.5-.7.2-1.1.9-1 1.6.1.6.7 1 1.3 1h.3c2.2-.5 3.4-2.1 3.8-2.9.4-.7.1-1.5-.5-1.8zM30.2 20c.2.1.4.1.5.1.5 0 1-.3 1.2-.8 0 0 .6-1.2 2-1.7.7-.2 1.1-1 .8-1.7s-1-1.1-1.7-.8c-2.6.9-3.5 3.1-3.6 3.2-.2.7.1 1.4.8 1.7zM46 29.8c-.7 0-1.3.6-1.3 1.3V34c0 .7.6 1.3 1.3 1.3.7 0 1.3-.6 1.3-1.3v-2.9c0-.8-.6-1.4-1.3-1.3zM46 45.5c-.7 0-1.3.6-1.3 1.3v2.9c0 .7.6 1.3 1.3 1.3.7 0 1.3-.6 1.3-1.3v-2.9c0-.7-.6-1.3-1.3-1.3zM44.3 23.5c.2.3.3 1.3.4 2.1 0 .7.6 1.3 1.3 1.3h.1c.7 0 1.3-.6 1.3-1.4 0-1-.2-2.8-1-3.7-.5-.5-1.3-.6-1.9-.1-.6.4-.7 1.2-.2 1.8zM40.4 17.5c1.6.6 2.2 1.6 2.2 1.7.2.4.7.7 1.2.7.2 0 .4 0 .6-.1.7-.3.9-1.1.6-1.8-.1-.2-1.1-1.9-3.6-2.9-.7-.3-1.5.1-1.7.8s0 1.3.7 1.6zM12 31.9c0-.7-.6-1.3-1.3-1.3-.7 0-1.3.6-1.3 1.3v2.9c0 .7.6 1.3 1.3 1.3.7 0 1.3-.6 1.3-1.3v-2.9zM10.7 38.9c-.7 0-1.3.6-1.3 1.3v2.9c0 .7.6 1.3 1.3 1.3.7 0 1.3-.6 1.3-1.3v-2.9c0-.7-.6-1.3-1.3-1.3zM16.2 56.7c-1.5.1-2.2-.8-2.3-.9-.4-.6-1.2-.7-1.8-.3-.6.4-.7 1.2-.3 1.8.5.7 2 2 4.3 2h.2c.7 0 1.3-.6 1.3-1.4 0-.7-.6-1.3-1.4-1.2zM7.1 24.6c.3.3.6.5 1 .5.3 0 .6-.1.8-.3l1.7-1.4 1.7 1.4c.2.2.5.3.8.3.4 0 .8-.2 1-.5.5-.6.4-1.4-.2-1.9l-1.3-1 1.3-1c.6-.5.7-1.3.2-1.9-.5-.6-1.3-.7-1.9-.2L10.6 20l-1.7-1.4c-.6-.5-1.4-.4-1.9.2-.5.6-.4 1.4.2 1.9l1.3 1-1.3 1c-.5.5-.6 1.3-.1 1.9zM55 8.8H1.3c-.7 0-1.3.6-1.3 1.4v53.7c0 .7.6 1.3 1.3 1.3H55c.7 0 1.3-.6 1.3-1.3V10.2c0-.8-.5-1.4-1.3-1.4zm-1.3 53.7h-51v-51h51v51z"/></g></svg>