<svg width="113" height="100" viewBox="0 0 113 98" xmlns="http://www.w3.org/2000/svg"><title>Group</title><desc>Created with Sketch.</desc><g fill="none" fill-rule="evenodd"><g fill="#8AB44C"><g><path d="M40.936 36.586l22.973.173c.69 0 1.38-.346 1.726-.863l6.39-7.76 1.9-2.413c.174-.172.174-.172.174-.345.173-.346.345-.69.345-1.035V2.965c0-1.206-.863-2.413-2.59-2.413h-30.92c-1.208 0-2.417 1.034-2.417 2.414v31.206c0 1.38 1.037 2.414 2.418 2.414zm25.22-8.448v-1.552h1.208l-1.21 1.552zM43.008 5.208h26.945v16.895H63.91c-1.21 0-2.246 1.035-2.246 2.242v7.758l-18.482-.172V5.208h-.173zM72.027 61.24h-31.09c-1.382 0-2.42 1.036-2.42 2.415v31.207c0 1.38 1.038 2.414 2.42 2.414l22.972.345c.69 0 1.38-.344 1.726-.86l8.464-9.83c.345-.344.518-.86.518-1.55V63.654c0-1.38-1.036-2.414-2.59-2.414zM66.155 89v-1.897l1.554.173L66.154 89zM43.01 65.724h26.945v17.07l-6.046-.346c-.692 0-1.21.173-1.728.69-.518.517-.69 1.034-.69 1.724v8.276l-18.483-.345v-27.07zM33.682 61.24H2.418C1.036 61.24 0 62.277 0 63.656v31.207c0 1.207 1.036 2.414 2.418 2.414l22.973.345h.174c.69 0 1.38-.344 1.727-.86l8.12-10.346c.345-.345.517-.862.517-1.38v-21.38c.173-1.378-.863-2.413-2.245-2.413zM4.664 65.725H31.61V82.62h-5.874c-1.21 0-2.245 1.035-2.245 2.242v8.104L4.665 92.62V65.725zm23.318 22.93v-1.378h1.036l-1.036 1.38zM112.964 84.345v-20.69c0-.69-.173-1.38-.69-1.724-.52-.516-1.038-.69-1.73-.69H79.283c-1.21 0-2.418 1.208-2.418 2.415v31.207c0 1.38 1.036 2.414 2.418 2.414h22.973c.69 0 1.38-.345 1.727-.862l8.29-10c.692-.517.864-1.38.692-2.07zm-8.29 4.138v-1.207h1.035l-1.037 1.207zm-23.147-22.76H108.3v16.898h-5.873c-1.21 0-2.245 1.035-2.245 2.242v7.76H81.7V65.723h-.173zM18.136 60.034c1.21 0 2.246-1.034 2.246-2.24V51.93h33.854v5.863c0 1.207 1.037 2.24 2.246 2.24 1.21 0 2.245-1.033 2.245-2.24V51.93h34.028v5.863c0 1.207 1.036 2.24 2.245 2.24 1.21 0 2.245-1.033 2.245-2.24v-8.276c0-1.207-1.036-2.24-2.245-2.24H58.727v-6.208c0-1.208-1.036-2.242-2.245-2.242-1.21 0-2.246 1.034-2.246 2.24v6.208h-36.1c-1.21 0-2.245 1.034-2.245 2.24v8.277c-.172 1.207.865 2.24 2.246 2.24z"/></g></g></g></svg>