<svg width="87" height="100" viewBox="0 0 87 100" xmlns="http://www.w3.org/2000/svg"><title>mvp</title><desc>Created with Sketch.</desc><g fill="none" fill-rule="evenodd"><g fill="#8AB44C"><g><path d="M86.313 54.07c0-3.728-2.042-6.948-5.444-9.15 1.19-3.052 1.36-6.102.34-8.814-1.362-3.728-4.424-6.1-6.465-7.118.17-1.864-.17-3.73-1.19-5.254-3.063-4.915-11.57-7.118-15.992-7.965.17-.85.17-1.527.17-2.374 0-6.95-5.614-12.71-12.758-12.71-6.975 0-12.76 5.592-12.76 12.71 0 .678 0 1.356.17 2.034h-.68c-1.19.17-12.248 1.355-15.99 7.965-1.19 2.034-1.36 4.407-.68 6.95-4.594 1.016-7.826 5.083-8.847 9.32-.51 2.712-.34 5.085.68 7.288-2.89.678-5.443 2.88-6.464 6.1-.68 3.39.34 8.475 5.104 11.187l10.377 34.235c.34 1.017 1.19 1.525 2.21 1.525l49.335-.34c1.02 0 1.87-.677 2.21-1.524L80.02 63.9c3.913-2.033 6.294-5.76 6.294-9.83zM45.315 5.09c4.593 0 8.165 3.73 8.165 8.136 0 4.407-3.742 8.135-8.165 8.135-4.593 0-8.166-3.727-8.166-8.134 0-4.406 3.572-8.135 8.165-8.135zM10.95 40.514c.682-3.22 3.574-6.44 7.316-6.102.85 0 1.53-.338 2.042-1.015.51-.678.51-1.526.17-2.204-1.19-2.37-1.36-4.236-.51-5.76 2.04-3.73 9.696-5.255 12.418-5.594.68 0 1.19-.34 1.53-.847 2.042 4.066 6.465 6.947 11.4 6.947 4.592 0 8.504-2.372 10.716-5.93 4.933.677 11.908 2.88 13.95 5.93.51 1.017.68 2.034.34 3.22-3.743 6.44-22.796 6.61-34.023 5.254-1.192-.168-2.383.68-2.553 1.866-.17 1.186.68 2.372 1.87 2.542 3.063.34 29.09 3.56 37.427-5.762 1.36.847 3.232 2.372 4.082 4.575.68 2.035.51 4.238-.85 6.78-18.203 10.678-50.014 5.255-62.092 2.882-4.083-1.525-3.573-5.593-3.233-6.78zm54.78 54.91h-4.424l4.423-19.998c.34-1.186-.512-2.372-1.703-2.71-1.19-.34-2.38.507-2.72 1.694L56.54 95.423H45.145V74.748c0-1.187-1.02-2.204-2.212-2.204-1.19 0-2.21 1.017-2.21 2.204v20.846h-11.4L24.392 74.41c-.34-1.188-1.53-2.035-2.72-1.696-1.192.34-2.043 1.525-1.702 2.71l4.763 20.17h-4.933l-9.016-29.15C18.608 68.815 29.665 70 40.723 70c12.588 0 25.347-1.356 33.853-3.898l-8.846 29.32zm11.396-35.08c-13.95 5.93-54.096 7.117-68.896.338-3.403-1.525-3.743-4.406-3.062-6.44.51-1.525 1.7-3.05 3.912-3.05h.85c.68.17 1.362.34 2.382.508 11.398 2.204 45.59 8.644 65.835-3.05 2.382 1.356 3.743 3.39 3.743 5.592 0 2.373-1.872 4.915-4.764 6.102z"/></g></g></g></svg>