<svg width="112" height="100" viewBox="0 0 112 100" xmlns="http://www.w3.org/2000/svg"><title>scrum</title><desc>Created with Sketch.</desc><g fill="none" fill-rule="evenodd"><g fill="#8AB44C"><g><g><path d="M17.594 52.286c-1.574-.572-1.86-.857-2.575-1.286 1.286-1.43 2.145-3.57 2.145-5.857 0-4.286-2.86-7.714-6.294-7.714-3.432 0-6.293 3.427-6.293 7.713 0 2.286.858 4.428 2.146 5.857-.858.43-1.145.714-2.575 1.286-2.145.857-3.576 3-3.862 4.57-.286 1-.286 1.858-.286 2 0 .43.143 1 .43 1.287.285.428.857.57 1.286.57h18.31c.428 0 1-.142 1.287-.57.286-.43.572-.857.43-1.286 0-.143 0-1-.287-2-.286-1.57-1.717-3.714-3.862-4.57zM10.87 41c1.43 0 2.72 2 2.72 4.143s-1.29 4.143-2.72 4.143c-1.43 0-2.717-2-2.717-4.143S9.44 41 10.87 41zM4.006 57.143c.286-.43.715-1.143 1.573-1.572 1.717-.713 2.29-1 3.29-1.713.573-.286.86-.714 1.288-1.143h.858c.143.143.43.143.715.143.285.43.714.857 1.143 1.143 1.145.714 1.574.857 3.29 1.57.86.287 1.288 1 1.574 1.573H4.005zM47.06 23.43h18.165c.43 0 1.002-.144 1.288-.573.286-.428.572-.857.43-1.286 0-.14 0-.713-.287-1.713-.286-1.428-1.574-3.428-3.862-4.428-1.574-.573-1.86-.86-2.575-1.287 1.286-1.43 2.145-3.572 2.145-5.857C62.365 4 59.505.57 56.07.57 52.64.57 49.778 4 49.778 8.287c0 2.285.858 4.428 2.146 5.857-.715.428-1.145.57-2.575 1.286-2.432 1-3.576 3-3.862 4.427-.286 1-.286 1.714-.286 1.714 0 .43.143 1 .43 1.43.428.286.857.43 1.43.43zM56.213 4c1.43 0 2.718 2 2.718 4.143s-1.288 4.143-2.718 4.143-2.718-2-2.718-4.143S54.784 4 56.214 4zm-5.436 14.57c1.717-.713 2.146-1 3.29-1.57.573-.286.86-.714 1.145-1.143.286 0 .572.143.858.143.287 0 .573 0 .86-.143.285.43.714.857 1.143 1.143 1.145.714 1.574.857 3.29 1.57.715.287 1.145.86 1.43 1.287H49.206c.43-.428.858-1 1.573-1.286zM62.937 91.143c-1.574-.572-1.86-.857-2.575-1.286 1.287-1.428 2.146-3.57 2.146-5.857 0-4.286-2.86-7.714-6.294-7.714-3.433 0-6.294 3.428-6.294 7.714 0 2.286.858 4.43 2.146 5.857-.715.43-1.144.714-2.575 1.286-2.43 1-3.575 3-3.86 4.57-.287 1-.287 1.858-.287 1.858 0 .43.143 1 .43 1.287.285.43.857.572 1.286.572h18.165c.43 0 1.002-.144 1.288-.573.286-.428.572-.857.43-1.286 0-.14 0-.856-.287-1.856-.286-1.57-1.574-3.57-3.72-4.57zM56.214 80c1.43 0 2.718 2 2.718 4.143s-1.288 4.143-2.718 4.143-2.718-2-2.718-4.143c0-2.286 1.288-4.143 2.718-4.143zm-6.866 16c.286-.43.715-1.143 1.574-1.43 1.716-.713 2.288-1 3.29-1.57.572-.286.858-.714 1.144-1.143.286 0 .572.143.858.143.286 0 .572 0 .858-.143.286.43.715.857 1.144 1.143 1.145.714 1.574.857 3.29 1.57.86.287 1.288 1 1.574 1.43H49.348zM55.928 38.43c-3.433 0-6.294 3.427-6.294 7.713 0 2.286.858 4.428 2.146 5.857-.715.43-1.145.714-2.575 1.286-2.432 1-3.576 3-3.862 4.57-.286 1-.286 1.858-.286 1.858 0 .43.143 1 .43 1.286.285.43.857.57 1.286.57H64.94c.428 0 1-.14 1.287-.57.286-.43.572-.857.43-1.286 0-.143 0-.857-.287-1.857-.286-1.57-1.717-3.714-3.862-4.57-1.574-.573-1.86-.858-2.575-1.287 1.287-1.43 2.145-3.57 2.145-5.857.144-4.286-2.574-7.714-6.15-7.714zm0 3.57c1.43 0 2.718 2 2.718 4.143s-1.288 4.143-2.718 4.143-2.718-2-2.718-4.143S54.497 42 55.928 42zm6.866 16.143H49.062c.286-.43.715-1.143 1.573-1.43 1.717-.713 2.146-1 3.29-1.57.572-.286.86-.714 1.145-1.143.286 0 .572.143.858.143.286 0 .572 0 .858-.143.286.43.715.857 1.144 1.143 1.145.714 1.574.857 3.29 1.57.858.287 1.43.858 1.574 1.43zM111.57 56.857c-.43-1.714-1.717-3.714-3.862-4.57-1.574-.573-1.86-.858-2.575-1.287 1.287-1.43 2.145-3.57 2.145-5.857 0-4.286-2.86-7.714-6.293-7.714-3.576 0-6.294 3.427-6.294 7.713 0 2.428.86 4.428 2.147 5.857-.86.43-1.145.714-2.575 1.286-2.146.857-3.576 3-3.862 4.57-.286 1-.286 1.858-.286 2 0 .43.143 1 .43 1.287.285.428.857.57 1.286.57h18.31c.428 0 1-.142 1.287-.57.286-.43.572-.857.43-1.286 0-.143 0-1-.287-2zM100.985 41c1.43 0 2.718 2 2.718 4.143s-1.288 4.143-2.718 4.143-2.718-2-2.718-4.143c0-2.286 1.287-4.143 2.718-4.143zM94.12 57.143c.285-.43.714-1.143 1.572-1.572 1.717-.713 2.29-1 3.29-1.713.572-.286.86-.714 1.288-1.143.286 0 .572.143.715.143.286 0 .572 0 .858-.143.286.43.715.857 1.144 1.143 1.145.714 1.574.857 3.29 1.572.858.284 1.288 1.14 1.574 1.57H94.12v.143zM48.204 78.857c.572 0 1.144-.286 1.43-.857.572-.857.286-2-.43-2.43L27.893 61.43c-.858-.573-2.002-.287-2.43.427-.573.857-.287 2 .428 2.43L47.203 78.57c.286.287.715.287 1 .287zM85.108 60.286L62.65 75.57c-.858.573-1 1.716-.428 2.43.286.57.858.714 1.43.714.286 0 .715-.143 1-.285l22.315-15.287c.858-.572 1-1.714.43-2.43-.43-.856-1.574-1-2.29-.427zM87.968 41.286L65.082 27c-.858-.57-2.002-.286-2.43.57-.574.86-.287 2 .57 2.43L86.11 44.286c.285.143.57.285 1 .285.572 0 1.144-.284 1.574-.856.43-.714.143-1.857-.716-2.428zM25.747 45.43l23.887-15.287c.858-.572 1.144-1.714.572-2.43-.572-.856-1.573-1.142-2.43-.57L23.885 42.43c-.857.57-1.143 1.713-.57 2.427.285.572.857.857 1.573.857.285 0 .57 0 .857-.285zM45.915 52.43c1 0 1.86-.86 1.86-1.86s-.86-1.856-1.86-1.856h-19.74c-1 0-1.86.857-1.86 1.857s.86 1.86 1.86 1.86h19.74zM85.68 52.43c1 0 1.86-.86 1.86-1.86s-.86-1.856-1.86-1.856H66.084c-1.002 0-1.86.857-1.86 1.857s.858 1.86 1.86 1.86H85.68z"/></g></g></g></g></svg>