<svg xmlns="http://www.w3.org/2000/svg" viewBox="0 0 71.8 70" enable-background="new 0 0 71.8 70" height="100"><g fill="#9754BB"><path d="M21.5 17.1c.5-.5.6-1.3.1-1.9-.5-.5-1.3-.6-1.9-.1l-3 2.8.1-7c0-.7-.6-1.3-1.3-1.3-.7 0-1.3.6-1.3 1.3l-.2 10c0 .5.3 1 .8 1.2.2.1.4.1.5.1.3 0 .7-.1.9-.4l5.3-4.7zM71.3 58.5l-6-4.5V20.9c0-.7-.6-1.3-1.3-1.3H33.9c-.7 0-1.3.6-1.3 1.3s.6 1.3 1.3 1.3h28.8v31H17v-14c0-.7-.6-1.3-1.3-1.3s-1.3.6-1.3 1.3v15.4c0 .2 0 .3.1.5l-4.8 3.7c-.5.2-.7.6-.6 1v.1c0 3 1.4 5.3 3.3 5.3h56.2c1.9 0 3.3-2.3 3.3-5.3v-.1c0-.5-.2-1-.6-1.3zm-54-2.4l46.2-.2 3 2.3-52.3.2 3.1-2.3zm51.2 6.4h-56c-.2-.1-.4-.6-.6-1.3h57.2c-.2.7-.5 1.2-.6 1.3zM30.9 21.1c0-8.5-6.9-15.4-15.4-15.4S0 12.6 0 21.1s6.9 15.4 15.4 15.4 15.5-6.9 15.5-15.4zm-28.2 0c0-7 5.7-12.8 12.8-12.8 7 0 12.8 5.7 12.8 12.8 0 7-5.7 12.8-12.8 12.8-7.1 0-12.8-5.7-12.8-12.8z"/></g></svg>