<svg xmlns="http://www.w3.org/2000/svg" viewBox="0 0 72 70" enable-background="new 0 0 72 70" height="100"><g fill="#9754BB"><path d="M71.7 63L60.3 44.2V32.1c0-.7-.6-1.3-1.3-1.3h-8c-.7 0-1.3.6-1.3 1.3v12.1l-11.5 19c-.2.4-.3.9 0 1.3.2.4.7.7 1.2.7h31.3c.7 0 1.3-.6 1.3-1.3 0-.4-.1-.7-.3-.9zM52.2 45.3c.1-.2.2-.4.2-.7V33.5h5.3v11.1c0 .2.1.5.2.7l2.1 3.4c-1.3-.2-2.5.1-3.4.8-.6.5-1.1 1-1.6 1.5-.9.8-2 2-2.6 2-1.9 0-3.1-1.1-3.7-1.8l3.5-5.9zM41.7 62.5l5.5-9c1 1 2.7 2.1 5.1 2.1 1.7 0 3.1-1.4 4.5-2.7.5-.5 1-1 1.5-1.4.4-.4 1.2-.3 1.6-.2 1.1.2 2.3.9 2.7 1.7 0 .1.1.1.1.2l5.7 9.4H41.7zM40.2 14.7c.7 0 1.3-.6 1.3-1.3 0-.7-.6-1.3-1.3-1.3h-4.9V6.2c0-.7-.6-1.3-1.3-1.3h-8.1c-.7 0-1.3.6-1.3 1.3v5.9H11.7V6.2c0-.7-.6-1.3-1.3-1.3S9 5.4 9 6.2v5.9H6.7c-.2-.4-.4-.8-.7-1.1-1.4-1.4-3.7-1.4-5 0-1.4 1.4-1.4 3.6 0 4.9.7.7 1.5 1 2.5 1 .9 0 1.8-.4 2.5-1 .3-.3.6-.7.8-1.1h2.3v43.4H6.7c-.7 0-1.3.6-1.3 1.3s.6 1.3 1.3 1.3h6.4c.7 0 1.3-.6 1.3-1.3s-.6-1.3-1.3-1.3h-1.5V14.7h12.9v28.8c0 2.9 2.4 5.3 5.4 5.3 3 0 5.4-2.4 5.4-5.3V14.7h4.9zm-13-7.2h5.4v4.6h-5.4V7.5zm5.4 36c0 1.5-1.2 2.7-2.7 2.7-1.5 0-2.7-1.2-2.7-2.7V14.7h5.4v28.8zM17.9 62.5H1.3c-.7 0-1.3.6-1.3 1.3s.6 1.3 1.3 1.3h16.6c.7 0 1.3-.6 1.3-1.3s-.6-1.3-1.3-1.3zM52.5 17.7c1.2 2.9.5 5.1 0 6.2-.3.7 0 1.5.7 1.8.2.1.4.1.6.1.5 0 1-.3 1.2-.8.7-1.5 1.6-4.5 0-8.3-.1-.2-.2-.4-.3-.7-.8-1.7-2.3-4.9.2-9 .4-.6.2-1.4-.4-1.8-.6-.4-1.4-.2-1.8.4-3.3 5.4-1.2 9.7-.3 11.6 0 .1.1.3.1.5zM56.8 17.4c.6 1.4.5 1.9.2 3.1-.2.7.3 1.4 1 1.6h.3c.6 0 1.1-.4 1.3-1 .3-1.4.5-2.6-.4-4.7-.1-.2-.2-.4-.4-.7-.6-1.1-1.7-2.8-.6-5.6.3-.7-.1-1.5-.8-1.7-.7-.3-1.4.1-1.7.8-1.5 3.9.1 6.6.8 7.8.2.2.3.3.3.4z"/></g></svg>