<svg xmlns="http://www.w3.org/2000/svg" viewBox="0 0 54.3 70" enable-background="new 0 0 54.3 70" height="100"><g fill="#9754BB"><path d="M52.9 62.5h-50c-.1 0-.2-.2-.3-.2V12.2c0-.7-.6-1.3-1.3-1.3S0 11.5 0 12.2v50.1c0 1.5 1.4 2.9 2.9 2.9H53c.7 0 1.3-.6 1.3-1.3s-.6-1.4-1.4-1.4zM8.7 57.8c.4 0 .8-.2 1.1-.6L27 32l8 8c.3.3.7.4 1.1.4.4 0 .8-.3 1-.6l17-26.8c.4-.6.2-1.4-.4-1.8-.6-.4-1.4-.2-1.8.4L35.7 36.9 27.8 29c-.3-.3-.7-.4-1.1-.4-.4 0-.7.2-1 .6L7.6 55.7c-.4.6-.3 1.4.3 1.8.3.2.5.3.8.3zM8.8 50.1c.7 0 1.3-.6 1.3-1.3V12.2c0-.7-.6-1.3-1.3-1.3s-1.3.6-1.3 1.3v36.6c-.1.7.5 1.3 1.3 1.3zM16 39.5c.7 0 1.3-.6 1.3-1.3v-26c0-.7-.6-1.3-1.3-1.3s-1.3.6-1.3 1.3v26c0 .7.6 1.3 1.3 1.3zM23.3 28.6c.7 0 1.3-.6 1.3-1.3V12.2c0-.7-.6-1.3-1.3-1.3s-1.3.6-1.3 1.3v15.1c0 .7.6 1.3 1.3 1.3zM30.8 27.4c.7 0 1.3-.6 1.3-1.3V12.2c0-.7-.6-1.3-1.3-1.3s-1.3.6-1.3 1.3v13.9c-.1.7.5 1.3 1.3 1.3zM38.2 29c.7 0 1.3-.6 1.3-1.3V12.2c0-.7-.6-1.3-1.3-1.3s-1.3.6-1.3 1.3v15.5c0 .7.6 1.3 1.3 1.3zM45.7 17.6c.7 0 1.3-.6 1.3-1.3v-4.1c0-.7-.6-1.3-1.3-1.3s-1.3.6-1.3 1.3v4.1c0 .7.6 1.3 1.3 1.3z"/></g></svg>