<svg xmlns="http://www.w3.org/2000/svg" viewBox="0 0 68.6 70" enable-background="new 0 0 68.6 70" height="100"><path fill="#498BDA" d="M68.2 19.4L54.7 3.9c-.2-.3-.6-.4-.9-.5-.4 0-.7.1-1 .4L31.9 23.1c-.5.5-.6 1.3-.1 1.8l.2.3-16 14c-.6.5-.6 1.3-.1 1.9.1.2.3.3.5.4L5.1 51.4l-4.6 4c-.3.3-.5.6-.5 1s.1.7.3 1L8 66.2c.3.3.6.5 1 .5.3 0 .6-.1.9-.3l16-14c0 .2.1.4.3.6.3.3.6.5 1 .5.3 0 .6-.1.9-.3l16-14 .3.3c.3.3.6.5 1 .5.3 0 .6-.1.8-.3l21.9-18.2c.3-.2.4-.6.5-.9 0-.6-.1-1-.4-1.2zm-59 44l-6-6.8 2.6-2.3 6 6.8-2.6 2.3zm4.6-4.1l-6-6.8 10.3-9 6 6.8-10.3 9zm13.4-9.1c0-.2-.1-.4-.3-.6l-7.7-8.8c-.1-.2-.3-.3-.5-.3l15.1-13.2 8.5 9.7-15.1 13.2zm18.3-13.6L34.6 24.2l19-17.5 11.8 13.4-19.9 16.5z"/></svg>