<svg xmlns="http://www.w3.org/2000/svg" viewBox="0 0 70.8 70" enable-background="new 0 0 70.8 70" height="100"><g fill="#498BDA"><path d="M52.8 24.9c-3.8-3.8-8.8-6-13.6-6-3.7 0-7 1.3-9.4 3.7-2.8 2.8-4.1 6.8-3.6 11.1.5 4.3 2.6 8.5 5.9 11.8 3.8 3.8 8.8 6 13.6 6 3.7 0 7-1.3 9.4-3.7 5.7-5.6 4.6-15.9-2.3-22.9zm-7.1 24c-4.1 0-8.4-1.9-11.7-5.2-2.9-2.9-4.7-6.5-5.1-10.2-.4-3.6.6-6.8 2.8-9 1.9-1.9 4.5-2.9 7.5-2.9 4.1 0 8.4 1.9 11.7 5.2 5.9 5.9 7 14.5 2.3 19.2-1.9 1.9-4.5 2.9-7.5 2.9zM69.9 46.9L60 44c-.7-.2-1.4.2-1.6.9-.2.7.2 1.4.9 1.6l6 1.7c-.1.1-.2.2-.4.3-.9.9-1.4 2-1.6 3.3-2.6.6-4.2 2.1-4.6 4.6-1.7.2-2.8.9-3.5 1.9l-2.4-5.8c-.3-.7-1.1-1-1.7-.7-.7.3-1 1.1-.7 1.7l3.9 9.2c.2.5.7.8 1.2.8h.3c.6-.1 1.1-.7 1.1-1.3 0-2.8 1.4-3.1 2.9-3.2.4 0 .8 0 1.2-.4.2-.2.4-.5.4-.9.1-2.7 1.6-3.1 3.1-3.3.4-.1.9-.1 1.2-.5.2-.2.4-.6.4-.9 0-3.3 3-3.5 3.5-3.6.7 0 1.2-.5 1.3-1.1 0-.6-.4-1.2-1-1.4zM13.4 24.3l11.2 3.3c.1 0 .2.1.4.1.6 0 1.1-.4 1.3-1 .2-.7-.2-1.4-.9-1.6L18 23c.1-.1.2-.2.4-.3.9-.9 1.4-2 1.6-3.3 2.6-.6 4.2-2.1 4.6-4.6 1.8-.2 2.9-1 3.6-1.9l2.6 6c.3.7 1.1 1 1.7.7.7-.3 1-1.1.7-1.7L29 8.4c-.3-.6-.9-.9-1.5-.8-.6.1-1.1.7-1.1 1.3 0 2.8-1.4 3.1-2.9 3.2-.4 0-.8 0-1.2.4-.2.2-.4.5-.4.9-.1 2.7-1.6 3.1-3.1 3.3-.4.1-.9.1-1.2.5-.2.2-.4.6-.4.9 0 3.3-3 3.5-3.5 3.6-.7 0-1.2.5-1.3 1.1-.1.7.3 1.4 1 1.5zM11 46.1c.2.1.5.2.7.2.4 0 .9-.2 1.1-.6.5-.9 1.4-2.5 1.2-3.6-.1-.7-.8-1.3-1.5-1.2-.7.1-1.2.7-1.1 1.5 0 .3-.4 1.2-.9 1.9-.3.6-.1 1.4.5 1.8zM10.1 38.2c.2.5.7.9 1.3.9.1 0 .3 0 .4-.1.7-.2 1.1-1 .8-1.7-.3-.9-1.3-2.5-3.5-3.4-.7-.3-1.5.1-1.7.8-.3.7.1 1.5.8 1.7 1.4.6 1.9 1.7 1.9 1.8zM10.9 51.6c-.1-.3.1-1.3.4-2.1.2-.7-.2-1.4-.9-1.7-.7-.2-1.4.2-1.7.9-.3 1-.8 2.7-.3 3.8.2.5.7.9 1.3.9.2 0 .3 0 .5-.1.6-.3.9-1 .7-1.7zM26.9 49.2l-2.1 2c-.5.5-.5 1.4 0 1.9.3.3.6.4.9.4.3 0 .7-.1.9-.4l2.1-2c.5-.5.5-1.4 0-1.9s-1.2-.6-1.8 0zM21.2 54.3c-.6.6-1.5 1.2-1.7 1.2-.7 0-1.3.7-1.2 1.4 0 .7.6 1.2 1.3 1.2h.1c1.2-.1 2.6-1.2 3.3-1.9.5-.5.6-1.3.1-1.9-.5-.5-1.4-.5-1.9 0zM14.9 56c-.1 0-1.2 0-2.5-1.1-.6-.5-1.4-.4-1.9.2-.5.6-.4 1.4.2 1.9 1.9 1.6 3.8 1.7 4.2 1.7h.1c.7 0 1.3-.6 1.3-1.3-.1-.8-.7-1.4-1.4-1.4zM3.7 34.3c-1.2.1-2.6 1.2-3.3 1.9-.5.5-.6 1.3-.1 1.9.3.3.6.4 1 .4.3 0 .6-.1.9-.4.6-.5 1.5-1.1 1.7-1.1.7 0 1.3-.7 1.2-1.4 0-.8-.6-1.3-1.4-1.3z"/></g></svg>