<svg xmlns="http://www.w3.org/2000/svg" viewBox="0 0 59.3 70" enable-background="new 0 0 59.3 70" height="100"><g fill="#498BDA"><path d="M29.7 5.3C13.3 5.3 0 18.6 0 34.9c0 16.4 13.3 29.7 29.7 29.7s29.7-13.3 29.7-29.7C59.3 18.6 46 5.3 29.7 5.3zm0 56.6c-14.9 0-27-12.1-27-27s12.1-27 27-27 27 12.1 27 27-12.1 27-27 27zM41.5 21.3l-15.9 9c-.2.1-.4.3-.5.5l-9 15.9c-.3.5-.2 1.2.2 1.6.3.2.6.4.9.4.2 0 .5-.1.7-.2l15.6-9.4c.2-.1.3-.3.4-.4l9.4-15.6c.3-.5.2-1.2-.2-1.6-.4-.4-1.1-.5-1.6-.2zm-15 12.4l4.1 4.1-9.8 5.9 5.7-10zm6 2.2l-4.1-4.1 10-5.7-5.9 9.8zM32 11.1c-.6-.1-1.1.3-1.3.8l-.6 1.7-.6-1.7c-.2-.5-.7-.9-1.2-.8-12.7.6-22.6 11.2-22.6 23.8 0 13.2 10.8 24 24 24s24-10.8 24-24c-.1-12.4-9.4-22.7-21.7-23.8zm-2.3 45.3c-11.8 0-21.5-9.6-21.5-21.5 0-11 8.4-20.3 19.3-21.4l1.5 4.1c.2.5.6.8 1.2.8.5 0 1-.3 1.2-.8l1.4-4c10.6 1.5 18.5 10.5 18.5 21.3-.2 11.9-9.8 21.5-21.6 21.5z"/></g></svg>